<?xml version="1.0" encoding="utf-8"?><svg xmlns="http://www.w3.org/2000/svg" xmlns:xlink="http://www.w3.org/1999/xlink"><symbol viewBox="0 0 24 24" id="archive" xmlns="http://www.w3.org/2000/svg"><path d="M4 7.997a2.3 2.3 0 0 1-.39-.035A2 2 0 0 1 2.038 6.39C2 6.197 2 5.965 2 5.5s0-.697.038-.89A2 2 0 0 1 3.61 3.038C3.803 3 4.035 3 4.5 3h15c.465 0 .697 0 .89.038a2 2 0 0 1 1.572 1.572c.038.193.038.425.038.89s0 .697-.038.89a2 2 0 0 1-1.572 1.572c-.107.02-.226.03-.39.035M10 13h4M4 8h16v8.2c0 1.68 0 2.52-.327 3.162a3 3 0 0 1-1.311 1.311C17.72 21 16.88 21 15.2 21H8.8c-1.68 0-2.52 0-3.162-.327a3 3 0 0 1-1.311-1.311C4 18.72 4 17.88 4 16.2z"/></symbol><symbol fill="none" viewBox="0 0 32 32" id="arrow-up-right" xmlns="http://www.w3.org/2000/svg"><path d="M9.333 22.667 22.667 9.333m0 0H9.333m13.334 0v13.334" stroke="#DEE2E6" stroke-width="3" stroke-linecap="round" stroke-linejoin="round"/></symbol><symbol viewBox="0 0 24 24" id="burger" xmlns="http://www.w3.org/2000/svg"><path fill-rule="evenodd" d="M3.5 5a1 1 0 0 0 0 2h17a1 1 0 1 0 0-2zm-1 7a1 1 0 0 1 1-1h17a1 1 0 0 1 0 2h-17a1 1 0 0 1-1-1m0 6.001a1 1 0 0 1 1-1h17a1 1 0 0 1 0 2h-17a1 1 0 0 1-1-1" clip-rule="evenodd"/></symbol><symbol fill="none" viewBox="0 0 25 24" id="chevron-down" xmlns="http://www.w3.org/2000/svg"><path d="m6.5 9 6 6 6-6" stroke-width="2" stroke-linecap="round" stroke-linejoin="round"/></symbol><symbol fill="none" viewBox="0 0 24 24" id="chevron-up" xmlns="http://www.w3.org/2000/svg"><path d="m18 15-6-6-6 6" stroke-width="2" stroke-linecap="round" stroke-linejoin="round"/></symbol><symbol fill="none" viewBox="0 0 24 24" id="close" xmlns="http://www.w3.org/2000/svg"><path d="M17 7 7 17M7 7l10 10" stroke="#F1F3F5" stroke-width="2" stroke-linecap="round" stroke-linejoin="round"/></symbol><symbol fill="none" viewBox="0 0 5 4" id="dot" xmlns="http://www.w3.org/2000/svg"><circle cx="2.435" cy="1.934" r="1.878" fill="#B6B6B6"/></symbol><symbol viewBox="0 0 24 24" id="facebook" xmlns="http://www.w3.org/2000/svg"><g clip-path="url(#ha)"><path d="M12 0C5.373 0 0 5.373 0 12c0 5.628 3.875 10.35 9.101 11.647v-7.98H6.627V12H9.1v-1.58c0-4.084 1.849-5.978 5.859-5.978.76 0 2.072.15 2.608.298v3.324a15 15 0 0 0-1.386-.044c-1.967 0-2.728.745-2.728 2.683V12h3.92l-.673 3.667h-3.247v8.245C19.396 23.195 24 18.135 24 12c0-6.627-5.373-12-12-12"/></g><defs><clipPath id="ha"><path d="M0 0h24v24H0z"/></clipPath></defs></symbol><symbol viewBox="0 0 24 24" id="instagram" xmlns="http://www.w3.org/2000/svg"><g clip-path="url(#ia)"><path d="M12 2.16c3.206 0 3.586.015 4.847.071 1.172.052 1.805.249 2.226.413a3.7 3.7 0 0 1 1.379.895c.421.422.68.82.895 1.378.164.422.36 1.06.412 2.227.057 1.265.07 1.645.07 4.847 0 3.206-.013 3.586-.07 4.846-.051 1.172-.248 1.805-.412 2.227a3.7 3.7 0 0 1-.895 1.378 3.7 3.7 0 0 1-1.379.895c-.421.165-1.059.361-2.226.413-1.266.056-1.645.07-4.847.07-3.206 0-3.586-.014-4.847-.07-1.172-.052-1.805-.248-2.226-.413a3.7 3.7 0 0 1-1.379-.895 3.7 3.7 0 0 1-.895-1.378c-.164-.422-.36-1.06-.412-2.227-.057-1.265-.07-1.645-.07-4.846 0-3.207.013-3.586.07-4.847.051-1.172.248-1.805.412-2.227.216-.558.478-.96.895-1.378.422-.422.82-.68 1.379-.895.421-.164 1.059-.361 2.226-.413 1.261-.056 1.64-.07 4.847-.07M12 0C8.742 0 8.334.014 7.055.07 5.78.127 4.903.333 4.144.628a5.9 5.9 0 0 0-2.128 1.388A5.9 5.9 0 0 0 .628 4.139C.333 4.903.127 5.775.07 7.05.014 8.334 0 8.742 0 12s.014 3.666.07 4.945c.057 1.275.263 2.152.558 2.911.31.792.717 1.463 1.388 2.128a5.9 5.9 0 0 0 2.123 1.383c.764.296 1.636.502 2.911.558 1.28.056 1.688.07 4.945.07s3.666-.014 4.946-.07c1.275-.056 2.151-.262 2.91-.558a5.9 5.9 0 0 0 2.124-1.383 5.9 5.9 0 0 0 1.383-2.123c.295-.764.501-1.636.558-2.911.056-1.28.07-1.687.07-4.945s-.014-3.666-.07-4.946c-.057-1.275-.263-2.151-.558-2.91a5.6 5.6 0 0 0-1.374-2.133A5.9 5.9 0 0 0 19.861.633C19.097.338 18.225.13 16.95.075 15.666.015 15.258 0 12 0"/><path d="M12 5.836A6.166 6.166 0 0 0 5.836 12 6.166 6.166 0 0 0 12 18.164 6.166 6.166 0 0 0 18.164 12 6.166 6.166 0 0 0 12 5.836m0 10.162A3.999 3.999 0 1 1 12.001 8 3.999 3.999 0 0 1 12 15.998m7.847-10.406a1.44 1.44 0 1 1-2.879 0 1.44 1.44 0 0 1 2.879 0"/></g><defs><clipPath id="ia"><path d="M0 0h24v24H0z"/></clipPath></defs></symbol><symbol viewBox="0 0 24 24" id="linkedin" xmlns="http://www.w3.org/2000/svg"><g clip-path="url(#ja)"><path d="M22.223 0H1.772C.792 0 0 .773 0 1.73v20.536C0 23.222.792 24 1.772 24h20.451c.98 0 1.777-.778 1.777-1.73V1.73C24 .773 23.203 0 22.223 0M7.12 20.452H3.558V8.995H7.12zM5.34 7.434a2.064 2.064 0 1 1 0-4.125 2.063 2.063 0 0 1 0 4.125m15.112 13.018h-3.558v-5.57c0-1.326-.024-3.037-1.852-3.037-1.851 0-2.133 1.449-2.133 2.944v5.663H9.356V8.995h3.413v1.566h.047c.473-.9 1.636-1.852 3.365-1.852 3.605 0 4.27 2.372 4.27 5.457z"/></g><defs><clipPath id="ja"><path d="M0 0h24v24H0z"/></clipPath></defs></symbol><symbol fill="none" viewBox="0 0 139 28" id="logo" xmlns="http://www.w3.org/2000/svg"><g clip-path="url(#ka)"><path d="M.168 19.665h17.47L.169 2.817v16.846Z" stroke="url(#kb)" stroke-width=".702"/><path d="M2.043 17.988h11.41L2.044 7.428v10.56Z" stroke="url(#kc)" stroke-width=".702"/><path d="M3.168 16.877h6.915l-6.915-6.484v6.484Z" stroke="url(#kd)" stroke-width=".702"/><path d="M4.293 15.767h3.526l-3.526-3.164v3.164Z" stroke="url(#ke)" stroke-width=".702"/><path d="M17.891 2.167v17.248L.826 2.167h17.065Z" stroke="url(#kf)" stroke-width=".702"/><path d="M16.192 4.018v11.265L5.496 4.018h10.696Z" stroke="url(#kg)" stroke-width=".702"/><path d="M15.068 5.129v6.826L8.5 5.129h6.568Z" stroke="url(#kh)" stroke-width=".702"/><path d="M13.943 6.24v3.48l-3.205-3.48h3.205Z" stroke="url(#ki)" stroke-width=".702"/><path d="M26.813 21.257h-3.409V.311h3.409v20.946Zm9.71-16.427h1.871c1.36 0 2.34.264 2.94.791.625.528.936 1.463.936 2.804v12.832h-3.274V7.831c0-.241-.123-.362-.368-.362h-4.61c-.246 0-.368.12-.368.362l.033 13.426h-3.274l-.034-16.163h2.907l.368 2.375-.268.626c0-1.077.245-1.89.735-2.44.513-.55 1.315-.825 2.406-.825Zm16.04.264v2.54h-4.144l.335-.33v10.885c0 .22.122.33.367.33h3.442v2.738H50.09c-1.626 0-2.807-.308-3.542-.924-.712-.615-1.069-1.66-1.069-3.133V7.304l.334.33h-2.239v-2.54h2.24l-.335.33V.97h3.275v4.453l-.335-.33h4.144Zm7.08-.264h1.536v2.837h-4.043c-.245 0-.367.11-.367.33l.033 13.26h-3.274l-.034-16.163h2.907l.368 2.375-.268.626c0-1.077.245-1.89.736-2.44.512-.55 1.314-.825 2.405-.825Zm13.339 16.625h-6.683c-1.626 0-2.807-.308-3.542-.924-.713-.637-1.069-1.682-1.069-3.133V8.722c0-1.495.312-2.518.936-3.068.623-.55 1.704-.824 3.24-.824h3.275c1.537 0 2.629.275 3.275.824.646.55.969 1.573.969 3.068v6.3h-8.788v-2.341h5.547V7.83c0-.241-.123-.362-.368-.362H65.33c-.223 0-.334.12-.334.362v10.523c0 .242.111.363.334.363h7.652v2.738Zm9.006-.1h-6.916l-.034-2.638h7.218c.245 0 .367-.121.367-.363v-3.661c0-.242-.122-.363-.368-.363h-3.207c-1.537 0-2.64-.275-3.308-.825-.646-.572-.97-1.561-.97-2.969V8.788c0-1.473.346-2.496 1.037-3.068.69-.593 1.793-.89 3.308-.89l5.914.033v2.705h-6.583c-.222 0-.334.12-.334.362v3.464c0 .242.112.363.334.363h3.175c1.56 0 2.662.275 3.308.825.646.55.969 1.539.969 2.968v2.21c0 1.32-.312 2.255-.936 2.804-.624.528-1.615.792-2.974.792ZM93.373 4.83h1.503c1.382 0 2.373.264 2.974.791.624.528.936 1.463.936 2.804v12.832H95.51V7.831c0-.241-.122-.362-.367-.362h-4.31c-.223 0-.335.12-.335.362l.034 13.426h-3.308L87.19 5.094h2.94l.368 2.375-.3.626c0-1.077.245-1.89.735-2.44.512-.55 1.325-.825 2.439-.825Zm8.286 0h1.504c1.359 0 2.339.264 2.94.791.624.528.936 1.463.936 2.804v12.832h-3.275V7.831c0-.241-.122-.362-.367-.362h-4.244c-.245 0-.367.12-.367.362l-.1.693-.168-.429c0-1.077.246-1.89.736-2.44.512-.55 1.314-.825 2.405-.825Zm12.317 16.69h-1.67c-1.337 0-2.317-.263-2.941-.79-.624-.55-.935-1.485-.935-2.805V15.55c0-1.43.323-2.419.969-2.969.646-.55 1.737-.824 3.274-.824h4.544v2.375h-5.179c-.245 0-.367.11-.367.33v4.057c0 .242.122.363.367.363h4.778V8.128c0-.22-.122-.33-.367-.33h-7.017V5.061h6.349c1.559-.022 2.673.263 3.341.857.691.594 1.036 1.628 1.036 3.101v12.238h-2.974l-.368-2.375.201-.627c0 1.056-.234 1.87-.702 2.441-.468.55-1.247.825-2.339.825Zm14.595-16.69h1.537v2.837h-4.043c-.245 0-.368.11-.368.33l.033 13.26h-3.274l-.033-16.163h2.906l.368 2.375-.267.626c0-1.077.245-1.89.735-2.44.512-.55 1.314-.825 2.406-.825Zm10.428.264v2.54h-4.143l.334-.33v10.885c0 .22.123.33.368.33h3.441v2.738h-2.472c-1.627 0-2.807-.308-3.542-.924-.713-.615-1.069-1.66-1.069-3.133V7.304l.334.33h-2.239v-2.54h2.239l-.334.33V.97h3.274v4.453l-.334-.33h4.143Z" fill="#fff"/><mask id="kj" style="mask-type:luminance" maskUnits="userSpaceOnUse" x="23" y="0" width="116" height="22"><path d="M26.813 21.257h-3.409V.311h3.409v20.946Zm9.71-16.427h1.871c1.36 0 2.34.264 2.94.791.625.528.936 1.463.936 2.804v12.832h-3.274V7.831c0-.241-.123-.362-.368-.362h-4.61c-.246 0-.368.12-.368.362l.033 13.426h-3.274l-.034-16.163h2.907l.368 2.375-.268.626c0-1.077.245-1.89.735-2.44.513-.55 1.315-.825 2.406-.825Zm16.04.264v2.54h-4.144l.335-.33v10.885c0 .22.122.33.367.33h3.442v2.738H50.09c-1.626 0-2.807-.308-3.542-.924-.712-.615-1.069-1.66-1.069-3.133V7.304l.334.33h-2.239v-2.54h2.24l-.335.33V.97h3.275v4.453l-.335-.33h4.144Zm7.08-.264h1.536v2.837h-4.043c-.245 0-.367.11-.367.33l.033 13.26h-3.274l-.034-16.163h2.907l.368 2.375-.268.626c0-1.077.245-1.89.736-2.44.512-.55 1.314-.825 2.405-.825Zm13.339 16.625h-6.683c-1.626 0-2.807-.308-3.542-.924-.713-.637-1.069-1.682-1.069-3.133V8.722c0-1.495.312-2.518.936-3.068.623-.55 1.704-.824 3.24-.824h3.275c1.537 0 2.629.275 3.275.824.646.55.969 1.573.969 3.068v6.3h-8.788v-2.341h5.547V7.83c0-.241-.123-.362-.368-.362H65.33c-.223 0-.334.12-.334.362v10.523c0 .242.111.363.334.363h7.652v2.738Zm9.006-.1h-6.916l-.034-2.638h7.218c.245 0 .367-.121.367-.363v-3.661c0-.242-.122-.363-.368-.363h-3.207c-1.537 0-2.64-.275-3.308-.825-.646-.572-.97-1.561-.97-2.969V8.788c0-1.473.346-2.496 1.037-3.068.69-.593 1.793-.89 3.308-.89l5.914.033v2.705h-6.583c-.222 0-.334.12-.334.362v3.464c0 .242.112.363.334.363h3.175c1.56 0 2.662.275 3.308.825.646.55.969 1.539.969 2.968v2.21c0 1.32-.312 2.255-.936 2.804-.624.528-1.615.792-2.974.792ZM93.373 4.83h1.503c1.382 0 2.373.264 2.974.791.624.528.936 1.463.936 2.804v12.832H95.51V7.831c0-.241-.122-.362-.367-.362h-4.31c-.223 0-.335.12-.335.362l.034 13.426h-3.308L87.19 5.094h2.94l.368 2.375-.3.626c0-1.077.245-1.89.735-2.44.512-.55 1.325-.825 2.439-.825Zm8.286 0h1.504c1.359 0 2.339.264 2.94.791.624.528.936 1.463.936 2.804v12.832h-3.275V7.831c0-.241-.122-.362-.367-.362h-4.244c-.245 0-.367.12-.367.362l-.1.693-.168-.429c0-1.077.246-1.89.736-2.44.512-.55 1.314-.825 2.405-.825Zm12.317 16.69h-1.67c-1.337 0-2.317-.263-2.941-.79-.624-.55-.935-1.485-.935-2.805V15.55c0-1.43.323-2.419.969-2.969.646-.55 1.737-.824 3.274-.824h4.544v2.375h-5.179c-.245 0-.367.11-.367.33v4.057c0 .242.122.363.367.363h4.778V8.128c0-.22-.122-.33-.367-.33h-7.017V5.061h6.349c1.559-.022 2.673.263 3.341.857.691.594 1.036 1.628 1.036 3.101v12.238h-2.974l-.368-2.375.201-.627c0 1.056-.234 1.87-.702 2.441-.468.55-1.247.825-2.339.825Zm14.595-16.69h1.537v2.837h-4.043c-.245 0-.368.11-.368.33l.033 13.26h-3.274l-.033-16.163h2.906l.368 2.375-.267.626c0-1.077.245-1.89.735-2.44.512-.55 1.314-.825 2.406-.825Zm10.428.264v2.54h-4.143l.334-.33v10.885c0 .22.123.33.368.33h3.441v2.738h-2.472c-1.627 0-2.807-.308-3.542-.924-.713-.615-1.069-1.66-1.069-3.133V7.304l.334.33h-2.239v-2.54h2.239l-.334.33V.97h3.274v4.453l-.334-.33h4.143Z" fill="#fff"/></mask><g mask="url(#kj)"><path d="M26.813 21.257v.33h.334v-.33h-.334Zm-3.409 0h-.334v.33h.334v-.33Zm0-20.946v-.33h-.334v.33h.334Zm3.409 0h.334v-.33h-.334v.33Zm14.522 5.31-.222.247.002.002.002.002.218-.25Zm.935 15.636v.33h.335v-.33h-.334Zm-3.274 0h-.334v.33h.334v-.33ZM33.65 7.831h-.334v.001h.334Zm.033 13.426v.33h.335v-.33h-.335Zm-3.274 0h-.334v.33h.334v-.33Zm-.034-16.163v-.33h-.334v.33h.334Zm2.907 0 .33-.05-.043-.28h-.287v.33Zm.368 2.375.308.128.036-.086-.014-.092-.33.05Zm-.267.626h-.335l.642.128-.307-.128Zm.735-2.44-.246-.224-.003.003-.002.002.25.218Zm18.445-.561h.334v-.33h-.334v.33Zm0 2.54v.33h.334v-.33h-.334Zm-4.144 0-.236-.234-.57.563h.806v-.33Zm.335-.33h.334v-.797l-.57.563.236.234Zm3.809 11.215h.334v-.33h-.334v.33Zm0 2.738v.33h.334v-.33h-.334Zm-6.015-.924-.22.249.002.001.002.002.216-.252ZM45.48 7.303l.236-.233-.57-.563v.797h.334Zm.334.33v.33h.807l-.57-.563-.237.234Zm-2.238 0h-.335v.33h.335v-.33Zm0-2.54v-.33h-.335v.33h.335Zm2.238 0 .236.234.57-.563h-.806v.33Zm-.334.33h-.334v.797l.57-.563-.236-.234Zm0-4.453V.64h-.334v.33h.334Zm3.275 0h.334V.64h-.334v.33Zm0 4.453-.237.234.57.563v-.797h-.333Zm-.334-.33v-.33h-.807l.57.564.236-.233Zm12.76-.263h.334V4.5h-.335v.33Zm0 2.837v.33h.334v-.33h-.335Zm-4.411.33h-.334.334Zm.033 13.26v.33h.335v-.33h-.335Zm-3.274 0h-.334v.33h.334v-.33Zm-.034-16.163v-.33h-.334v.33h.334Zm2.907 0 .33-.05-.043-.28h-.287v.33Zm.368 2.375.308.128.036-.086-.014-.092-.33.05Zm-.267.626h-.335l.642.128-.307-.128Zm.735-2.44-.246-.224-.003.003-.002.002.25.218Zm15.745 15.8v.33h.334v-.33h-.334Zm-10.224-.924-.225.245.004.003.004.004.217-.252Zm10.625-5.508v.33h.334v-.33h-.334Zm-8.788 0h-.334v.33h.334v-.33Zm0-2.342v-.33h-.334v.33h.334Zm5.547 0v.33h.334v-.33h-.334Zm2.84 6.036h.334v-.33h-.334v.33Zm2.09 2.639-.334.004.004.326h.33v-.33Zm-.034-2.639v-.33H74.7l.004.334.334-.004Zm.702-5.212-.223.246.005.004.004.004.214-.254Zm.067-7.785.214.253.003-.002.002-.002-.22-.249Zm3.308-.89.002-.33h-.002v.33Zm5.914.033h.334v-.328l-.332-.002-.002.33Zm0 2.705v.33h.334v-.33h-.334Zm-.067 12.996.218.25.002-.002.003-.002-.223-.246ZM97.85 5.621l-.222.247.002.002.003.002.217-.25Zm.936 15.636v.33h.334v-.33h-.334Zm-3.275 0h-.334v.33h.334v-.33ZM90.5 7.831h-.334v.001h.334Zm.034 13.426v.33h.335l-.001-.33h-.334Zm-3.308 0h-.334v.33h.334v-.33Zm-.033-16.163v-.33h-.335v.33h.335Zm2.94 0 .33-.05-.043-.28h-.287v.33Zm.367 2.375.302.14.044-.09-.015-.1-.33.05Zm-.3.626h-.334l.636.142-.302-.142Zm.735-2.44-.246-.224-.003.003-.002.003.25.217Zm15.17-.034-.223.247.003.002.002.002.218-.25Zm.935 15.636v.33h.334v-.33h-.334Zm-3.274 0h-.335v.33h.335v-.33ZM98.786 7.831l.33.047.004-.023V7.83h-.334Zm-.1.693-.312.119.46 1.183.182-1.255-.33-.047Zm-.167-.429h-.335v.062l.023.057.312-.119Zm.735-2.44-.246-.224-.003.003-.002.003.25.217Zm10.111 15.074-.222.246.002.002.003.003.217-.25Zm7.853-8.972h.334v-.33h-.334v.33Zm0 2.375v.33h.334v-.33h-.334Zm-7.786-6.333h-.334v.33h.334v-.33Zm0-2.738v-.33h-.334v.33h.334Zm6.349 0v.33h.004l-.004-.33Zm3.341.857-.223.245.002.002.002.002.219-.249Zm1.036 15.339v.33h.334v-.33h-.334Zm-2.974 0-.33.05.043.28h.287v-.33Zm-.167-3.002h.334l-.653-.1.319.1Zm-.702 2.441.256.212.002-.002.002-.002-.26-.208ZM130.108 4.83h.334V4.5h-.334v.33Zm0 2.837v.33h.334v-.33h-.334Zm-4.411.33h-.334.334Zm.034 13.26v.33h.334v-.33h-.334Zm-3.275 0h-.334l.001.33h.333v-.33Zm-.033-16.163v-.33h-.335l.001.33h.334Zm2.907 0 .33-.05-.044-.28h-.286v.33Zm.367 2.375.308.128.037-.086-.015-.092-.33.05Zm-.267.626h-.334l.642.128-.308-.128Zm.735-2.44-.246-.224-.003.003-.002.003.251.217Zm12.834-.561h.335v-.33h-.335v.33Zm0 2.54v.33h.335v-.33h-.335Zm-4.143 0-.236-.234-.571.563h.807v-.33Zm.334-.33h.334v-.797l-.57.563.236.234Zm3.809 11.215h.335v-.33h-.335v.33Zm0 2.738v.33h.335v-.33h-.335Zm-6.014-.924-.22.249.002.001.002.002.216-.252Zm-1.069-13.03.236-.233-.57-.563v.797h.334Zm.334.33v.33h.806l-.57-.563-.236.234Zm-2.239 0h-.334v.33h.334v-.33Zm0-2.54v-.33h-.334v.33h.334Zm2.239 0 .236.234.57-.563h-.806v.33Zm-.334.33h-.334v.797l.57-.563-.236-.234Zm0-4.453V.64h-.334v.33h.334Zm3.274 0h.334V.64h-.334v.33Zm0 4.453-.236.234.57.563v-.797h-.334Zm-.334-.33v-.33h-.807l.571.564.236-.233ZM26.813 20.928h-3.409v.66h3.409v-.66Zm-3.074.33V.311h-.669v20.946h.669ZM23.404.64h3.409v-.66h-3.409v.66ZM26.48.31v20.947h.668V.311h-.668Zm10.044 4.85h1.871V4.5h-1.87v.66Zm1.871 0c1.33 0 2.209.26 2.719.708l.444-.493c-.693-.608-1.774-.875-3.163-.875v.66Zm2.723.712c.513.434.82 1.247.82 2.553h.668c0-1.376-.318-2.432-1.053-3.054l-.435.5Zm.82 2.553v12.832h.668V8.425h-.669Zm.334 12.502h-3.275v.66h3.274v-.66Zm-2.94.33V7.831h-.67v13.426h.67Zm0-13.426a.69.69 0 0 0-.19-.505.71.71 0 0 0-.513-.187v.66a.19.19 0 0 1 .056.005c.002.001-.006-.001-.016-.011-.01-.01-.013-.019-.012-.016.002.004.006.02.006.054h.668Zm-.703-.692h-4.61v.66h4.61v-.66Zm-4.61 0a.71.71 0 0 0-.513.187.69.69 0 0 0-.19.506h.669c0-.034.004-.05.006-.055 0-.003-.002.006-.012.016s-.019.012-.016.011a.192.192 0 0 1 .055-.005v-.66Zm-.702.693.033 13.426.668-.002-.033-13.425-.668.001Zm.367 13.095H30.41v.66h3.274v-.66Zm-2.94.33-.034-16.164-.668.001.034 16.164.668-.002Zm-.368-15.834h2.907v-.66h-2.907v.66Zm2.577-.28.367 2.375.661-.1-.367-2.374-.661.1Zm.39 2.198-.267.626.615.256.268-.626-.616-.256Zm.375.754c0-1.034.236-1.756.651-2.223l-.501-.436c-.564.633-.819 1.539-.819 2.66h.669Zm.647-2.217c.425-.457 1.12-.718 2.16-.718V4.5c-1.143 0-2.053.288-2.652.931l.492.447Zm17.865-.784v2.54h.668v-2.54h-.668Zm.334 2.21h-4.144v.66h4.144v-.66Zm-3.907.563.334-.33-.473-.467-.334.33.473.467Zm-.236-.563v10.885h.668V7.304h-.669Zm0 10.885c0 .17.048.355.201.492a.732.732 0 0 0 .5.168v-.66a.236.236 0 0 1-.064-.006c-.006-.002.002 0 .013.01a.1.1 0 0 1 .014.016c.004.005.006.01.006.011.002.003-.002-.005-.002-.03h-.669Zm.701.66h3.442v-.66H49.12v.66Zm3.108-.33v2.738h.668v-2.738h-.668Zm.334 2.408H50.09v.66h2.473v-.66Zm-2.473 0c-1.597 0-2.68-.305-3.325-.845l-.433.503c.825.69 2.103 1.002 3.758 1.002v-.66Zm-3.321-.842c-.608-.524-.956-1.453-.956-2.885h-.668c0 1.514.365 2.675 1.183 3.382l.44-.497Zm-.956-2.885V7.304h-.668V17.2h.668Zm-.57-9.663.334.33.473-.467-.335-.33-.472.467Zm.57-.233h-2.238v.66h2.238v-.66Zm-1.904.33v-2.54h-.669v2.54h.669Zm-.334-2.21h2.238v-.66h-2.238v.66Zm2.002-.564-.334.33.472.467.334-.33-.472-.467Zm.236.563V.97h-.668v4.453h.668ZM45.48 1.3h3.275V.64h-3.275v.66Zm2.94-.33v4.453h.669V.97h-.669Zm.57 4.22-.333-.33-.473.467.334.33.473-.467Zm-.57.233h4.144v-.66h-4.144v.66Zm11.223-.263h1.537V4.5h-1.537v.66Zm1.203-.33v2.837h.669V4.83h-.669Zm.334 2.507h-4.043v.66h4.043v-.66Zm-4.043 0a.733.733 0 0 0-.5.168.64.64 0 0 0-.201.491h.668c0-.025.004-.033.002-.03a.074.074 0 0 1-.02.027c-.011.01-.018.012-.012.01a.234.234 0 0 1 .063-.007v-.66Zm-.701.66.033 13.26h.668l-.033-13.261-.668.001Zm.367 12.93h-3.274v.66h3.274v-.66Zm-2.94.33-.034-16.164-.668.001.034 16.164.668-.002Zm-.368-15.834h2.907v-.66h-2.907v.66Zm2.577-.28.367 2.375.661-.1-.367-2.374-.661.1Zm.39 2.198-.267.626.615.256.268-.626-.616-.256Zm.375.754c0-1.034.236-1.756.651-2.223l-.501-.436c-.564.633-.819 1.539-.819 2.66h.669Zm.647-2.217c.425-.457 1.119-.718 2.16-.718V4.5c-1.144 0-2.053.288-2.652.931l.492.447Zm15.5 15.247h-6.684v.66h6.683v-.66Zm-6.684 0c-1.597 0-2.68-.305-3.325-.845l-.433.503c.825.69 2.103 1.002 3.758 1.002v-.66Zm-3.317-.838c-.613-.549-.96-1.482-.96-2.89h-.668c0 1.496.366 2.652 1.179 3.379l.449-.49Zm-.96-2.89V8.723h-.668v8.676h.669Zm0-8.675c0-1.472.312-2.37.825-2.822l-.446-.492c-.734.648-1.047 1.795-1.047 3.314h.669Zm.825-2.822c.528-.465 1.502-.74 3.018-.74V4.5c-1.558 0-2.745.275-3.464.908l.445.492Zm3.018-.74h3.275V4.5h-3.275v.66Zm3.275 0c1.514 0 2.503.274 3.056.744l.436-.5c-.74-.629-1.933-.904-3.492-.904v.66Zm3.056.744c.532.453.853 1.349.853 2.818h.668c0-1.521-.325-2.67-1.085-3.317l-.436.5Zm.853 2.818v6.3h.668v-6.3h-.668Zm.334 5.97h-8.788v.66h8.788v-.66Zm-8.453.33v-2.341h-.669v2.342h.669Zm-.335-2.012h5.547v-.66h-5.547v.66Zm5.881-.33V7.833h-.668v4.849h.668Zm0-4.848a.69.69 0 0 0-.19-.506.71.71 0 0 0-.512-.187v.66c.035 0 .051.004.055.005.003.001-.005-.001-.015-.011-.01-.01-.013-.018-.012-.016a.18.18 0 0 1 .006.054h.668Zm-.702-.693H65.33v.66h4.444v-.66Zm-4.444 0a.657.657 0 0 0-.497.198.711.711 0 0 0-.17.495h.667a.24.24 0 0 1 .007-.064c.002-.006 0 .002-.01.013a.088.088 0 0 1-.028.02c-.003.001.005-.002.031-.002v-.66Zm-.668.692v10.523h.668V7.832h-.668Zm0 10.523c0 .165.037.35.17.494.14.15.327.199.498.199v-.66c-.026 0-.034-.003-.031-.002l.012.006a.088.088 0 0 1 .016.014c.01.01.012.018.01.012a.24.24 0 0 1-.007-.063h-.668Zm.668.693h7.652v-.66H65.33v.66Zm7.318-.33v2.738h.668v-2.738h-.668Zm9.34 2.31h-6.916v.659h6.916v-.66Zm-6.582.325-.034-2.64-.668.01.034 2.638.668-.008Zm-.368-2.305h7.218v-.66h-7.218v.66Zm7.218 0a.709.709 0 0 0 .512-.188.69.69 0 0 0 .19-.505h-.669c0 .034-.005.05-.006.055 0 .002.002-.006.012-.016s.019-.012.016-.012a.19.19 0 0 1-.055.006v.66Zm.701-.693v-3.661h-.668v3.661h.668Zm0-3.661a.69.69 0 0 0-.19-.506.709.709 0 0 0-.511-.187v.66a.19.19 0 0 1 .055.005c.002.001-.006-.001-.016-.011-.01-.01-.013-.018-.012-.016.001.004.006.02.006.055h.668ZM82.256 14h-3.208v.66h3.208V14Zm-3.208 0c-1.513 0-2.517-.274-3.094-.748l-.428.507c.76.624 1.96.9 3.522.9V14Zm-3.085-.74c-.54-.48-.858-1.352-.858-2.724h-.668c0 1.443.329 2.55 1.08 3.215l.446-.491Zm-.858-2.724V8.788h-.668v1.748h.668Zm0-1.748c0-1.438.34-2.337.916-2.815l-.429-.505c-.804.665-1.155 1.811-1.155 3.32h.668Zm.921-2.819c.601-.516 1.606-.81 3.089-.81V4.5c-1.547 0-2.747.302-3.528.973l.44.497Zm3.087-.81 5.914.034.004-.66-5.915-.033-.003.66Zm5.582-.296v2.705h.668V4.863h-.668Zm.334 2.375h-6.582v.66h6.582v-.66Zm-6.582 0a.657.657 0 0 0-.498.198.711.711 0 0 0-.17.494h.668c0-.036.004-.055.006-.063.002-.005 0 .002-.01.013a.088.088 0 0 1-.016.014l-.012.006c-.003.001.005-.003.031-.003v-.66Zm-.669.692v3.464h.668V7.93h-.668Zm0 3.464c0 .165.037.35.17.494.14.15.327.199.499.199v-.66c-.026 0-.035-.004-.032-.002l.012.006a.086.086 0 0 1 .016.013c.01.012.012.019.01.013a.239.239 0 0 1-.007-.063h-.668Zm.668.693h3.175v-.66h-3.174v.66Zm3.175 0c1.538 0 2.538.274 3.09.744l.436-.5c-.74-.629-1.946-.904-3.526-.904v.66Zm3.09.744c.534.455.853 1.322.853 2.72h.668c0-1.462-.327-2.574-1.085-3.22l-.436.5Zm.853 2.72v2.21h.668v-2.21h-.668Zm0 2.21c0 1.28-.305 2.1-.824 2.557l.445.492c.727-.641 1.047-1.691 1.047-3.05h-.668Zm-.82 2.553c-.534.452-1.428.712-2.756.712v.66c1.39 0 2.479-.268 3.192-.871l-.435-.501ZM93.374 5.16h1.504V4.5h-1.504v.66Zm1.504 0c1.353 0 2.242.26 2.751.708l.444-.493c-.693-.609-1.786-.875-3.195-.875v.66Zm2.756.712c.513.434.819 1.247.819 2.553h.668c0-1.376-.318-2.432-1.052-3.054l-.435.5Zm.819 2.553v12.832h.668V8.425h-.668Zm.334 12.502h-3.275v.66h3.275v-.66Zm-2.94.33V7.831h-.669v13.426h.669Zm0-13.426a.69.69 0 0 0-.19-.505.71.71 0 0 0-.512-.187v.66c.034 0 .05.004.055.005.003.001-.006-.001-.016-.011-.01-.01-.012-.019-.012-.016.002.004.006.02.006.054h.669Zm-.702-.692h-4.31v.66h4.31v-.66Zm-4.31 0a.657.657 0 0 0-.498.198.711.711 0 0 0-.17.495h.668a.24.24 0 0 1 .006-.063c.002-.006 0 .001-.01.012a.09.09 0 0 1-.028.02c-.003.001.005-.002.032-.002v-.66Zm-.669.693.034 13.426.668-.002-.033-13.425-.669.001Zm.368 13.095h-3.308v.66h3.308v-.66Zm-2.974.33-.033-16.164-.669.001.034 16.164.668-.002Zm-.367-15.834h2.94v-.66h-2.94v.66Zm2.61-.28.367 2.375.66-.1-.367-2.374-.66.1Zm.395 2.184-.3.627.603.283.301-.627-.604-.283Zm.336.768c0-1.034.236-1.756.652-2.223l-.502-.435c-.564.632-.818 1.537-.818 2.658h.668Zm.646-2.217c.425-.455 1.13-.718 2.194-.718V4.5c-1.163 0-2.084.287-2.685.931l.491.447Zm10.481-.718h1.503V4.5h-1.503v.66Zm1.503 0c1.329 0 2.208.26 2.718.708l.444-.493c-.692-.608-1.773-.875-3.162-.875v.66Zm2.723.712c.513.434.819 1.247.819 2.553h.668c0-1.376-.318-2.432-1.052-3.054l-.435.5Zm.819 2.553v12.832h.668V8.425h-.668Zm.334 12.502h-3.274v.66h3.274v-.66Zm-2.94.33V7.831h-.669v13.426h.669Zm0-13.426a.69.69 0 0 0-.19-.505.71.71 0 0 0-.512-.187v.66a.19.19 0 0 1 .055.005c.003.001-.006-.001-.016-.011-.01-.01-.012-.019-.012-.016.002.004.006.02.006.054h.669Zm-.702-.692h-4.244v.66h4.244v-.66Zm-4.244 0a.71.71 0 0 0-.511.187.69.69 0 0 0-.19.506h.668a.19.19 0 0 1 .006-.055c0-.002-.002.006-.012.016s-.018.012-.016.011a.19.19 0 0 1 .055-.005v-.66Zm-.698.646-.1.693.661.093.1-.693-.66-.093Zm.543.62-.168-.428-.623.237.167.429.624-.237Zm-.145-.31c0-1.034.236-1.756.652-2.223l-.502-.435c-.564.632-.819 1.537-.819 2.658h.669Zm.646-2.217c.426-.457 1.121-.718 2.161-.718V4.5c-1.143 0-2.053.288-2.652.931l.491.447Zm14.477 15.313h-1.67v.66h1.67v-.66Zm-1.67 0c-1.304 0-2.188-.26-2.723-.712l-.435.5c.712.603 1.788.872 3.158.872v-.66Zm-2.718-.708c-.52-.458-.824-1.277-.824-2.558h-.668c0 1.359.319 2.409 1.047 3.05l.445-.492Zm-.824-2.558V15.55h-.668v2.375h.668Zm0-2.375c0-1.397.319-2.264.853-2.719l-.436-.5c-.758.646-1.085 1.758-1.085 3.22h.668Zm.853-2.719c.552-.47 1.542-.744 3.056-.744v-.66c-1.559 0-2.753.276-3.492.905l.436.5Zm3.056-.744h4.545v-.66h-4.545v.66Zm4.21-.33v2.375h.669v-2.375h-.669Zm.335 2.045h-5.18v.66h5.18v-.66Zm-5.18 0a.734.734 0 0 0-.5.168.639.639 0 0 0-.201.492h.668c0-.026.004-.034.002-.03l-.006.01a.056.056 0 0 1-.014.017c-.011.01-.018.011-.012.01a.226.226 0 0 1 .063-.007v-.66Zm-.701.66v4.057h.668v-4.057h-.668Zm0 4.057a.69.69 0 0 0 .19.506.708.708 0 0 0 .511.187v-.66a.192.192 0 0 1-.055-.006c-.002 0 .006.002.016.012s.013.018.012.015a.16.16 0 0 1-.006-.054h-.668Zm.701.693h4.779v-.66h-4.779v.66Zm5.113-.33V8.128h-.669v10.754h.669Zm0-10.754a.64.64 0 0 0-.202-.491.732.732 0 0 0-.5-.168v.66c.037 0 .056.004.064.006.006.002-.002 0-.013-.01a.076.076 0 0 1-.02-.027c-.001-.003.002.005.002.03h.669Zm-.702-.66h-7.017v.66h7.017v-.66Zm-6.683.33V5.062h-.668v2.738h.668Zm-.334-2.407h6.349v-.66h-6.349v.66Zm6.353 0c1.532-.022 2.54.263 3.114.772l.447-.49c-.764-.678-1.983-.965-3.57-.942l.009.66Zm3.118.776c.582.5.921 1.415.921 2.852h.668c0-1.51-.352-2.663-1.151-3.35l-.438.498Zm.921 2.852v12.238h.668V9.019h-.668Zm.334 11.908h-2.974v.66h2.974v-.66Zm-2.644.28-.367-2.375-.661.1.368 2.375.66-.1Zm-.379-2.226.2-.626-.637-.2-.2.628.637.198Zm-.452-.726c0 1.012-.225 1.742-.628 2.234l.52.415c.533-.652.776-1.55.776-2.649h-.668Zm-.624 2.23c-.378.443-1.039.706-2.083.706v.66c1.14 0 2.037-.287 2.595-.943l-.512-.424ZM128.571 5.16h1.537V4.5h-1.537v.66Zm1.203-.33v2.837h.668V4.83h-.668Zm.334 2.507h-4.043v.66h4.043v-.66Zm-4.043 0a.734.734 0 0 0-.501.168.639.639 0 0 0-.201.491h.668c0-.025.004-.033.003-.03l-.006.011a.125.125 0 0 1-.014.016c-.012.01-.019.012-.013.01a.237.237 0 0 1 .064-.007v-.66Zm-.702.66.033 13.26h.669l-.034-13.261-.668.001Zm.368 12.93h-3.275v.66h3.275v-.66Zm-2.941.33-.033-16.164-.668.001.033 16.164.668-.002Zm-.367-15.834h2.907v-.66h-2.907v.66Zm2.576-.28.368 2.375.66-.1-.367-2.374-.661.1Zm.39 2.198-.267.626.616.256.267-.626-.616-.256Zm.375.754c0-1.034.236-1.756.652-2.223l-.502-.435c-.564.632-.818 1.537-.818 2.658h.668Zm.647-2.217c.425-.457 1.12-.718 2.16-.718V4.5c-1.143 0-2.053.288-2.652.931l.492.447Zm12.254-.784v2.54h.669v-2.54h-.669Zm.334 2.21h-4.143v.66h4.143v-.66Zm-3.907.563.335-.33-.473-.467-.334.33.472.467Zm-.236-.563v10.885h.668V7.304h-.668Zm0 10.885c0 .17.049.355.201.492a.734.734 0 0 0 .501.168v-.66a.234.234 0 0 1-.064-.006c-.006-.002.001 0 .013.01l.014.015.006.012c.001.003-.003-.005-.003-.03h-.668Zm.702.66h3.441v-.66h-3.441v.66Zm3.107-.33v2.738h.669v-2.738h-.669Zm.334 2.408h-2.472v.66h2.472v-.66Zm-2.472 0c-1.597 0-2.681-.305-3.326-.845l-.432.503c.825.69 2.102 1.002 3.758 1.002v-.66Zm-3.322-.842c-.607-.524-.955-1.453-.955-2.885h-.668c0 1.514.364 2.675 1.183 3.382l.44-.497Zm-.955-2.885V7.304h-.668V17.2h.668Zm-.57-9.663.334.33.472-.467-.334-.33-.472.467Zm.57-.233h-2.239v.66h2.239v-.66Zm-1.905.33v-2.54h-.668v2.54h.668Zm-.334-2.21h2.239v-.66h-2.239v.66Zm2.003-.564-.334.33.472.467.334-.33-.472-.467Zm.236.563V.97h-.668v4.453h.668Zm-.334-4.123h3.274V.64h-3.274v.66Zm2.94-.33v4.453h.668V.97h-.668Zm.571 4.22-.335-.33-.472.467.334.33.473-.467Zm-.571.233h4.143v-.66h-4.143v.66Z" fill="#020002"/></g><path d="M129.652 24.72a1.008 1.008 0 0 0-.124-.254.785.785 0 0 0-.417-.316.95.95 0 0 0-.761.09.918.918 0 0 0-.338.39 1.44 1.44 0 0 0-.125.63c0 .25.042.46.126.631a.916.916 0 0 0 .344.39.913.913 0 0 0 .486.132.9.9 0 0 0 .442-.105.752.752 0 0 0 .299-.301.936.936 0 0 0 .108-.46l.108.023h-.877v-.31h1.111v.31c0 .237-.052.443-.154.618a1.055 1.055 0 0 1-.421.408 1.288 1.288 0 0 1-.616.143c-.258 0-.484-.06-.68-.18a1.214 1.214 0 0 1-.456-.512 1.776 1.776 0 0 1-.162-.787c0-.228.031-.432.092-.614.063-.183.152-.338.265-.467.114-.128.249-.226.405-.295.155-.068.327-.102.514-.102.153 0 .297.023.43.068a1.152 1.152 0 0 1 .62.49c.071.114.119.24.146.38h-.365Zm.941 1.98v-2.16h.325v.327h.022a.519.519 0 0 1 .217-.26.642.642 0 0 1 .353-.1 3.972 3.972 0 0 1 .177.005v.338a1.096 1.096 0 0 0-.205-.023.598.598 0 0 0-.285.066.484.484 0 0 0-.268.44V26.7h-.336Zm2.314.045a.962.962 0 0 1-.52-.14.946.946 0 0 1-.347-.389 1.297 1.297 0 0 1-.124-.585c0-.225.041-.42.124-.589a.943.943 0 0 1 .347-.39.962.962 0 0 1 .52-.14c.197 0 .37.047.518.14a.939.939 0 0 1 .348.39c.083.168.125.364.125.59 0 .222-.042.417-.125.584a.941.941 0 0 1-.348.39.955.955 0 0 1-.518.139Zm0-.298c.15 0 .273-.038.37-.114a.674.674 0 0 0 .215-.3c.047-.123.07-.257.07-.402 0-.144-.023-.278-.07-.403a.683.683 0 0 0-.215-.302.577.577 0 0 0-.37-.116.575.575 0 0 0-.37.116.675.675 0 0 0-.215.302c-.047.125-.07.26-.07.403 0 .145.023.279.07.402a.666.666 0 0 0 .215.3.58.58 0 0 0 .37.114Zm2.882-.63V24.54h.336V26.7h-.336v-.366h-.023a.71.71 0 0 1-.239.28.697.697 0 0 1-.41.114.734.734 0 0 1-.364-.089.621.621 0 0 1-.251-.27 1.01 1.01 0 0 1-.091-.456V24.54h.336v1.349a.52.52 0 0 0 .134.377c.09.093.205.14.344.14a.577.577 0 0 0 .474-.257.575.575 0 0 0 .09-.333Zm.952 1.692v-2.968h.324v.343h.04a3.06 3.06 0 0 1 .103-.144.59.59 0 0 1 .191-.157.69.69 0 0 1 .338-.07c.184 0 .347.045.487.136.141.09.25.22.329.386.079.167.118.364.118.59 0 .23-.039.428-.118.595a.928.928 0 0 1-.327.388.867.867 0 0 1-.483.137.703.703 0 0 1-.337-.07.627.627 0 0 1-.196-.158c-.045-.06-.08-.11-.105-.15h-.028v1.142h-.336Zm.33-1.889c0 .163.024.307.073.432.048.123.119.22.212.29.093.07.207.105.341.105a.555.555 0 0 0 .352-.11.675.675 0 0 0 .214-.298c.048-.126.072-.265.072-.419 0-.152-.023-.289-.071-.41a.63.63 0 0 0-.212-.291.565.565 0 0 0-.355-.109.565.565 0 0 0-.344.103.62.62 0 0 0-.211.284c-.047.12-.071.262-.071.423Z" fill="#fff"/></g><defs><linearGradient id="kb" x1="9.025" y1="2.426" x2="10.789" y2="22.465" gradientUnits="userSpaceOnUse"><stop stop-color="#B2FF5D"/><stop offset="1" stop-color="#00C7B8"/></linearGradient><linearGradient id="kc" x1="7.876" y1="7.048" x2="8.957" y2="19.842" gradientUnits="userSpaceOnUse"><stop stop-color="#B2FF5D"/><stop offset="1" stop-color="#00C7B8"/></linearGradient><linearGradient id="kd" x1="6.751" y1="10.009" x2="7.445" y2="18.11" gradientUnits="userSpaceOnUse"><stop stop-color="#B2FF5D"/><stop offset="1" stop-color="#00C7B8"/></linearGradient><linearGradient id="ke" x1="6.188" y1="12.23" x2="6.538" y2="16.497" gradientUnits="userSpaceOnUse"><stop stop-color="#B2FF5D"/><stop offset="1" stop-color="#00C7B8"/></linearGradient><linearGradient id="kf" x1=".429" y1="10.911" x2="20.719" y2="12.744" gradientUnits="userSpaceOnUse"><stop stop-color="#B2FF5D"/><stop offset="1" stop-color="#00C7B8"/></linearGradient><linearGradient id="kg" x1="5.111" y1="9.777" x2="18.066" y2="10.9" gradientUnits="userSpaceOnUse"><stop stop-color="#B2FF5D"/><stop offset="1" stop-color="#00C7B8"/></linearGradient><linearGradient id="kh" x1="8.111" y1="8.666" x2="16.314" y2="9.387" gradientUnits="userSpaceOnUse"><stop stop-color="#B2FF5D"/><stop offset="1" stop-color="#00C7B8"/></linearGradient><linearGradient id="ki" x1="10.361" y1="8.111" x2="14.681" y2="8.474" gradientUnits="userSpaceOnUse"><stop stop-color="#B2FF5D"/><stop offset="1" stop-color="#00C7B8"/></linearGradient><clipPath id="ka"><path fill="#fff" transform="translate(0 .31)" d="M0 0h139v27.379H0z"/></clipPath></defs></symbol><symbol fill="none" viewBox="0 0 24 25" id="mail" xmlns="http://www.w3.org/2000/svg"><path d="m21.5 18.5-6.643-6m-5.714 0-6.643 6M2 7.5l8.165 5.715c.661.463.992.695 1.351.784a2 2 0 0 0 .968 0c.36-.09.69-.32 1.351-.784L22 7.5m-15.2 13h10.4c1.68 0 2.52 0 3.162-.327a3 3 0 0 0 1.311-1.311C22 18.22 22 17.38 22 15.7V9.3c0-1.68 0-2.52-.327-3.162a3 3 0 0 0-1.311-1.311C19.72 4.5 18.88 4.5 17.2 4.5H6.8c-1.68 0-2.52 0-3.162.327a3 3 0 0 0-1.311 1.311C2 6.78 2 7.62 2 9.3v6.4c0 1.68 0 2.52.327 3.162a3 3 0 0 0 1.311 1.311c.642.327 1.482.327 3.162.327Z" stroke="#F8F9FA" stroke-width="2" stroke-linecap="round" stroke-linejoin="round"/></symbol><symbol viewBox="0 0 24 24" id="pencil" xmlns="http://www.w3.org/2000/svg"><path d="M21 21h-8m-10.5.5 5.55-2.134c.354-.137.532-.205.698-.294q.221-.12.42-.273c.149-.116.283-.25.552-.52L21 7a2.828 2.828 0 1 0-4-4L5.72 14.28c-.269.269-.403.403-.519.552a3 3 0 0 0-.273.42c-.089.166-.157.344-.294.699zm0 0 2.058-5.351c.147-.383.221-.574.347-.662a.5.5 0 0 1 .38-.08c.15.028.295.173.585.463l2.26 2.26c.29.29.435.435.464.586a.5.5 0 0 1-.08.379c-.089.126-.28.2-.663.347z"/></symbol><symbol fill="none" viewBox="0 0 24 25" id="phone" xmlns="http://www.w3.org/2000/svg"><path d="M8.38 9.353a14.603 14.603 0 0 0 2.847 4.01 14.603 14.603 0 0 0 4.01 2.847c.124.06.187.09.265.112.28.082.625.023.862-.147.067-.047.124-.105.239-.219.35-.35.524-.524.7-.639a2 2 0 0 1 2.18 0c.176.115.35.29.7.64l.195.194c.532.531.797.797.942 1.082a2 2 0 0 1 0 1.806c-.145.285-.41.551-.942 1.082l-.157.158c-.53.53-.795.794-1.155.997-.4.224-1.02.386-1.478.384-.413-.001-.695-.081-1.26-.241a19.038 19.038 0 0 1-8.283-4.874A19.039 19.039 0 0 1 3.17 8.261c-.16-.564-.24-.846-.241-1.26a3.377 3.377 0 0 1 .384-1.477c.202-.36.467-.625.997-1.155l.157-.157c.532-.532.798-.798 1.083-.942a2 2 0 0 1 1.805 0c.286.144.551.41 1.083.942l.195.194c.35.35.524.525.638.7a2 2 0 0 1 0 2.18c-.114.177-.289.352-.638.701-.115.114-.172.172-.22.238-.17.238-.228.582-.147.862.023.08.053.142.113.266Z" stroke="#CED4DA" stroke-width="2" stroke-linecap="round" stroke-linejoin="round"/></symbol><symbol viewBox="0 0 16 16" id="plus" xmlns="http://www.w3.org/2000/svg"><path d="M8 1v14M1 8h14"/></symbol><symbol viewBox="0 0 24 24" id="tree-points" xmlns="http://www.w3.org/2000/svg"><path d="M12 13a1 1 0 1 0 0-2 1 1 0 0 0 0 2m7 0a1 1 0 1 0 0-2 1 1 0 0 0 0 2M5 13a1 1 0 1 0 0-2 1 1 0 0 0 0 2"/></symbol><symbol fill="none" viewBox="0 0 179 172" id="triangle" xmlns="http://www.w3.org/2000/svg"><g clip-path="url(#qa)"><mask id="qb" style="mask-type:luminance" maskUnits="userSpaceOnUse" x="0" y="0" width="179" height="172"><path d="M178.818.097H.468v171.779h178.35V.096Z" fill="#fff"/></mask><g mask="url(#qb)"><path fill-rule="evenodd" clip-rule="evenodd" d="M.468.097v42.945l89.175 42.945L.468 128.93v42.945l89.175-42.945v42.945l89.175-42.945V43.042L89.643.097v42.945L.468.097Zm89.175 42.945V128.93l89.175-42.945-89.175-42.944Z" fill="url(#qc)"/></g></g><defs><linearGradient id="qc" x1="89.643" y1=".097" x2="89.643" y2="171.876" gradientUnits="userSpaceOnUse"><stop stop-color="#67F185" stop-opacity=".8"/><stop offset=".805" stop-color="#84E0ED" stop-opacity=".55"/></linearGradient><clipPath id="qa"><path fill="#fff" transform="translate(.468 .097)" d="M0 0h178.35v171.78H0z"/></clipPath></defs></symbol><symbol fill="none" viewBox="0 0 180 172" id="wave" xmlns="http://www.w3.org/2000/svg"><g clip-path="url(#ra)"><mask id="rb" style="mask-type:luminance" maskUnits="userSpaceOnUse" x="0" y="0" width="180" height="172"><path d="M179.321.097H.032v171.779h179.289V.096Z" fill="#fff"/></mask><g mask="url(#rb)"><path fill-rule="evenodd" clip-rule="evenodd" d="M89.677 28.994c-6.478 0-11.73 5.032-11.73 11.238h-30.16c0-22.166 18.755-40.135 41.89-40.135s41.89 17.969 41.89 40.135c0 22.166-18.755 40.136-41.89 40.136V51.47c6.477 0 11.729-5.031 11.729-11.238 0-6.206-5.252-11.238-11.73-11.238Zm59.483 56.993c0-6.207-5.251-11.238-11.729-11.238V45.85c23.136 0 41.89 17.97 41.89 40.136 0 22.166-18.754 40.135-41.89 40.135-23.135 0-41.89-17.969-41.89-40.135h30.161c0 6.206 5.252 11.237 11.729 11.237 6.478 0 11.729-5.031 11.729-11.237ZM41.922 97.224c-6.478 0-11.729-5.031-11.729-11.237 0-6.207 5.251-11.238 11.73-11.238 6.477 0 11.728 5.03 11.728 11.238h30.161c0-22.167-18.755-40.136-41.89-40.136S.032 63.821.032 85.987c0 22.166 18.755 40.135 41.89 40.135V97.224Zm47.755 45.755c6.477 0 11.729-5.032 11.729-11.238h30.161c0 22.166-18.755 40.135-41.89 40.135s-41.89-17.969-41.89-40.135c0-22.167 18.755-40.136 41.89-40.136v28.898c-6.478 0-11.73 5.031-11.73 11.238 0 6.206 5.252 11.238 11.73 11.238Z" fill="url(#rc)"/></g></g><defs><linearGradient id="rc" x1="89.677" y1=".097" x2="89.677" y2="171.876" gradientUnits="userSpaceOnUse"><stop stop-color="#67F185" stop-opacity=".8"/><stop offset=".805" stop-color="#84E0ED" stop-opacity=".55"/></linearGradient><clipPath id="ra"><path fill="#fff" transform="translate(.032 .097)" d="M0 0h179.289v171.78H0z"/></clipPath></defs></symbol><symbol viewBox="0 0 24 24" id="youtube" xmlns="http://www.w3.org/2000/svg"><path d="M23.76 7.2s-.233-1.655-.955-2.381c-.914-.956-1.936-.961-2.405-1.017-3.356-.244-8.395-.244-8.395-.244h-.01s-5.039 0-8.395.244c-.469.056-1.49.06-2.405 1.017C.473 5.545.244 7.2.244 7.2S0 9.145 0 11.086v1.819c0 1.94.24 3.886.24 3.886s.233 1.654.95 2.38c.915.957 2.115.924 2.65 1.027 1.92.183 8.16.24 8.16.24s5.044-.01 8.4-.249c.469-.056 1.49-.06 2.405-1.017.722-.727.956-2.381.956-2.381S24 14.85 24 12.905v-1.819c0-1.94-.24-3.886-.24-3.886M9.52 15.113V8.367l6.483 3.385z"/></symbol></svg>