<?xml version="1.0" encoding="utf-8"?><svg xmlns="http://www.w3.org/2000/svg" xmlns:xlink="http://www.w3.org/1999/xlink"><symbol fill="none" viewBox="0 0 142 141" id="architecture" xmlns="http://www.w3.org/2000/svg"><g fill="#69FFA5"><path d="m41.17 39.752-6.628 19.942H14.6V39.752zm46.57 0-6.686 19.942h-6.628V39.752zm33.256 0-6.686 19.942h-6.628V39.752z" opacity=".1"/><path fill-rule="evenodd" d="M13.769 39.752a.83.83 0 0 1 .83-.832H61.17c.46 0 .832.373.832.832v19.942a.831.831 0 0 1-.832.831H14.6a.83.83 0 0 1-.831-.831zm1.662.831v18.28H60.34v-18.28zm4.965 35.768a.83.83 0 0 1 .831-.83h6.628a.83.83 0 0 1 .831.83v16.6a.83.83 0 0 1-.831.83h-6.628a.83.83 0 0 1-.831-.83zm1.663.832v14.936h4.965V77.183z" clip-rule="evenodd"/><path fill-rule="evenodd" d="M24.571 58.863a.83.83 0 0 1 .831.83v16.658a.831.831 0 1 1-1.662 0V59.694c0-.46.372-.832.831-.832m0 33.257a.83.83 0 0 1 .831.831v18.3a.831.831 0 0 1-1.662 0v-18.3a.83.83 0 0 1 .831-.831m22.395-15.768a.83.83 0 0 1 .832-.83h6.627a.83.83 0 0 1 .832.83v16.6a.83.83 0 0 1-.832.83h-6.627a.83.83 0 0 1-.832-.83zm1.663.832v14.936h4.965V77.183z" clip-rule="evenodd"/><path fill-rule="evenodd" d="M51.14 58.863a.83.83 0 0 1 .832.83v16.658a.831.831 0 1 1-1.662 0V59.694a.83.83 0 0 1 .83-.832m0 33.257c.46 0 .832.372.832.831v18.3a.831.831 0 0 1-1.662 0v-18.3a.83.83 0 0 1 .83-.831m28.672-15.768a.83.83 0 0 1 .831-.83h7.508a.83.83 0 0 1 .831.83v16.6a.83.83 0 0 1-.831.83h-7.508a.83.83 0 0 1-.831-.83zm1.663.832v14.936h5.845V77.183z" clip-rule="evenodd"/><path fill-rule="evenodd" d="M84.397 58.863a.83.83 0 0 1 .831.83v16.658a.831.831 0 1 1-1.662 0V59.694c0-.46.372-.832.831-.832M60.28 49.723c0-.46.373-.831.832-.831h13.314a.831.831 0 0 1 0 1.662H61.112a.83.83 0 0 1-.832-.831m33.257 0a.83.83 0 0 1 .83-.831h13.315a.832.832 0 1 1 0 1.662H94.368a.83.83 0 0 1-.831-.831m-9.14 42.396a.83.83 0 0 1 .831.831v18.3a.831.831 0 0 1-1.662 0v-18.3a.83.83 0 0 1 .831-.831" clip-rule="evenodd"/><path fill-rule="evenodd" d="M73.595 39.752c0-.46.372-.832.831-.832h19.942c.46 0 .831.373.831.832v19.942a.83.83 0 0 1-.83.831H74.425a.83.83 0 0 1-.831-.831zm1.662.831v18.28h18.28v-18.28zm38.222 35.768a.83.83 0 0 1 .831-.83h6.628a.83.83 0 0 1 .831.83v16.6a.83.83 0 0 1-.831.83h-6.628a.83.83 0 0 1-.831-.83zm1.663.832v14.936h4.965V77.183z" clip-rule="evenodd"/><path fill-rule="evenodd" d="M117.654 58.863a.83.83 0 0 1 .831.83v16.658a.831.831 0 1 1-1.663 0V59.694c0-.46.372-.832.832-.832m0 33.257a.83.83 0 0 1 .831.831v18.3a.83.83 0 1 1-1.663 0v-18.3c0-.459.372-.831.832-.831" clip-rule="evenodd"/><path fill-rule="evenodd" d="M106.851 39.752c0-.46.372-.832.831-.832h19.942c.46 0 .832.373.832.832v19.942a.831.831 0 0 1-.832.831h-19.942a.83.83 0 0 1-.831-.831zm1.663.831v18.28h18.279v-18.28z" clip-rule="evenodd"/><path fill-rule="evenodd" d="M120.997 30.594h-99.77v-8.313h99.77zM24.57 110.421a.825.825 0 0 0-.828.829c0 .461.368.829.829.829a.825.825 0 0 0 .829-.829.825.825 0 0 0-.83-.829m-9.141.829a9.14 9.14 0 0 1 9.142-9.142 9.14 9.14 0 0 1 9.142 9.142 9.14 9.14 0 0 1-9.142 9.142 9.14 9.14 0 0 1-9.142-9.142m35.711-.829a.825.825 0 0 0-.828.829c0 .461.367.829.829.829a.825.825 0 0 0 .829-.829.825.825 0 0 0-.83-.829m-9.14.829a9.14 9.14 0 0 1 9.142-9.142 9.14 9.14 0 0 1 9.142 9.142 9.14 9.14 0 0 1-9.142 9.142A9.14 9.14 0 0 1 42 111.25m42.397-.829a.825.825 0 0 0-.83.829c0 .461.369.829.83.829a.825.825 0 0 0 .829-.829.825.825 0 0 0-.83-.829m-9.142.829a9.14 9.14 0 0 1 9.142-9.142 9.14 9.14 0 0 1 9.142 9.142 9.14 9.14 0 0 1-9.142 9.142 9.14 9.14 0 0 1-9.142-9.142m42.399-.829a.825.825 0 0 0-.829.829c0 .461.368.829.829.829a.825.825 0 0 0 .829-.829.825.825 0 0 0-.829-.829m-9.142.829a9.14 9.14 0 0 1 9.142-9.142 9.14 9.14 0 0 1 9.142 9.142 9.14 9.14 0 0 1-9.142 9.142 9.14 9.14 0 0 1-9.142-9.142" clip-rule="evenodd" opacity=".4"/></g></symbol><symbol viewBox="0 0 24 24" id="archive" xmlns="http://www.w3.org/2000/svg"><path d="M4 7.997a2.3 2.3 0 0 1-.39-.035A2 2 0 0 1 2.038 6.39C2 6.197 2 5.965 2 5.5s0-.697.038-.89A2 2 0 0 1 3.61 3.038C3.803 3 4.035 3 4.5 3h15c.465 0 .697 0 .89.038a2 2 0 0 1 1.572 1.572c.038.193.038.425.038.89s0 .697-.038.89a2 2 0 0 1-1.572 1.572c-.107.02-.226.03-.39.035M10 13h4M4 8h16v8.2c0 1.68 0 2.52-.327 3.162a3 3 0 0 1-1.311 1.311C17.72 21 16.88 21 15.2 21H8.8c-1.68 0-2.52 0-3.162-.327a3 3 0 0 1-1.311-1.311C4 18.72 4 17.88 4 16.2z"/></symbol><symbol fill="none" viewBox="0 0 32 32" id="arrow-up-right" xmlns="http://www.w3.org/2000/svg"><path d="M9.333 22.667 22.667 9.333m0 0H9.333m13.334 0v13.334" stroke="#DEE2E6" stroke-width="3" stroke-linecap="round" stroke-linejoin="round"/></symbol><symbol fill="none" viewBox="0 0 174 174" id="atom" xmlns="http://www.w3.org/2000/svg"><g fill="#69FFA5" fill-rule="evenodd" clip-rule="evenodd"><path d="M61.037 31.026c-7.115 14.248-11.604 34.146-11.604 56.292s4.489 42.043 11.604 56.292c7.207 14.432 16.596 22.19 26.055 22.19s18.848-7.758 26.055-22.19c7.115-14.249 11.604-34.146 11.604-56.292s-4.489-42.044-11.604-56.292c-7.207-14.432-16.596-22.19-26.055-22.19s-18.848 7.758-26.055 22.19m-5.475-2.734c7.53-15.08 18.5-25.576 31.53-25.576s24 10.496 31.53 25.576c7.623 15.264 12.249 36.137 12.249 59.026s-4.626 43.762-12.249 59.026c-7.53 15.08-18.5 25.576-31.53 25.576s-24-10.496-31.53-25.576c-7.623-15.264-12.249-36.137-12.249-59.026s4.626-43.762 12.249-59.026" opacity=".1"/><path d="M30.876 61.225C16.466 68.439 8.714 77.84 8.714 87.318s7.751 18.879 22.162 26.093c14.229 7.124 34.1 11.618 56.216 11.618s41.987-4.494 56.215-11.618c14.411-7.214 22.163-16.616 22.163-26.093s-7.752-18.879-22.163-26.093c-14.228-7.124-34.099-11.618-56.215-11.618s-41.987 4.494-56.216 11.618m-2.74-5.472c15.247-7.633 36.095-12.266 58.956-12.266s43.709 4.633 58.955 12.266c15.064 7.541 25.543 18.525 25.543 31.565s-10.479 24.024-25.543 31.566c-15.246 7.632-36.094 12.265-58.955 12.265s-43.71-4.633-58.955-12.265c-15.065-7.542-25.543-18.526-25.543-31.566s10.478-24.024 25.543-31.565" opacity=".1"/><path d="M26.768 66.617c5.152 15.47 16.23 32.98 32.046 48.811s33.305 26.918 48.758 32.073c15.517 5.177 28.652 4.286 36.182-3.256 7.529-7.541 8.416-20.694 3.242-36.229-5.153-15.47-16.23-32.979-32.047-48.81-15.816-15.833-33.305-26.919-48.758-32.074-15.517-5.176-28.652-4.285-36.182 3.256s-8.416 20.694-3.241 36.23m-1.934.646c-5.251-15.766-4.636-29.935 3.734-38.318s22.52-9.003 38.268-3.75c15.811 5.275 33.563 16.56 49.555 32.567s27.266 33.778 32.538 49.608c5.251 15.766 4.636 29.936-3.734 38.318-8.369 8.383-22.521 9.003-38.268 3.75-15.811-5.275-33.563-16.559-49.555-32.566s-27.266-33.779-32.538-49.61"/><path d="M86.877 63.818a5.09 5.09 0 0 0-5.085 5.092 5.09 5.09 0 0 0 5.085 5.092 5.09 5.09 0 0 0 5.084-5.092 5.09 5.09 0 0 0-5.084-5.092m-7.125 5.092c0-3.938 3.189-7.132 7.125-7.132S94 64.972 94 68.91s-3.189 7.132-7.124 7.132c-3.936 0-7.125-3.195-7.125-7.132m5.115 11.23c-3.888 0-7.095 3.21-7.095 7.106v16.826c0 1.393 1.137 2.575 2.57 2.575h13.143c1.361 0 2.58-1.186 2.642-2.595V87.246c0-3.896-3.207-7.105-7.095-7.105zm-9.135 7.106c0-5.02 4.118-9.145 9.135-9.145h4.165c5.017 0 9.135 4.125 9.135 9.145v16.864c-.092 2.466-2.172 4.577-4.682 4.577H80.34c-2.588 0-4.61-2.125-4.61-4.615z"/><path d="M30.873 109.341c-5.021 15.075-3.593 26.193 2.257 32.051s16.952 7.293 32.01 2.27c14.734-4.916 31.698-15.607 47.164-31.088 15.465-15.48 26.148-32.463 31.061-47.215 5.021-15.075 3.592-26.192-2.258-32.051s-16.952-7.292-32.009-2.27c-14.734 4.916-31.699 15.607-47.164 31.088-15.466 15.48-26.148 32.464-31.061 47.215m-9.67-3.229c5.512-16.55 17.182-34.846 33.524-51.204s34.619-28.038 51.149-33.552c16.206-5.407 32.39-5.33 42.44 4.736s10.123 26.27 4.718 42.496c-5.512 16.55-17.182 34.846-33.524 51.204s-34.618 28.038-51.148 33.552c-16.207 5.407-32.391 5.329-42.44-4.736-10.05-10.065-10.123-26.27-4.72-42.496" opacity=".4"/></g></symbol><symbol viewBox="0 0 24 24" id="burger" xmlns="http://www.w3.org/2000/svg"><path fill-rule="evenodd" d="M3.5 5a1 1 0 0 0 0 2h17a1 1 0 1 0 0-2zm-1 7a1 1 0 0 1 1-1h17a1 1 0 0 1 0 2h-17a1 1 0 0 1-1-1m0 6.001a1 1 0 0 1 1-1h17a1 1 0 0 1 0 2h-17a1 1 0 0 1-1-1" clip-rule="evenodd"/></symbol><symbol fill="none" viewBox="0 0 174 173" id="cards" xmlns="http://www.w3.org/2000/svg"><g fill="#69FFA5" fill-rule="evenodd" clip-rule="evenodd"><path d="M25.339 33.212a13.237 13.237 0 0 0-13.252 13.252c0 7.33 5.921 13.25 13.252 13.25v10.2c-12.964 0-23.451-10.487-23.451-23.45 0-12.964 10.487-23.451 23.45-23.451 12.964 0 23.451 10.487 23.451 23.45h-10.2c0-7.33-5.92-13.25-13.25-13.25" opacity=".4"/><path d="M25.339 43.406a3.05 3.05 0 0 0-3.058 3.058 3.05 3.05 0 0 0 3.058 3.057v6.12a9.17 9.17 0 0 1-9.177-9.177 9.17 9.17 0 0 1 9.177-9.177 9.17 9.17 0 0 1 9.176 9.177h-6.12a3.05 3.05 0 0 0-3.056-3.058" opacity=".1"/><path d="M47.995 46.464c0-.564.456-1.02 1.02-1.02h83.335c6.857 0 12.318 5.743 12.318 12.678v50.087c0 7.011-5.465 12.678-12.318 12.678H36.637c-6.858 0-12.319-5.743-12.319-12.678V70.932a1.02 1.02 0 1 1 2.04 0v37.277c0 5.875 4.614 10.638 10.279 10.638h95.713c5.668 0 10.278-4.695 10.278-10.638V58.122c0-5.875-4.614-10.638-10.278-10.638H49.015a1.02 1.02 0 0 1-1.02-1.02"/><path d="M69.152 70.931c0-.563.457-1.02 1.02-1.02h86.214c7.044 0 12.678 5.715 12.678 12.679v50.087c0 7.044-5.714 12.678-12.678 12.678H57.435c-7.045 0-12.679-5.714-12.679-12.678V95.399a1.02 1.02 0 0 1 2.04 0v37.278c0 5.845 4.73 10.638 10.639 10.638h98.951c5.845 0 10.638-4.729 10.638-10.638V82.59c0-5.846-4.729-10.639-10.638-10.639H70.172a1.02 1.02 0 0 1-1.02-1.02"/><path d="M24.617 45.742a1.02 1.02 0 0 1 1.442 0L79.098 98.78a1.02 1.02 0 0 1-1.442 1.443L24.617 47.185a1.02 1.02 0 0 1 0-1.443"/><path d="M78.376 82.146c.564 0 1.02.456 1.02 1.02V99.5a1.02 1.02 0 0 1-1.02 1.02H62.04a1.02 1.02 0 1 1 0-2.04h15.316V83.167c0-.564.457-1.02 1.02-1.02"/><path d="M86.508 90.3h81.608v10.199H86.508z" opacity=".4"/></g></symbol><symbol fill="none" viewBox="0 0 25 24" id="chevron-down" xmlns="http://www.w3.org/2000/svg"><path d="m6.5 9 6 6 6-6" stroke="#F8F9FA" stroke-width="2" stroke-linecap="round" stroke-linejoin="round"/></symbol><symbol fill="none" viewBox="0 0 24 24" id="chevron-up" xmlns="http://www.w3.org/2000/svg"><path d="m18 15-6-6-6 6" stroke="#F8F9FA" stroke-width="2" stroke-linecap="round" stroke-linejoin="round"/></symbol><symbol fill="none" viewBox="0 0 24 24" id="close" xmlns="http://www.w3.org/2000/svg"><path d="M17 7 7 17M7 7l10 10" stroke="#F1F3F5" stroke-width="2" stroke-linecap="round" stroke-linejoin="round"/></symbol><symbol fill="none" viewBox="0 0 5 4" id="dot" xmlns="http://www.w3.org/2000/svg"><circle cx="2.435" cy="1.934" r="1.878" fill="#B6B6B6"/></symbol><symbol viewBox="0 0 24 24" id="facebook" xmlns="http://www.w3.org/2000/svg"><g clip-path="url(#aka)"><path d="M12 0C5.373 0 0 5.373 0 12c0 5.628 3.875 10.35 9.101 11.647v-7.98H6.627V12H9.1v-1.58c0-4.084 1.849-5.978 5.859-5.978.76 0 2.072.15 2.608.298v3.324a15 15 0 0 0-1.386-.044c-1.967 0-2.728.745-2.728 2.683V12h3.92l-.673 3.667h-3.247v8.245C19.396 23.195 24 18.135 24 12c0-6.627-5.373-12-12-12"/></g><defs><clipPath id="aka"><path d="M0 0h24v24H0z"/></clipPath></defs></symbol><symbol fill="none" viewBox="0 0 174 173" id="finances" xmlns="http://www.w3.org/2000/svg"><g fill="#69FFA5" fill-rule="evenodd" clip-rule="evenodd"><path d="M32.325 124.563v-28.57h10.2v28.57z" opacity=".4"/><path d="M81.289 67.423v57.139h-6.12v-57.14zm16.336 0v57.139h-6.12v-57.14zM29.293 41.985c-11.84 0-21.408 9.568-21.408 21.408S17.454 84.8 29.293 84.8v6.12c-15.22 0-27.528-12.309-27.528-27.528 0-15.22 12.309-27.528 27.528-27.528 15.22 0 27.528 12.309 27.528 27.528H50.7c0-11.84-9.569-21.408-21.408-21.408" opacity=".1"/><path d="M29.293 59.904c-2.074 0-3.705 1.673-3.705 3.632s1.631 3.633 3.705 3.633v6.12c-5.41 0-9.825-4.371-9.825-9.753 0-5.38 4.414-9.752 9.825-9.752s9.824 4.371 9.824 9.752h-6.12c0-1.959-1.63-3.632-3.704-3.632" opacity=".1"/><path d="M69.077 59.29c0-.563.456-1.02 1.02-1.02h97.943c.564 0 1.02.457 1.02 1.02v73.404a1.02 1.02 0 0 1-1.02 1.02H4.969a1.02 1.02 0 0 1-1.02-1.02V83.759a1.02 1.02 0 0 1 2.04 0v47.916H167.02V60.311H70.097a1.02 1.02 0 0 1-1.02-1.02"/><path d="M40.802 62.675a1.02 1.02 0 0 1 1.443-.007l7.483 7.417 7.413-7.413a1.02 1.02 0 1 1 1.443 1.442l-8.132 8.132a1.02 1.02 0 0 1-1.44.003l-8.203-8.132a1.02 1.02 0 0 1-.007-1.442m48.641 33.318c0-.564.457-1.02 1.02-1.02h2.015c6.176 0 11.239 5.062 11.239 11.239 0 6.176-5.063 11.238-11.24 11.238H78.23a1.02 1.02 0 1 1 0-2.039h14.249c5.05 0 9.199-4.15 9.199-9.199 0-5.05-4.15-9.2-9.2-9.2h-2.014a1.02 1.02 0 0 1-1.02-1.02m-9.128-19.417c-5.05 0-9.2 4.149-9.2 9.199s4.15 9.199 9.2 9.199h2.015a1.02 1.02 0 1 1 0 2.04h-2.015c-6.177 0-11.24-5.063-11.24-11.24 0-6.176 5.063-11.238 11.24-11.238h14.248a1.02 1.02 0 1 1 0 2.04z"/><path d="M86.505 66.403c.563 0 1.02.456 1.02 1.02v57.14a1.02 1.02 0 0 1-2.04 0v-57.14c0-.564.457-1.02 1.02-1.02M29.293 44.047c-10.663 0-19.346 8.683-19.346 19.346s8.683 19.346 19.346 19.346H49.73a1.02 1.02 0 0 1 0 2.04H29.293c-11.79 0-21.386-9.596-21.386-21.386s9.596-21.386 21.386-21.386c11.788 0 21.383 9.594 21.386 21.381v.005l.072 8.123a1.02 1.02 0 1 1-2.04.018l-.072-8.132v-.01c0-10.662-8.683-19.345-19.346-19.345"/><path d="M130.269 124.562v-57.14h10.199v57.14z" opacity=".4"/></g></symbol><symbol viewBox="0 0 24 24" id="instagram" xmlns="http://www.w3.org/2000/svg"><g clip-path="url(#ama)"><path d="M12 2.16c3.206 0 3.586.015 4.847.071 1.172.052 1.805.249 2.226.413a3.7 3.7 0 0 1 1.379.895c.421.422.68.82.895 1.378.164.422.36 1.06.412 2.227.057 1.265.07 1.645.07 4.847 0 3.206-.013 3.586-.07 4.846-.051 1.172-.248 1.805-.412 2.227a3.7 3.7 0 0 1-.895 1.378 3.7 3.7 0 0 1-1.379.895c-.421.165-1.059.361-2.226.413-1.266.056-1.645.07-4.847.07-3.206 0-3.586-.014-4.847-.07-1.172-.052-1.805-.248-2.226-.413a3.7 3.7 0 0 1-1.379-.895 3.7 3.7 0 0 1-.895-1.378c-.164-.422-.36-1.06-.412-2.227-.057-1.265-.07-1.645-.07-4.846 0-3.207.013-3.586.07-4.847.051-1.172.248-1.805.412-2.227.216-.558.478-.96.895-1.378.422-.422.82-.68 1.379-.895.421-.164 1.059-.361 2.226-.413 1.261-.056 1.64-.07 4.847-.07M12 0C8.742 0 8.334.014 7.055.07 5.78.127 4.903.333 4.144.628a5.9 5.9 0 0 0-2.128 1.388A5.9 5.9 0 0 0 .628 4.139C.333 4.903.127 5.775.07 7.05.014 8.334 0 8.742 0 12s.014 3.666.07 4.945c.057 1.275.263 2.152.558 2.911.31.792.717 1.463 1.388 2.128a5.9 5.9 0 0 0 2.123 1.383c.764.296 1.636.502 2.911.558 1.28.056 1.688.07 4.945.07s3.666-.014 4.946-.07c1.275-.056 2.151-.262 2.91-.558a5.9 5.9 0 0 0 2.124-1.383 5.9 5.9 0 0 0 1.383-2.123c.295-.764.501-1.636.558-2.911.056-1.28.07-1.687.07-4.945s-.014-3.666-.07-4.946c-.057-1.275-.263-2.151-.558-2.91a5.6 5.6 0 0 0-1.374-2.133A5.9 5.9 0 0 0 19.861.633C19.097.338 18.225.13 16.95.075 15.666.015 15.258 0 12 0"/><path d="M12 5.836A6.166 6.166 0 0 0 5.836 12 6.166 6.166 0 0 0 12 18.164 6.166 6.166 0 0 0 18.164 12 6.166 6.166 0 0 0 12 5.836m0 10.162A3.999 3.999 0 1 1 12.001 8 3.999 3.999 0 0 1 12 15.998m7.847-10.406a1.44 1.44 0 1 1-2.879 0 1.44 1.44 0 0 1 2.879 0"/></g><defs><clipPath id="ama"><path d="M0 0h24v24H0z"/></clipPath></defs></symbol><symbol fill="none" viewBox="0 0 173 173" id="investments" xmlns="http://www.w3.org/2000/svg"><g fill="#69FFA5"><g fill-rule="evenodd" clip-rule="evenodd"><path d="M91.051 51.582v-.02l-.005-.088a9 9 0 0 1-.009-.364c-.001-.32.01-.783.063-1.342.105-1.123.375-2.6 1.02-4.063.64-1.456 1.646-2.88 3.222-3.945 1.573-1.062 3.785-1.815 6.927-1.815a1.02 1.02 0 0 0 0-2.04c-3.48 0-6.107.84-8.07 2.165-1.958 1.324-3.184 3.084-3.946 4.813-.76 1.722-1.065 3.429-1.184 4.694-.06.635-.074 1.167-.072 1.543a11 11 0 0 0 .017.57v48.405a1.02 1.02 0 0 0 2.04 0V51.663q0-.04-.003-.08"/><path d="M101.251 38.925c0-.563.456-1.02 1.02-1.02h65.271c.564 0 1.02.457 1.02 1.02h-1.02 1.02v.057l-.005.126a9 9 0 0 1-.031.44c-.036.37-.105.89-.243 1.51a13.5 13.5 0 0 1-1.934 4.55c-2.255 3.377-6.678 6.57-15.143 6.57H90.039s-.002 0-.002-1.02V50.14h61.169c7.872 0 11.617-2.923 13.446-5.663a11.5 11.5 0 0 0 1.767-4.531h-64.148a1.02 1.02 0 0 1-1.02-1.02M90.037 51.159v-1.02a1.02 1.02 0 0 0 0 2.04z"/><path d="M93.117 51.159c0-.563.456-1.02 1.02-1.02h61.169c.564 0 1.02.457 1.02 1.02h-1.02 1.02v.057l-.005.126a8 8 0 0 1-.031.44c-.035.37-.105.89-.243 1.51a13.5 13.5 0 0 1-1.934 4.55c-2.255 3.377-6.678 6.57-15.142 6.57h-31.087s-.002 0-.002-1.02v-1.02h31.089c7.871 0 11.616-2.922 13.445-5.663a11.5 11.5 0 0 0 1.767-4.53H94.137a1.02 1.02 0 0 1-1.02-1.02m14.765 12.234v-1.02a1.02 1.02 0 1 0 .002 2.04z"/><path d="M89.015 63.393c0-.563.456-1.02 1.02-1.02h53.037c.564 0 1.02.457 1.02 1.02h-1.02 1.02v.057l-.005.126a8 8 0 0 1-.031.44c-.035.37-.105.89-.243 1.51a13.5 13.5 0 0 1-1.934 4.55c-2.255 3.377-6.678 6.57-15.143 6.57h-36.7l-.001-1.019v-1.02h36.701c7.872 0 11.617-2.923 13.446-5.663a11.5 11.5 0 0 0 1.767-4.531H90.035a1.02 1.02 0 0 1-1.02-1.02m1.02 12.234v-1.02a1.02 1.02 0 1 0 0 2.04z"/><path d="M89.015 75.627c0-.563.456-1.02 1.02-1.02h40.803c.564 0 1.02.457 1.02 1.02h-1.02 1.02v.057l-.005.126a8 8 0 0 1-.031.44c-.035.37-.105.89-.243 1.51a13.5 13.5 0 0 1-1.934 4.55c-2.255 3.377-6.678 6.57-15.142 6.57H90.036l-.001-1.02v-1.02h24.468c7.871 0 11.616-2.922 13.445-5.663a11.5 11.5 0 0 0 1.767-4.53h-39.68a1.02 1.02 0 0 1-1.02-1.02m1.02 12.234v-1.02a1.02 1.02 0 1 0 .001 2.04zm-1.02-36.702c0-.563.456-1.02 1.02-1.02h40.803c.564 0 1.02.457 1.02 1.02h-1.02 1.02v.057l-.005.126a8 8 0 0 1-.031.44c-.035.37-.105.89-.243 1.51a13.5 13.5 0 0 1-1.934 4.55c-2.255 3.377-6.678 6.57-15.142 6.57H90.036l-.001-1.02v-1.02h24.468c7.871 0 11.616-2.922 13.445-5.663a11.5 11.5 0 0 0 1.767-4.53h-39.68a1.02 1.02 0 0 1-1.02-1.02m1.02 12.234v-1.02a1.02 1.02 0 1 0 .001 2.04z"/><path d="M89.015 63.393c0-.563.456-1.02 1.02-1.02h28.57a1.02 1.02 0 0 1 1.019 1.02h-1.019 1.019v.057l-.005.126a8 8 0 0 1-.031.44c-.035.37-.105.89-.243 1.51a13.5 13.5 0 0 1-1.934 4.55c-2.255 3.377-6.678 6.57-15.142 6.57H90.036l-.001-1.019v-1.02h12.234c7.871 0 11.616-2.923 13.445-5.663a11.5 11.5 0 0 0 1.768-4.531H90.035a1.02 1.02 0 0 1-1.02-1.02m1.02 12.234v-1.02a1.02 1.02 0 1 0 0 2.04z"/><path d="M89.015 75.627c0-.563.456-1.02 1.02-1.02h16.336a1.02 1.02 0 0 1 1.019 1.02h-1.019l1.019.001v.056l-.005.126a8 8 0 0 1-.031.44c-.035.37-.105.89-.243 1.51a13.5 13.5 0 0 1-1.934 4.55c-2.255 3.377-6.678 6.57-15.142 6.57a1.02 1.02 0 1 1 0-2.04c7.871 0 11.616-2.922 13.445-5.663a11.5 11.5 0 0 0 1.768-4.53H90.035a1.02 1.02 0 0 1-1.02-1.02"/></g><g fill-rule="evenodd" clip-rule="evenodd"><path d="M68.577 38.925c0-.563.457-1.02 1.02-1.02 3.48 0 6.106.84 8.069 2.165 1.959 1.324 3.185 3.084 3.947 4.813.759 1.722 1.065 3.429 1.184 4.694.06.635.073 1.167.071 1.543a11 11 0 0 1-.016.57l-.001.007v48.398a1.02 1.02 0 0 1-2.04 0V51.663l.003-.08v-.002l.002-.018.004-.089a8.64 8.64 0 0 0 .009-.364c.001-.32-.01-.783-.063-1.342-.106-1.123-.375-2.6-1.02-4.063-.641-1.456-1.646-2.88-3.222-3.945-1.573-1.062-3.786-1.815-6.927-1.815a1.02 1.02 0 0 1-1.02-1.02"/><path d="M3.305 38.925c0-.563.457-1.02 1.02-1.02h65.272a1.02 1.02 0 0 1 0 2.04H5.448q.048.301.128.67c.235 1.057.705 2.46 1.64 3.86 1.829 2.74 5.574 5.664 13.445 5.664H81.83s.002 0 .002 1.02v1.02H20.66c-8.464 0-12.888-3.194-15.142-6.57a13.5 13.5 0 0 1-1.934-4.55c-.138-.62-.208-1.14-.243-1.511a9 9 0 0 1-.036-.566v-.054s0-.003 1.02-.003zm78.526 12.234v1.02a1.02 1.02 0 0 0 0-2.04z"/><path d="M15.54 51.159c0-.563.456-1.02 1.019-1.02h61.17a1.02 1.02 0 0 1 0 2.04H17.682a11.475 11.475 0 0 0 1.767 4.53c1.83 2.74 5.575 5.664 13.446 5.664h31.086s.003 0 .003 1.02v1.02h-31.09c-8.465 0-12.888-3.194-15.142-6.57a13.5 13.5 0 0 1-1.934-4.551c-.138-.62-.208-1.14-.243-1.51a9 9 0 0 1-.036-.566v-.054s0-.003 1.019-.003zm48.444 12.234v1.02a1.02 1.02 0 1 0-.003-2.04z"/><path d="M27.773 63.393c0-.563.457-1.02 1.02-1.02H81.83a1.02 1.02 0 0 1 0 2.04H29.916q.047.301.128.67c.235 1.057.705 2.46 1.64 3.86 1.829 2.74 5.573 5.664 13.445 5.664h36.7s.002 0 .002 1.02v1.02H45.128c-8.465 0-12.888-3.194-15.142-6.57a13.5 13.5 0 0 1-1.934-4.55c-.138-.62-.208-1.14-.244-1.511a9 9 0 0 1-.035-.566v-.037l-.001-.012v-.005s0-.003 1.02-.003zM81.83 75.627v1.02a1.02 1.02 0 1 0-.002-2.04z"/><path d="M40.007 75.627c0-.563.457-1.02 1.02-1.02h40.804a1.02 1.02 0 1 1 0 2.04h-39.68q.046.301.127.67c.235 1.057.705 2.46 1.64 3.86 1.829 2.74 5.574 5.664 13.445 5.664H81.83l.001 1.02v1.02H57.363c-8.464 0-12.887-3.194-15.142-6.57a13.5 13.5 0 0 1-1.934-4.551c-.138-.62-.208-1.14-.243-1.51a9 9 0 0 1-.036-.566v-.054s0-.003 1.02-.003zM81.831 87.86v1.02a1.02 1.02 0 1 0-.001-2.04zM40.007 51.159c0-.563.457-1.02 1.02-1.02h40.804a1.02 1.02 0 1 1 0 2.04h-39.68q.046.301.127.67a11.5 11.5 0 0 0 1.64 3.86c1.829 2.74 5.574 5.664 13.445 5.664H81.83l.001 1.02v1.02H57.363c-8.464 0-12.887-3.194-15.142-6.57a13.5 13.5 0 0 1-1.934-4.551c-.138-.62-.208-1.14-.243-1.51a9 9 0 0 1-.036-.566v-.054s0-.003 1.02-.003zm41.824 12.234v1.02a1.02 1.02 0 1 0-.001-2.04z"/><path d="M52.241 63.393c0-.563.457-1.02 1.02-1.02h28.57a1.02 1.02 0 0 1 0 2.04H54.384q.047.301.128.67c.235 1.057.705 2.46 1.64 3.86 1.829 2.74 5.574 5.664 13.445 5.664H81.83a1.021 1.021 0 0 1 .001 2.04H69.597c-8.464 0-12.888-3.194-15.142-6.57a13.5 13.5 0 0 1-1.934-4.55c-.138-.62-.208-1.14-.243-1.511a9 9 0 0 1-.036-.566v-.054s0-.003 1.02-.003z"/><path d="M64.475 75.627c0-.563.457-1.02 1.02-1.02h16.336a1.02 1.02 0 0 1 0 2.04H66.618q.047.301.128.67c.235 1.057.705 2.46 1.64 3.86 1.829 2.74 5.574 5.664 13.445 5.664a1.02 1.02 0 1 1 0 2.04c-8.465 0-12.888-3.194-15.142-6.57a13.5 13.5 0 0 1-1.934-4.551c-.138-.62-.208-1.14-.243-1.51a9 9 0 0 1-.036-.566v-.056l1.02-.001z"/></g><g fill-rule="evenodd" clip-rule="evenodd"><path d="M76.78 120.461h2.04v.141l-2.04.001zm-30.631.07c0 .006 0 .02.011.048.012.03.039.08.095.149.116.145.33.331.682.54.707.42 1.797.832 3.233 1.19 2.857.712 6.854 1.157 11.295 1.157 1.408 0 2.75-.071 4.045-.143l.113 2.037c-1.295.072-2.688.146-4.158.146-4.555 0-8.726-.455-11.788-1.218-1.523-.38-2.83-.85-3.782-1.415-.888-.528-1.786-1.336-1.786-2.489v-8.204h2.04z"/><path d="M46.149 128.665c0 .005 0 .018.011.046.012.03.039.08.095.149.116.145.33.331.682.54.707.42 1.797.832 3.233 1.19 2.857.712 6.854 1.157 11.295 1.157 1.408 0 2.75-.071 4.045-.143l.113 2.037c-1.295.072-2.688.146-4.158.146-4.555 0-8.726-.455-11.788-1.218-1.523-.38-2.83-.85-3.782-1.415-.888-.528-1.786-1.336-1.786-2.489v-8.204h2.04zm32.671-8.132h-2.04v-.071l2.04-.001zm-32.668-8.218c.019.073.136.347.814.748.711.421 1.8.833 3.232 1.191 2.847.712 6.826 1.157 11.267 1.157 1.062 0 2.086-.04 3.082-.091v-5.971q-.525-.017-1.058-.031h-.006c-.671-.018-1.357-.036-2.045-.071-4.463.002-8.45.464-11.291 1.183-1.432.362-2.517.776-3.22 1.193-.35.209-.563.393-.679.535a.6.6 0 0 0-.09.141zm3.494-3.863c3.053-.772 7.225-1.245 11.819-1.245h.027l.026.001a77.67 77.67 0 0 0 2.025.071h.006c.68.018 1.374.036 2.071.073l.967.051v9.849l-.964.053c-1.295.072-2.688.146-4.158.146-4.555 0-8.708-.455-11.762-1.218-1.52-.38-2.823-.85-3.776-1.414-.892-.528-1.782-1.325-1.818-2.458v-.032c0-1.141.902-1.94 1.776-2.459.944-.561 2.242-1.033 3.761-1.418"/><path d="M66.515 108.299q0 .004 0 0v.041c.025.061.135.256.573.546.505.334 1.279.68 2.317 1.003 2.065.642 4.982 1.137 8.384 1.35 1.294.071 2.635.142 4.041.142s2.748-.071 4.042-.142c3.406-.214 6.324-.691 8.388-1.325 1.037-.318 1.808-.661 2.31-.995.445-.297.552-.5.577-.569v-.051c0-.005 0-.019-.012-.047a.6.6 0 0 0-.094-.149c-.117-.144-.33-.331-.683-.54-.707-.42-1.797-.831-3.233-1.189-2.857-.712-6.854-1.157-11.294-1.157-4.438 0-8.435.462-11.292 1.183-1.437.363-2.53.777-3.239 1.195-.7.414-.777.676-.785.704m3.525-3.877c3.061-.772 7.232-1.245 11.79-1.245 4.555 0 8.726.454 11.789 1.217 1.523.38 2.83.85 3.781 1.415.888.528 1.786 1.336 1.786 2.49v.202l-.006.059c-.106.917-.777 1.588-1.479 2.056-.733.488-1.712.901-2.842 1.248-2.271.698-5.362 1.192-8.863 1.411h-.007c-1.295.072-2.688.146-4.159.146s-2.863-.074-4.158-.146h-.007c-3.506-.219-6.596-.732-8.866-1.439-1.13-.351-2.106-.766-2.836-1.248-.692-.458-1.372-1.117-1.481-2.024l-.007-.06v-.205c0-1.145.913-1.944 1.789-2.461.948-.56 2.253-1.032 3.776-1.416"/><path d="M66.515 116.427c0 .003.027.189.492.521.475.338 1.231.695 2.273 1.031 2.068.667 5.034 1.179 8.507 1.392l.175.009c1.304.069 2.522.133 3.868.133 1.407 0 2.748-.07 4.043-.142 3.473-.213 6.44-.725 8.508-1.392 1.041-.336 1.798-.693 2.273-1.031.465-.331.491-.517.493-.521v-8.128h2.04v8.131c0 .969-.663 1.69-1.348 2.178-.717.512-1.696.946-2.832 1.312-2.284.737-5.434 1.268-9.012 1.487h-.006c-1.295.072-2.688.146-4.159.146-1.4 0-2.668-.067-3.962-.135l-.193-.011h-.009c-3.578-.219-6.728-.75-9.012-1.487-1.136-.366-2.115-.8-2.832-1.312-.684-.488-1.347-1.208-1.347-2.177V108.3l2.04-.001z"/><path d="M66.515 124.563c0 .005 0 .047.061.139.069.101.2.242.434.41.472.339 1.225.694 2.266 1.025 2.068.658 5.034 1.153 8.51 1.366l.176.009c1.304.069 2.522.133 3.868.133 1.408 0 2.75-.07 4.046-.142l.01-.001c3.093-.141 5.896-.633 7.907-1.188l.543 1.967c-2.162.596-5.114 1.111-8.352 1.259-1.294.071-2.685.145-4.153.145-1.402 0-2.669-.067-3.963-.135l-.193-.011h-.009c-3.574-.219-6.723-.731-9.008-1.458-1.136-.362-2.119-.795-2.839-1.312-.696-.501-1.344-1.23-1.344-2.206v-8.131l2.04-.001zm32.671-2.663h-2.04v-5.468l2.04-.001z"/><path d="M64.546 124.635h2.04v8.204q0-.005 0 0c.008.028.085.29.786.703.71.419 1.802.833 3.239 1.195 2.857.721 6.854 1.184 11.291 1.184 4.843 0 9.126-.501 11.948-1.327l.573 1.958c-3.08.902-7.576 1.409-12.52 1.409-4.559 0-8.73-.473-11.791-1.246-1.523-.384-2.828-.856-3.777-1.416-.875-.517-1.789-1.315-1.789-2.46zm55.079-4.104c0 .375-.151.76-.252.962l-1.824-.913a.5.5 0 0 0 .034-.088l.002-.007v-8.156h2.04zm-32.672 0h-2.04v-.141l2.04-.001z"/><path d="M86.953 120.534h-2.04v-.033h2.04zm32.672.502h-2.04v-.573l2.04-.002zm-20.438-11.699v5.983c.995.051 2.02.091 3.082.091 4.437 0 8.434-.463 11.292-1.184 1.436-.362 2.529-.776 3.238-1.195.701-.413.777-.675.785-.703-.008-.027-.083-.284-.781-.691-.709-.414-1.801-.822-3.239-1.18-2.86-.713-6.858-1.176-11.299-1.211-1.061 0-2.084.04-3.078.09m-1.077-1.985c1.295-.072 2.688-.145 4.159-.145h.008c4.553.036 8.721.509 11.78 1.271 1.521.38 2.826.844 3.774 1.398.876.511 1.794 1.304 1.794 2.453 0 1.145-.913 1.943-1.789 2.46-.949.56-2.253 1.032-3.776 1.416-3.062.773-7.233 1.246-11.791 1.246-1.471 0-2.864-.074-4.159-.146l-.963-.053v-9.846zm-3.025 25.485c0 .001-.002.117.223.342.223.224.606.485 1.183.741 2.617 1.14 7.775 2.001 13.91 2.001 4.474 0 8.47-.463 11.318-1.184 1.432-.362 2.517-.775 3.219-1.193.351-.209.564-.393.679-.534a.6.6 0 0 0 .099-.167l.001-.003v-5.608q-.407.216-.864.404c-1.56.649-3.722 1.168-6.243 1.534-2.428.368-5.285.587-8.281.587-4.945 0-9.441-.507-12.52-1.409l-.007-.002-.048-.014c-.684-.205-1.475-.442-2.13-.77a11 11 0 0 1-.54-.287zm-2.04-8.202v8.202c0 .72.361 1.325.82 1.784.46.46 1.084.846 1.8 1.165l.007.003c2.998 1.306 8.489 2.172 14.729 2.172 4.593 0 8.765-.473 11.818-1.246 1.519-.384 2.818-.857 3.761-1.417.874-.52 1.777-1.319 1.777-2.459v-8.204h-2.04l-.002.01a.2.2 0 0 1-.023.053 1 1 0 0 1-.228.262c-.269.24-.723.513-1.395.793-1.336.556-3.311 1.044-5.754 1.399l-.007.001c-2.32.351-5.076.564-7.979.564-4.841 0-9.123-.5-11.944-1.326-.743-.222-1.369-.413-1.849-.654-.608-.304-1.005-.572-1.238-.799a1 1 0 0 1-.192-.239.2.2 0 0 1-.021-.063z"/><path d="M95.085 135.407v5.492c0 .005 0 .018.011.046a.6.6 0 0 0 .094.149c.117.145.331.331.683.54.707.42 1.797.831 3.233 1.189 2.857.713 6.854 1.158 11.295 1.158 4.474 0 8.47-.463 11.318-1.184 1.432-.362 2.517-.776 3.219-1.193.351-.209.564-.393.679-.534a.6.6 0 0 0 .099-.167l.001-.003v-5.5c-.925.501-2.136.924-3.528 1.271-3.062.763-7.233 1.218-11.788 1.218-6.222 0-11.733-.79-14.748-2.181l-.015-.007-.014-.007a12 12 0 0 1-.54-.287m-2.04-2.64v8.132c0 1.153.898 1.961 1.786 2.489.951.565 2.259 1.035 3.782 1.415 3.062.763 7.233 1.218 11.788 1.218 4.593 0 8.765-.473 11.818-1.246 1.519-.384 2.818-.857 3.761-1.418.874-.519 1.777-1.318 1.777-2.458v-8.132h-2.04a.1.1 0 0 1-.012.046.6.6 0 0 1-.094.149c-.117.145-.33.331-.683.54-.706.42-1.796.831-3.233 1.189-2.857.713-6.853 1.158-11.294 1.158-6.144 0-11.277-.792-13.88-1.987-.6-.301-.992-.567-1.223-.792a1 1 0 0 1-.192-.239.2.2 0 0 1-.021-.063v-.001zm17.499-11.214c-4.842 0-9.125.5-11.947 1.326l-.014.004c-1.24.344-2.152.74-2.73 1.125-.592.395-.623.629-.624.629 0 .017.016.131.222.338.224.224.608.486 1.187.743l.02.009.022.01c.487.244 1.06.439 1.827.648l.018.005c2.822.826 7.105 1.327 11.947 1.327 2.904 0 5.659-.213 7.98-.565h.002c2.371-.354 4.309-.842 5.628-1.397.664-.28 1.114-.553 1.382-.793.13-.117.196-.207.227-.264a.2.2 0 0 0 .023-.052l.002-.011-.002-.014a.3.3 0 0 0-.025-.058 1.1 1.1 0 0 0-.233-.276c-.268-.246-.716-.527-1.37-.815-1.285-.564-3.158-1.064-5.416-1.416h-.127l-.061-.007a66 66 0 0 0-7.938-.496m-12.513-.634c3.079-.9 7.572-1.406 12.513-1.406 2.975 0 5.729.215 8.122.503h.16l.077.012c2.386.367 4.479.907 6.004 1.577.759.333 1.431.722 1.929 1.18.494.453.92 1.074.92 1.85 0 .78-.431 1.398-.932 1.847-.504.451-1.182.829-1.949 1.153-1.542.649-3.669 1.169-6.119 1.534-2.429.368-5.286.588-8.284.588-4.939 0-9.432-.507-12.511-1.406-.804-.22-1.517-.453-2.173-.779-.708-.317-1.324-.7-1.779-1.155-.46-.459-.82-1.063-.82-1.782 0-1.036.756-1.806 1.533-2.324.825-.55 1.962-1.017 3.309-1.392"/></g><path d="m90.035 63.393 28.57.504c7.772-2.735 11.658-7.053 12.234-12.738H90.035z" opacity=".1"/><path d="m89.963 75.627 16.336.504c7.772-2.735 11.658-7.053 12.234-12.738h-28.57zm-8.06 0-16.336.504c-7.772-2.735-11.658-7.053-12.234-12.738h28.57z" opacity=".1"/><path d="M90.035 87.86h4.102c4.605 0 12.234-5.612 12.234-12.233H90.035zM81.83 63.393l-28.57.504c-7.771-2.735-11.657-7.053-12.233-12.738H81.83zm.001 24.467H77.73c-4.606 0-12.234-5.612-12.234-12.233h16.336z" opacity=".1"/></g></symbol><symbol viewBox="0 0 24 24" id="linkedin" xmlns="http://www.w3.org/2000/svg"><g clip-path="url(#aoa)"><path d="M22.223 0H1.772C.792 0 0 .773 0 1.73v20.536C0 23.222.792 24 1.772 24h20.451c.98 0 1.777-.778 1.777-1.73V1.73C24 .773 23.203 0 22.223 0M7.12 20.452H3.558V8.995H7.12zM5.34 7.434a2.064 2.064 0 1 1 0-4.125 2.063 2.063 0 0 1 0 4.125m15.112 13.018h-3.558v-5.57c0-1.326-.024-3.037-1.852-3.037-1.851 0-2.133 1.449-2.133 2.944v5.663H9.356V8.995h3.413v1.566h.047c.473-.9 1.636-1.852 3.365-1.852 3.605 0 4.27 2.372 4.27 5.457z"/></g><defs><clipPath id="aoa"><path d="M0 0h24v24H0z"/></clipPath></defs></symbol><symbol fill="none" viewBox="0 0 139 28" id="logo" xmlns="http://www.w3.org/2000/svg"><g clip-path="url(#apa)"><path d="M.168 19.665h17.47L.169 2.817v16.846Z" stroke="url(#apb)" stroke-width=".702"/><path d="M2.043 17.988h11.41L2.044 7.428v10.56Z" stroke="url(#apc)" stroke-width=".702"/><path d="M3.168 16.877h6.915l-6.915-6.484v6.484Z" stroke="url(#apd)" stroke-width=".702"/><path d="M4.293 15.767h3.526l-3.526-3.164v3.164Z" stroke="url(#ape)" stroke-width=".702"/><path d="M17.891 2.167v17.248L.826 2.167h17.065Z" stroke="url(#apf)" stroke-width=".702"/><path d="M16.192 4.018v11.265L5.496 4.018h10.696Z" stroke="url(#apg)" stroke-width=".702"/><path d="M15.068 5.129v6.826L8.5 5.129h6.568Z" stroke="url(#aph)" stroke-width=".702"/><path d="M13.943 6.24v3.48l-3.205-3.48h3.205Z" stroke="url(#api)" stroke-width=".702"/><path d="M26.813 21.257h-3.409V.311h3.409v20.946Zm9.71-16.427h1.871c1.36 0 2.34.264 2.94.791.625.528.936 1.463.936 2.804v12.832h-3.274V7.831c0-.241-.123-.362-.368-.362h-4.61c-.246 0-.368.12-.368.362l.033 13.426h-3.274l-.034-16.163h2.907l.368 2.375-.268.626c0-1.077.245-1.89.735-2.44.513-.55 1.315-.825 2.406-.825Zm16.04.264v2.54h-4.144l.335-.33v10.885c0 .22.122.33.367.33h3.442v2.738H50.09c-1.626 0-2.807-.308-3.542-.924-.712-.615-1.069-1.66-1.069-3.133V7.304l.334.33h-2.239v-2.54h2.24l-.335.33V.97h3.275v4.453l-.335-.33h4.144Zm7.08-.264h1.536v2.837h-4.043c-.245 0-.367.11-.367.33l.033 13.26h-3.274l-.034-16.163h2.907l.368 2.375-.268.626c0-1.077.245-1.89.736-2.44.512-.55 1.314-.825 2.405-.825Zm13.339 16.625h-6.683c-1.626 0-2.807-.308-3.542-.924-.713-.637-1.069-1.682-1.069-3.133V8.722c0-1.495.312-2.518.936-3.068.623-.55 1.704-.824 3.24-.824h3.275c1.537 0 2.629.275 3.275.824.646.55.969 1.573.969 3.068v6.3h-8.788v-2.341h5.547V7.83c0-.241-.123-.362-.368-.362H65.33c-.223 0-.334.12-.334.362v10.523c0 .242.111.363.334.363h7.652v2.738Zm9.006-.1h-6.916l-.034-2.638h7.218c.245 0 .367-.121.367-.363v-3.661c0-.242-.122-.363-.368-.363h-3.207c-1.537 0-2.64-.275-3.308-.825-.646-.572-.97-1.561-.97-2.969V8.788c0-1.473.346-2.496 1.037-3.068.69-.593 1.793-.89 3.308-.89l5.914.033v2.705h-6.583c-.222 0-.334.12-.334.362v3.464c0 .242.112.363.334.363h3.175c1.56 0 2.662.275 3.308.825.646.55.969 1.539.969 2.968v2.21c0 1.32-.312 2.255-.936 2.804-.624.528-1.615.792-2.974.792ZM93.373 4.83h1.503c1.382 0 2.373.264 2.974.791.624.528.936 1.463.936 2.804v12.832H95.51V7.831c0-.241-.122-.362-.367-.362h-4.31c-.223 0-.335.12-.335.362l.034 13.426h-3.308L87.19 5.094h2.94l.368 2.375-.3.626c0-1.077.245-1.89.735-2.44.512-.55 1.325-.825 2.439-.825Zm8.286 0h1.504c1.359 0 2.339.264 2.94.791.624.528.936 1.463.936 2.804v12.832h-3.275V7.831c0-.241-.122-.362-.367-.362h-4.244c-.245 0-.367.12-.367.362l-.1.693-.168-.429c0-1.077.246-1.89.736-2.44.512-.55 1.314-.825 2.405-.825Zm12.317 16.69h-1.67c-1.337 0-2.317-.263-2.941-.79-.624-.55-.935-1.485-.935-2.805V15.55c0-1.43.323-2.419.969-2.969.646-.55 1.737-.824 3.274-.824h4.544v2.375h-5.179c-.245 0-.367.11-.367.33v4.057c0 .242.122.363.367.363h4.778V8.128c0-.22-.122-.33-.367-.33h-7.017V5.061h6.349c1.559-.022 2.673.263 3.341.857.691.594 1.036 1.628 1.036 3.101v12.238h-2.974l-.368-2.375.201-.627c0 1.056-.234 1.87-.702 2.441-.468.55-1.247.825-2.339.825Zm14.595-16.69h1.537v2.837h-4.043c-.245 0-.368.11-.368.33l.033 13.26h-3.274l-.033-16.163h2.906l.368 2.375-.267.626c0-1.077.245-1.89.735-2.44.512-.55 1.314-.825 2.406-.825Zm10.428.264v2.54h-4.143l.334-.33v10.885c0 .22.123.33.368.33h3.441v2.738h-2.472c-1.627 0-2.807-.308-3.542-.924-.713-.615-1.069-1.66-1.069-3.133V7.304l.334.33h-2.239v-2.54h2.239l-.334.33V.97h3.274v4.453l-.334-.33h4.143Z" fill="#fff"/><mask id="apj" style="mask-type:luminance" maskUnits="userSpaceOnUse" x="23" y="0" width="116" height="22"><path d="M26.813 21.257h-3.409V.311h3.409v20.946Zm9.71-16.427h1.871c1.36 0 2.34.264 2.94.791.625.528.936 1.463.936 2.804v12.832h-3.274V7.831c0-.241-.123-.362-.368-.362h-4.61c-.246 0-.368.12-.368.362l.033 13.426h-3.274l-.034-16.163h2.907l.368 2.375-.268.626c0-1.077.245-1.89.735-2.44.513-.55 1.315-.825 2.406-.825Zm16.04.264v2.54h-4.144l.335-.33v10.885c0 .22.122.33.367.33h3.442v2.738H50.09c-1.626 0-2.807-.308-3.542-.924-.712-.615-1.069-1.66-1.069-3.133V7.304l.334.33h-2.239v-2.54h2.24l-.335.33V.97h3.275v4.453l-.335-.33h4.144Zm7.08-.264h1.536v2.837h-4.043c-.245 0-.367.11-.367.33l.033 13.26h-3.274l-.034-16.163h2.907l.368 2.375-.268.626c0-1.077.245-1.89.736-2.44.512-.55 1.314-.825 2.405-.825Zm13.339 16.625h-6.683c-1.626 0-2.807-.308-3.542-.924-.713-.637-1.069-1.682-1.069-3.133V8.722c0-1.495.312-2.518.936-3.068.623-.55 1.704-.824 3.24-.824h3.275c1.537 0 2.629.275 3.275.824.646.55.969 1.573.969 3.068v6.3h-8.788v-2.341h5.547V7.83c0-.241-.123-.362-.368-.362H65.33c-.223 0-.334.12-.334.362v10.523c0 .242.111.363.334.363h7.652v2.738Zm9.006-.1h-6.916l-.034-2.638h7.218c.245 0 .367-.121.367-.363v-3.661c0-.242-.122-.363-.368-.363h-3.207c-1.537 0-2.64-.275-3.308-.825-.646-.572-.97-1.561-.97-2.969V8.788c0-1.473.346-2.496 1.037-3.068.69-.593 1.793-.89 3.308-.89l5.914.033v2.705h-6.583c-.222 0-.334.12-.334.362v3.464c0 .242.112.363.334.363h3.175c1.56 0 2.662.275 3.308.825.646.55.969 1.539.969 2.968v2.21c0 1.32-.312 2.255-.936 2.804-.624.528-1.615.792-2.974.792ZM93.373 4.83h1.503c1.382 0 2.373.264 2.974.791.624.528.936 1.463.936 2.804v12.832H95.51V7.831c0-.241-.122-.362-.367-.362h-4.31c-.223 0-.335.12-.335.362l.034 13.426h-3.308L87.19 5.094h2.94l.368 2.375-.3.626c0-1.077.245-1.89.735-2.44.512-.55 1.325-.825 2.439-.825Zm8.286 0h1.504c1.359 0 2.339.264 2.94.791.624.528.936 1.463.936 2.804v12.832h-3.275V7.831c0-.241-.122-.362-.367-.362h-4.244c-.245 0-.367.12-.367.362l-.1.693-.168-.429c0-1.077.246-1.89.736-2.44.512-.55 1.314-.825 2.405-.825Zm12.317 16.69h-1.67c-1.337 0-2.317-.263-2.941-.79-.624-.55-.935-1.485-.935-2.805V15.55c0-1.43.323-2.419.969-2.969.646-.55 1.737-.824 3.274-.824h4.544v2.375h-5.179c-.245 0-.367.11-.367.33v4.057c0 .242.122.363.367.363h4.778V8.128c0-.22-.122-.33-.367-.33h-7.017V5.061h6.349c1.559-.022 2.673.263 3.341.857.691.594 1.036 1.628 1.036 3.101v12.238h-2.974l-.368-2.375.201-.627c0 1.056-.234 1.87-.702 2.441-.468.55-1.247.825-2.339.825Zm14.595-16.69h1.537v2.837h-4.043c-.245 0-.368.11-.368.33l.033 13.26h-3.274l-.033-16.163h2.906l.368 2.375-.267.626c0-1.077.245-1.89.735-2.44.512-.55 1.314-.825 2.406-.825Zm10.428.264v2.54h-4.143l.334-.33v10.885c0 .22.123.33.368.33h3.441v2.738h-2.472c-1.627 0-2.807-.308-3.542-.924-.713-.615-1.069-1.66-1.069-3.133V7.304l.334.33h-2.239v-2.54h2.239l-.334.33V.97h3.274v4.453l-.334-.33h4.143Z" fill="#fff"/></mask><g mask="url(#apj)"><path d="M26.813 21.257v.33h.334v-.33h-.334Zm-3.409 0h-.334v.33h.334v-.33Zm0-20.946v-.33h-.334v.33h.334Zm3.409 0h.334v-.33h-.334v.33Zm14.522 5.31-.222.247.002.002.002.002.218-.25Zm.935 15.636v.33h.335v-.33h-.334Zm-3.274 0h-.334v.33h.334v-.33ZM33.65 7.831h-.334v.001h.334Zm.033 13.426v.33h.335v-.33h-.335Zm-3.274 0h-.334v.33h.334v-.33Zm-.034-16.163v-.33h-.334v.33h.334Zm2.907 0 .33-.05-.043-.28h-.287v.33Zm.368 2.375.308.128.036-.086-.014-.092-.33.05Zm-.267.626h-.335l.642.128-.307-.128Zm.735-2.44-.246-.224-.003.003-.002.002.25.218Zm18.445-.561h.334v-.33h-.334v.33Zm0 2.54v.33h.334v-.33h-.334Zm-4.144 0-.236-.234-.57.563h.806v-.33Zm.335-.33h.334v-.797l-.57.563.236.234Zm3.809 11.215h.334v-.33h-.334v.33Zm0 2.738v.33h.334v-.33h-.334Zm-6.015-.924-.22.249.002.001.002.002.216-.252ZM45.48 7.303l.236-.233-.57-.563v.797h.334Zm.334.33v.33h.807l-.57-.563-.237.234Zm-2.238 0h-.335v.33h.335v-.33Zm0-2.54v-.33h-.335v.33h.335Zm2.238 0 .236.234.57-.563h-.806v.33Zm-.334.33h-.334v.797l.57-.563-.236-.234Zm0-4.453V.64h-.334v.33h.334Zm3.275 0h.334V.64h-.334v.33Zm0 4.453-.237.234.57.563v-.797h-.333Zm-.334-.33v-.33h-.807l.57.564.236-.233Zm12.76-.263h.334V4.5h-.335v.33Zm0 2.837v.33h.334v-.33h-.335Zm-4.411.33h-.334.334Zm.033 13.26v.33h.335v-.33h-.335Zm-3.274 0h-.334v.33h.334v-.33Zm-.034-16.163v-.33h-.334v.33h.334Zm2.907 0 .33-.05-.043-.28h-.287v.33Zm.368 2.375.308.128.036-.086-.014-.092-.33.05Zm-.267.626h-.335l.642.128-.307-.128Zm.735-2.44-.246-.224-.003.003-.002.002.25.218Zm15.745 15.8v.33h.334v-.33h-.334Zm-10.224-.924-.225.245.004.003.004.004.217-.252Zm10.625-5.508v.33h.334v-.33h-.334Zm-8.788 0h-.334v.33h.334v-.33Zm0-2.342v-.33h-.334v.33h.334Zm5.547 0v.33h.334v-.33h-.334Zm2.84 6.036h.334v-.33h-.334v.33Zm2.09 2.639-.334.004.004.326h.33v-.33Zm-.034-2.639v-.33H74.7l.004.334.334-.004Zm.702-5.212-.223.246.005.004.004.004.214-.254Zm.067-7.785.214.253.003-.002.002-.002-.22-.249Zm3.308-.89.002-.33h-.002v.33Zm5.914.033h.334v-.328l-.332-.002-.002.33Zm0 2.705v.33h.334v-.33h-.334Zm-.067 12.996.218.25.002-.002.003-.002-.223-.246ZM97.85 5.621l-.222.247.002.002.003.002.217-.25Zm.936 15.636v.33h.334v-.33h-.334Zm-3.275 0h-.334v.33h.334v-.33ZM90.5 7.831h-.334v.001h.334Zm.034 13.426v.33h.335l-.001-.33h-.334Zm-3.308 0h-.334v.33h.334v-.33Zm-.033-16.163v-.33h-.335v.33h.335Zm2.94 0 .33-.05-.043-.28h-.287v.33Zm.367 2.375.302.14.044-.09-.015-.1-.33.05Zm-.3.626h-.334l.636.142-.302-.142Zm.735-2.44-.246-.224-.003.003-.002.003.25.217Zm15.17-.034-.223.247.003.002.002.002.218-.25Zm.935 15.636v.33h.334v-.33h-.334Zm-3.274 0h-.335v.33h.335v-.33ZM98.786 7.831l.33.047.004-.023V7.83h-.334Zm-.1.693-.312.119.46 1.183.182-1.255-.33-.047Zm-.167-.429h-.335v.062l.023.057.312-.119Zm.735-2.44-.246-.224-.003.003-.002.003.25.217Zm10.111 15.074-.222.246.002.002.003.003.217-.25Zm7.853-8.972h.334v-.33h-.334v.33Zm0 2.375v.33h.334v-.33h-.334Zm-7.786-6.333h-.334v.33h.334v-.33Zm0-2.738v-.33h-.334v.33h.334Zm6.349 0v.33h.004l-.004-.33Zm3.341.857-.223.245.002.002.002.002.219-.249Zm1.036 15.339v.33h.334v-.33h-.334Zm-2.974 0-.33.05.043.28h.287v-.33Zm-.167-3.002h.334l-.653-.1.319.1Zm-.702 2.441.256.212.002-.002.002-.002-.26-.208ZM130.108 4.83h.334V4.5h-.334v.33Zm0 2.837v.33h.334v-.33h-.334Zm-4.411.33h-.334.334Zm.034 13.26v.33h.334v-.33h-.334Zm-3.275 0h-.334l.001.33h.333v-.33Zm-.033-16.163v-.33h-.335l.001.33h.334Zm2.907 0 .33-.05-.044-.28h-.286v.33Zm.367 2.375.308.128.037-.086-.015-.092-.33.05Zm-.267.626h-.334l.642.128-.308-.128Zm.735-2.44-.246-.224-.003.003-.002.003.251.217Zm12.834-.561h.335v-.33h-.335v.33Zm0 2.54v.33h.335v-.33h-.335Zm-4.143 0-.236-.234-.571.563h.807v-.33Zm.334-.33h.334v-.797l-.57.563.236.234Zm3.809 11.215h.335v-.33h-.335v.33Zm0 2.738v.33h.335v-.33h-.335Zm-6.014-.924-.22.249.002.001.002.002.216-.252Zm-1.069-13.03.236-.233-.57-.563v.797h.334Zm.334.33v.33h.806l-.57-.563-.236.234Zm-2.239 0h-.334v.33h.334v-.33Zm0-2.54v-.33h-.334v.33h.334Zm2.239 0 .236.234.57-.563h-.806v.33Zm-.334.33h-.334v.797l.57-.563-.236-.234Zm0-4.453V.64h-.334v.33h.334Zm3.274 0h.334V.64h-.334v.33Zm0 4.453-.236.234.57.563v-.797h-.334Zm-.334-.33v-.33h-.807l.571.564.236-.233ZM26.813 20.928h-3.409v.66h3.409v-.66Zm-3.074.33V.311h-.669v20.946h.669ZM23.404.64h3.409v-.66h-3.409v.66ZM26.48.31v20.947h.668V.311h-.668Zm10.044 4.85h1.871V4.5h-1.87v.66Zm1.871 0c1.33 0 2.209.26 2.719.708l.444-.493c-.693-.608-1.774-.875-3.163-.875v.66Zm2.723.712c.513.434.82 1.247.82 2.553h.668c0-1.376-.318-2.432-1.053-3.054l-.435.5Zm.82 2.553v12.832h.668V8.425h-.669Zm.334 12.502h-3.275v.66h3.274v-.66Zm-2.94.33V7.831h-.67v13.426h.67Zm0-13.426a.69.69 0 0 0-.19-.505.71.71 0 0 0-.513-.187v.66a.19.19 0 0 1 .056.005c.002.001-.006-.001-.016-.011-.01-.01-.013-.019-.012-.016.002.004.006.02.006.054h.668Zm-.703-.692h-4.61v.66h4.61v-.66Zm-4.61 0a.71.71 0 0 0-.513.187.69.69 0 0 0-.19.506h.669c0-.034.004-.05.006-.055 0-.003-.002.006-.012.016s-.019.012-.016.011a.192.192 0 0 1 .055-.005v-.66Zm-.702.693.033 13.426.668-.002-.033-13.425-.668.001Zm.367 13.095H30.41v.66h3.274v-.66Zm-2.94.33-.034-16.164-.668.001.034 16.164.668-.002Zm-.368-15.834h2.907v-.66h-2.907v.66Zm2.577-.28.367 2.375.661-.1-.367-2.374-.661.1Zm.39 2.198-.267.626.615.256.268-.626-.616-.256Zm.375.754c0-1.034.236-1.756.651-2.223l-.501-.436c-.564.633-.819 1.539-.819 2.66h.669Zm.647-2.217c.425-.457 1.12-.718 2.16-.718V4.5c-1.143 0-2.053.288-2.652.931l.492.447Zm17.865-.784v2.54h.668v-2.54h-.668Zm.334 2.21h-4.144v.66h4.144v-.66Zm-3.907.563.334-.33-.473-.467-.334.33.473.467Zm-.236-.563v10.885h.668V7.304h-.669Zm0 10.885c0 .17.048.355.201.492a.732.732 0 0 0 .5.168v-.66a.236.236 0 0 1-.064-.006c-.006-.002.002 0 .013.01a.1.1 0 0 1 .014.016c.004.005.006.01.006.011.002.003-.002-.005-.002-.03h-.669Zm.701.66h3.442v-.66H49.12v.66Zm3.108-.33v2.738h.668v-2.738h-.668Zm.334 2.408H50.09v.66h2.473v-.66Zm-2.473 0c-1.597 0-2.68-.305-3.325-.845l-.433.503c.825.69 2.103 1.002 3.758 1.002v-.66Zm-3.321-.842c-.608-.524-.956-1.453-.956-2.885h-.668c0 1.514.365 2.675 1.183 3.382l.44-.497Zm-.956-2.885V7.304h-.668V17.2h.668Zm-.57-9.663.334.33.473-.467-.335-.33-.472.467Zm.57-.233h-2.238v.66h2.238v-.66Zm-1.904.33v-2.54h-.669v2.54h.669Zm-.334-2.21h2.238v-.66h-2.238v.66Zm2.002-.564-.334.33.472.467.334-.33-.472-.467Zm.236.563V.97h-.668v4.453h.668ZM45.48 1.3h3.275V.64h-3.275v.66Zm2.94-.33v4.453h.669V.97h-.669Zm.57 4.22-.333-.33-.473.467.334.33.473-.467Zm-.57.233h4.144v-.66h-4.144v.66Zm11.223-.263h1.537V4.5h-1.537v.66Zm1.203-.33v2.837h.669V4.83h-.669Zm.334 2.507h-4.043v.66h4.043v-.66Zm-4.043 0a.733.733 0 0 0-.5.168.64.64 0 0 0-.201.491h.668c0-.025.004-.033.002-.03a.074.074 0 0 1-.02.027c-.011.01-.018.012-.012.01a.234.234 0 0 1 .063-.007v-.66Zm-.701.66.033 13.26h.668l-.033-13.261-.668.001Zm.367 12.93h-3.274v.66h3.274v-.66Zm-2.94.33-.034-16.164-.668.001.034 16.164.668-.002Zm-.368-15.834h2.907v-.66h-2.907v.66Zm2.577-.28.367 2.375.661-.1-.367-2.374-.661.1Zm.39 2.198-.267.626.615.256.268-.626-.616-.256Zm.375.754c0-1.034.236-1.756.651-2.223l-.501-.436c-.564.633-.819 1.539-.819 2.66h.669Zm.647-2.217c.425-.457 1.119-.718 2.16-.718V4.5c-1.144 0-2.053.288-2.652.931l.492.447Zm15.5 15.247h-6.684v.66h6.683v-.66Zm-6.684 0c-1.597 0-2.68-.305-3.325-.845l-.433.503c.825.69 2.103 1.002 3.758 1.002v-.66Zm-3.317-.838c-.613-.549-.96-1.482-.96-2.89h-.668c0 1.496.366 2.652 1.179 3.379l.449-.49Zm-.96-2.89V8.723h-.668v8.676h.669Zm0-8.675c0-1.472.312-2.37.825-2.822l-.446-.492c-.734.648-1.047 1.795-1.047 3.314h.669Zm.825-2.822c.528-.465 1.502-.74 3.018-.74V4.5c-1.558 0-2.745.275-3.464.908l.445.492Zm3.018-.74h3.275V4.5h-3.275v.66Zm3.275 0c1.514 0 2.503.274 3.056.744l.436-.5c-.74-.629-1.933-.904-3.492-.904v.66Zm3.056.744c.532.453.853 1.349.853 2.818h.668c0-1.521-.325-2.67-1.085-3.317l-.436.5Zm.853 2.818v6.3h.668v-6.3h-.668Zm.334 5.97h-8.788v.66h8.788v-.66Zm-8.453.33v-2.341h-.669v2.342h.669Zm-.335-2.012h5.547v-.66h-5.547v.66Zm5.881-.33V7.833h-.668v4.849h.668Zm0-4.848a.69.69 0 0 0-.19-.506.71.71 0 0 0-.512-.187v.66c.035 0 .051.004.055.005.003.001-.005-.001-.015-.011-.01-.01-.013-.018-.012-.016a.18.18 0 0 1 .006.054h.668Zm-.702-.693H65.33v.66h4.444v-.66Zm-4.444 0a.657.657 0 0 0-.497.198.711.711 0 0 0-.17.495h.667a.24.24 0 0 1 .007-.064c.002-.006 0 .002-.01.013a.088.088 0 0 1-.028.02c-.003.001.005-.002.031-.002v-.66Zm-.668.692v10.523h.668V7.832h-.668Zm0 10.523c0 .165.037.35.17.494.14.15.327.199.498.199v-.66c-.026 0-.034-.003-.031-.002l.012.006a.088.088 0 0 1 .016.014c.01.01.012.018.01.012a.24.24 0 0 1-.007-.063h-.668Zm.668.693h7.652v-.66H65.33v.66Zm7.318-.33v2.738h.668v-2.738h-.668Zm9.34 2.31h-6.916v.659h6.916v-.66Zm-6.582.325-.034-2.64-.668.01.034 2.638.668-.008Zm-.368-2.305h7.218v-.66h-7.218v.66Zm7.218 0a.709.709 0 0 0 .512-.188.69.69 0 0 0 .19-.505h-.669c0 .034-.005.05-.006.055 0 .002.002-.006.012-.016s.019-.012.016-.012a.19.19 0 0 1-.055.006v.66Zm.701-.693v-3.661h-.668v3.661h.668Zm0-3.661a.69.69 0 0 0-.19-.506.709.709 0 0 0-.511-.187v.66a.19.19 0 0 1 .055.005c.002.001-.006-.001-.016-.011-.01-.01-.013-.018-.012-.016.001.004.006.02.006.055h.668ZM82.256 14h-3.208v.66h3.208V14Zm-3.208 0c-1.513 0-2.517-.274-3.094-.748l-.428.507c.76.624 1.96.9 3.522.9V14Zm-3.085-.74c-.54-.48-.858-1.352-.858-2.724h-.668c0 1.443.329 2.55 1.08 3.215l.446-.491Zm-.858-2.724V8.788h-.668v1.748h.668Zm0-1.748c0-1.438.34-2.337.916-2.815l-.429-.505c-.804.665-1.155 1.811-1.155 3.32h.668Zm.921-2.819c.601-.516 1.606-.81 3.089-.81V4.5c-1.547 0-2.747.302-3.528.973l.44.497Zm3.087-.81 5.914.034.004-.66-5.915-.033-.003.66Zm5.582-.296v2.705h.668V4.863h-.668Zm.334 2.375h-6.582v.66h6.582v-.66Zm-6.582 0a.657.657 0 0 0-.498.198.711.711 0 0 0-.17.494h.668c0-.036.004-.055.006-.063.002-.005 0 .002-.01.013a.088.088 0 0 1-.016.014l-.012.006c-.003.001.005-.003.031-.003v-.66Zm-.669.692v3.464h.668V7.93h-.668Zm0 3.464c0 .165.037.35.17.494.14.15.327.199.499.199v-.66c-.026 0-.035-.004-.032-.002l.012.006a.086.086 0 0 1 .016.013c.01.012.012.019.01.013a.239.239 0 0 1-.007-.063h-.668Zm.668.693h3.175v-.66h-3.174v.66Zm3.175 0c1.538 0 2.538.274 3.09.744l.436-.5c-.74-.629-1.946-.904-3.526-.904v.66Zm3.09.744c.534.455.853 1.322.853 2.72h.668c0-1.462-.327-2.574-1.085-3.22l-.436.5Zm.853 2.72v2.21h.668v-2.21h-.668Zm0 2.21c0 1.28-.305 2.1-.824 2.557l.445.492c.727-.641 1.047-1.691 1.047-3.05h-.668Zm-.82 2.553c-.534.452-1.428.712-2.756.712v.66c1.39 0 2.479-.268 3.192-.871l-.435-.501ZM93.374 5.16h1.504V4.5h-1.504v.66Zm1.504 0c1.353 0 2.242.26 2.751.708l.444-.493c-.693-.609-1.786-.875-3.195-.875v.66Zm2.756.712c.513.434.819 1.247.819 2.553h.668c0-1.376-.318-2.432-1.052-3.054l-.435.5Zm.819 2.553v12.832h.668V8.425h-.668Zm.334 12.502h-3.275v.66h3.275v-.66Zm-2.94.33V7.831h-.669v13.426h.669Zm0-13.426a.69.69 0 0 0-.19-.505.71.71 0 0 0-.512-.187v.66c.034 0 .05.004.055.005.003.001-.006-.001-.016-.011-.01-.01-.012-.019-.012-.016.002.004.006.02.006.054h.669Zm-.702-.692h-4.31v.66h4.31v-.66Zm-4.31 0a.657.657 0 0 0-.498.198.711.711 0 0 0-.17.495h.668a.24.24 0 0 1 .006-.063c.002-.006 0 .001-.01.012a.09.09 0 0 1-.028.02c-.003.001.005-.002.032-.002v-.66Zm-.669.693.034 13.426.668-.002-.033-13.425-.669.001Zm.368 13.095h-3.308v.66h3.308v-.66Zm-2.974.33-.033-16.164-.669.001.034 16.164.668-.002Zm-.367-15.834h2.94v-.66h-2.94v.66Zm2.61-.28.367 2.375.66-.1-.367-2.374-.66.1Zm.395 2.184-.3.627.603.283.301-.627-.604-.283Zm.336.768c0-1.034.236-1.756.652-2.223l-.502-.435c-.564.632-.818 1.537-.818 2.658h.668Zm.646-2.217c.425-.455 1.13-.718 2.194-.718V4.5c-1.163 0-2.084.287-2.685.931l.491.447Zm10.481-.718h1.503V4.5h-1.503v.66Zm1.503 0c1.329 0 2.208.26 2.718.708l.444-.493c-.692-.608-1.773-.875-3.162-.875v.66Zm2.723.712c.513.434.819 1.247.819 2.553h.668c0-1.376-.318-2.432-1.052-3.054l-.435.5Zm.819 2.553v12.832h.668V8.425h-.668Zm.334 12.502h-3.274v.66h3.274v-.66Zm-2.94.33V7.831h-.669v13.426h.669Zm0-13.426a.69.69 0 0 0-.19-.505.71.71 0 0 0-.512-.187v.66a.19.19 0 0 1 .055.005c.003.001-.006-.001-.016-.011-.01-.01-.012-.019-.012-.016.002.004.006.02.006.054h.669Zm-.702-.692h-4.244v.66h4.244v-.66Zm-4.244 0a.71.71 0 0 0-.511.187.69.69 0 0 0-.19.506h.668a.19.19 0 0 1 .006-.055c0-.002-.002.006-.012.016s-.018.012-.016.011a.19.19 0 0 1 .055-.005v-.66Zm-.698.646-.1.693.661.093.1-.693-.66-.093Zm.543.62-.168-.428-.623.237.167.429.624-.237Zm-.145-.31c0-1.034.236-1.756.652-2.223l-.502-.435c-.564.632-.819 1.537-.819 2.658h.669Zm.646-2.217c.426-.457 1.121-.718 2.161-.718V4.5c-1.143 0-2.053.288-2.652.931l.491.447Zm14.477 15.313h-1.67v.66h1.67v-.66Zm-1.67 0c-1.304 0-2.188-.26-2.723-.712l-.435.5c.712.603 1.788.872 3.158.872v-.66Zm-2.718-.708c-.52-.458-.824-1.277-.824-2.558h-.668c0 1.359.319 2.409 1.047 3.05l.445-.492Zm-.824-2.558V15.55h-.668v2.375h.668Zm0-2.375c0-1.397.319-2.264.853-2.719l-.436-.5c-.758.646-1.085 1.758-1.085 3.22h.668Zm.853-2.719c.552-.47 1.542-.744 3.056-.744v-.66c-1.559 0-2.753.276-3.492.905l.436.5Zm3.056-.744h4.545v-.66h-4.545v.66Zm4.21-.33v2.375h.669v-2.375h-.669Zm.335 2.045h-5.18v.66h5.18v-.66Zm-5.18 0a.734.734 0 0 0-.5.168.639.639 0 0 0-.201.492h.668c0-.026.004-.034.002-.03l-.006.01a.056.056 0 0 1-.014.017c-.011.01-.018.011-.012.01a.226.226 0 0 1 .063-.007v-.66Zm-.701.66v4.057h.668v-4.057h-.668Zm0 4.057a.69.69 0 0 0 .19.506.708.708 0 0 0 .511.187v-.66a.192.192 0 0 1-.055-.006c-.002 0 .006.002.016.012s.013.018.012.015a.16.16 0 0 1-.006-.054h-.668Zm.701.693h4.779v-.66h-4.779v.66Zm5.113-.33V8.128h-.669v10.754h.669Zm0-10.754a.64.64 0 0 0-.202-.491.732.732 0 0 0-.5-.168v.66c.037 0 .056.004.064.006.006.002-.002 0-.013-.01a.076.076 0 0 1-.02-.027c-.001-.003.002.005.002.03h.669Zm-.702-.66h-7.017v.66h7.017v-.66Zm-6.683.33V5.062h-.668v2.738h.668Zm-.334-2.407h6.349v-.66h-6.349v.66Zm6.353 0c1.532-.022 2.54.263 3.114.772l.447-.49c-.764-.678-1.983-.965-3.57-.942l.009.66Zm3.118.776c.582.5.921 1.415.921 2.852h.668c0-1.51-.352-2.663-1.151-3.35l-.438.498Zm.921 2.852v12.238h.668V9.019h-.668Zm.334 11.908h-2.974v.66h2.974v-.66Zm-2.644.28-.367-2.375-.661.1.368 2.375.66-.1Zm-.379-2.226.2-.626-.637-.2-.2.628.637.198Zm-.452-.726c0 1.012-.225 1.742-.628 2.234l.52.415c.533-.652.776-1.55.776-2.649h-.668Zm-.624 2.23c-.378.443-1.039.706-2.083.706v.66c1.14 0 2.037-.287 2.595-.943l-.512-.424ZM128.571 5.16h1.537V4.5h-1.537v.66Zm1.203-.33v2.837h.668V4.83h-.668Zm.334 2.507h-4.043v.66h4.043v-.66Zm-4.043 0a.734.734 0 0 0-.501.168.639.639 0 0 0-.201.491h.668c0-.025.004-.033.003-.03l-.006.011a.125.125 0 0 1-.014.016c-.012.01-.019.012-.013.01a.237.237 0 0 1 .064-.007v-.66Zm-.702.66.033 13.26h.669l-.034-13.261-.668.001Zm.368 12.93h-3.275v.66h3.275v-.66Zm-2.941.33-.033-16.164-.668.001.033 16.164.668-.002Zm-.367-15.834h2.907v-.66h-2.907v.66Zm2.576-.28.368 2.375.66-.1-.367-2.374-.661.1Zm.39 2.198-.267.626.616.256.267-.626-.616-.256Zm.375.754c0-1.034.236-1.756.652-2.223l-.502-.435c-.564.632-.818 1.537-.818 2.658h.668Zm.647-2.217c.425-.457 1.12-.718 2.16-.718V4.5c-1.143 0-2.053.288-2.652.931l.492.447Zm12.254-.784v2.54h.669v-2.54h-.669Zm.334 2.21h-4.143v.66h4.143v-.66Zm-3.907.563.335-.33-.473-.467-.334.33.472.467Zm-.236-.563v10.885h.668V7.304h-.668Zm0 10.885c0 .17.049.355.201.492a.734.734 0 0 0 .501.168v-.66a.234.234 0 0 1-.064-.006c-.006-.002.001 0 .013.01l.014.015.006.012c.001.003-.003-.005-.003-.03h-.668Zm.702.66h3.441v-.66h-3.441v.66Zm3.107-.33v2.738h.669v-2.738h-.669Zm.334 2.408h-2.472v.66h2.472v-.66Zm-2.472 0c-1.597 0-2.681-.305-3.326-.845l-.432.503c.825.69 2.102 1.002 3.758 1.002v-.66Zm-3.322-.842c-.607-.524-.955-1.453-.955-2.885h-.668c0 1.514.364 2.675 1.183 3.382l.44-.497Zm-.955-2.885V7.304h-.668V17.2h.668Zm-.57-9.663.334.33.472-.467-.334-.33-.472.467Zm.57-.233h-2.239v.66h2.239v-.66Zm-1.905.33v-2.54h-.668v2.54h.668Zm-.334-2.21h2.239v-.66h-2.239v.66Zm2.003-.564-.334.33.472.467.334-.33-.472-.467Zm.236.563V.97h-.668v4.453h.668Zm-.334-4.123h3.274V.64h-3.274v.66Zm2.94-.33v4.453h.668V.97h-.668Zm.571 4.22-.335-.33-.472.467.334.33.473-.467Zm-.571.233h4.143v-.66h-4.143v.66Z" fill="#020002"/></g><path d="M129.652 24.72a1.008 1.008 0 0 0-.124-.254.785.785 0 0 0-.417-.316.95.95 0 0 0-.761.09.918.918 0 0 0-.338.39 1.44 1.44 0 0 0-.125.63c0 .25.042.46.126.631a.916.916 0 0 0 .344.39.913.913 0 0 0 .486.132.9.9 0 0 0 .442-.105.752.752 0 0 0 .299-.301.936.936 0 0 0 .108-.46l.108.023h-.877v-.31h1.111v.31c0 .237-.052.443-.154.618a1.055 1.055 0 0 1-.421.408 1.288 1.288 0 0 1-.616.143c-.258 0-.484-.06-.68-.18a1.214 1.214 0 0 1-.456-.512 1.776 1.776 0 0 1-.162-.787c0-.228.031-.432.092-.614.063-.183.152-.338.265-.467.114-.128.249-.226.405-.295.155-.068.327-.102.514-.102.153 0 .297.023.43.068a1.152 1.152 0 0 1 .62.49c.071.114.119.24.146.38h-.365Zm.941 1.98v-2.16h.325v.327h.022a.519.519 0 0 1 .217-.26.642.642 0 0 1 .353-.1 3.972 3.972 0 0 1 .177.005v.338a1.096 1.096 0 0 0-.205-.023.598.598 0 0 0-.285.066.484.484 0 0 0-.268.44V26.7h-.336Zm2.314.045a.962.962 0 0 1-.52-.14.946.946 0 0 1-.347-.389 1.297 1.297 0 0 1-.124-.585c0-.225.041-.42.124-.589a.943.943 0 0 1 .347-.39.962.962 0 0 1 .52-.14c.197 0 .37.047.518.14a.939.939 0 0 1 .348.39c.083.168.125.364.125.59 0 .222-.042.417-.125.584a.941.941 0 0 1-.348.39.955.955 0 0 1-.518.139Zm0-.298c.15 0 .273-.038.37-.114a.674.674 0 0 0 .215-.3c.047-.123.07-.257.07-.402 0-.144-.023-.278-.07-.403a.683.683 0 0 0-.215-.302.577.577 0 0 0-.37-.116.575.575 0 0 0-.37.116.675.675 0 0 0-.215.302c-.047.125-.07.26-.07.403 0 .145.023.279.07.402a.666.666 0 0 0 .215.3.58.58 0 0 0 .37.114Zm2.882-.63V24.54h.336V26.7h-.336v-.366h-.023a.71.71 0 0 1-.239.28.697.697 0 0 1-.41.114.734.734 0 0 1-.364-.089.621.621 0 0 1-.251-.27 1.01 1.01 0 0 1-.091-.456V24.54h.336v1.349a.52.52 0 0 0 .134.377c.09.093.205.14.344.14a.577.577 0 0 0 .474-.257.575.575 0 0 0 .09-.333Zm.952 1.692v-2.968h.324v.343h.04a3.06 3.06 0 0 1 .103-.144.59.59 0 0 1 .191-.157.69.69 0 0 1 .338-.07c.184 0 .347.045.487.136.141.09.25.22.329.386.079.167.118.364.118.59 0 .23-.039.428-.118.595a.928.928 0 0 1-.327.388.867.867 0 0 1-.483.137.703.703 0 0 1-.337-.07.627.627 0 0 1-.196-.158c-.045-.06-.08-.11-.105-.15h-.028v1.142h-.336Zm.33-1.889c0 .163.024.307.073.432.048.123.119.22.212.29.093.07.207.105.341.105a.555.555 0 0 0 .352-.11.675.675 0 0 0 .214-.298c.048-.126.072-.265.072-.419 0-.152-.023-.289-.071-.41a.63.63 0 0 0-.212-.291.565.565 0 0 0-.355-.109.565.565 0 0 0-.344.103.62.62 0 0 0-.211.284c-.047.12-.071.262-.071.423Z" fill="#fff"/></g><defs><linearGradient id="apb" x1="9.025" y1="2.426" x2="10.789" y2="22.465" gradientUnits="userSpaceOnUse"><stop stop-color="#B2FF5D"/><stop offset="1" stop-color="#00C7B8"/></linearGradient><linearGradient id="apc" x1="7.876" y1="7.048" x2="8.957" y2="19.842" gradientUnits="userSpaceOnUse"><stop stop-color="#B2FF5D"/><stop offset="1" stop-color="#00C7B8"/></linearGradient><linearGradient id="apd" x1="6.751" y1="10.009" x2="7.445" y2="18.11" gradientUnits="userSpaceOnUse"><stop stop-color="#B2FF5D"/><stop offset="1" stop-color="#00C7B8"/></linearGradient><linearGradient id="ape" x1="6.188" y1="12.23" x2="6.538" y2="16.497" gradientUnits="userSpaceOnUse"><stop stop-color="#B2FF5D"/><stop offset="1" stop-color="#00C7B8"/></linearGradient><linearGradient id="apf" x1=".429" y1="10.911" x2="20.719" y2="12.744" gradientUnits="userSpaceOnUse"><stop stop-color="#B2FF5D"/><stop offset="1" stop-color="#00C7B8"/></linearGradient><linearGradient id="apg" x1="5.111" y1="9.777" x2="18.066" y2="10.9" gradientUnits="userSpaceOnUse"><stop stop-color="#B2FF5D"/><stop offset="1" stop-color="#00C7B8"/></linearGradient><linearGradient id="aph" x1="8.111" y1="8.666" x2="16.314" y2="9.387" gradientUnits="userSpaceOnUse"><stop stop-color="#B2FF5D"/><stop offset="1" stop-color="#00C7B8"/></linearGradient><linearGradient id="api" x1="10.361" y1="8.111" x2="14.681" y2="8.474" gradientUnits="userSpaceOnUse"><stop stop-color="#B2FF5D"/><stop offset="1" stop-color="#00C7B8"/></linearGradient><clipPath id="apa"><path fill="#fff" transform="translate(0 .31)" d="M0 0h139v27.379H0z"/></clipPath></defs></symbol><symbol fill="none" viewBox="0 0 174 174" id="magnet" xmlns="http://www.w3.org/2000/svg"><g fill="#69FFA5"><path d="M38.533 145.055s.072-24.612.072-49.224c0-32.816 24.324-48.72 48.864-48.72V30.775c-41.02 0-65.271 32.24-65.271 65.056v49.224z" opacity=".1"/><path fill-rule="evenodd" d="M87.469 31.795c-35.564 0-64.324 28.762-64.324 64.252a7868 7868 0 0 0 .06 29.86l.012 2.806-1.02.006-1.02.004-.011-2.808a9177 9177 0 0 1-.061-29.868c0-36.618 29.675-66.292 66.364-66.292 36.616 0 66.363 29.673 66.363 66.292v32.671l-1.02.001h-1.019V96.047c0-35.49-28.832-64.252-64.324-64.252M22.2 129.739a1.02 1.02 0 0 1-1.024-1.016l1.02-.004 1.02-.006a1.02 1.02 0 0 1-1.016 1.026m130.611 0a1.02 1.02 0 0 1-1.019-1.02h1.019l1.02-.001a1.02 1.02 0 0 1-1.02 1.021" clip-rule="evenodd"/><path fill-rule="evenodd" d="M87.469 48.131c-26.425 0-47.916 21.421-47.916 47.916v32.67a1.02 1.02 0 1 1-2.04.002V96.047c0-27.623 22.407-49.956 49.956-49.956 27.622 0 49.955 22.407 49.955 49.956v32.67a1.02 1.02 0 1 1-2.04.002V96.047c0-26.424-21.421-47.916-47.915-47.916" clip-rule="evenodd"/><path fill-rule="evenodd" d="M21.177 128.719c0-.564.456-1.02 1.02-1.02h16.336c.563 0 1.02.456 1.02 1.02v16.336a1.02 1.02 0 0 1-1.02 1.02H22.197a1.02 1.02 0 0 1-1.02-1.02zm2.04 1.02v14.296h14.296v-14.296zm112.167-1.025a1.02 1.02 0 0 1 1.02-1.015h16.336c.564 0 1.02.456 1.02 1.02v16.336a1.02 1.02 0 0 1-1.02 1.02h-16.408c-.271 0-.531-.108-.722-.301a1 1 0 0 1-.297-.724zm2.036 1.025-.063 14.296h14.363v-14.296z" clip-rule="evenodd"/><path fill-rule="evenodd" d="M92.569 75.832v31.451h19.021l-29.221 41.703v-31.503H63.428z" clip-rule="evenodd" opacity=".4"/></g></symbol><symbol fill="none" viewBox="0 0 24 25" id="mail" xmlns="http://www.w3.org/2000/svg"><path d="m21.5 18.5-6.643-6m-5.714 0-6.643 6M2 7.5l8.165 5.715c.661.463.992.695 1.351.784a2 2 0 0 0 .968 0c.36-.09.69-.32 1.351-.784L22 7.5m-15.2 13h10.4c1.68 0 2.52 0 3.162-.327a3 3 0 0 0 1.311-1.311C22 18.22 22 17.38 22 15.7V9.3c0-1.68 0-2.52-.327-3.162a3 3 0 0 0-1.311-1.311C19.72 4.5 18.88 4.5 17.2 4.5H6.8c-1.68 0-2.52 0-3.162.327a3 3 0 0 0-1.311 1.311C2 6.78 2 7.62 2 9.3v6.4c0 1.68 0 2.52.327 3.162a3 3 0 0 0 1.311 1.311c.642.327 1.482.327 3.162.327Z" stroke="#F8F9FA" stroke-width="2" stroke-linecap="round" stroke-linejoin="round"/></symbol><symbol fill="none" viewBox="0 0 174 174" id="network" xmlns="http://www.w3.org/2000/svg"><g fill="#69FFA5" fill-rule="evenodd" clip-rule="evenodd"><path d="M91.712 81.923c-1.962 0-3.553 1.558-3.553 3.481s1.59 3.482 3.552 3.482 3.552-1.559 3.552-3.482c0-1.922-1.59-3.481-3.552-3.481m-10.663 3.481c0-5.772 4.774-10.451 10.662-10.451 5.89 0 10.663 4.679 10.663 10.451S97.6 95.856 91.712 95.856c-5.89 0-10.663-4.68-10.663-10.452m48.537 33.647c-1.961 0-3.551 1.559-3.551 3.482s1.59 3.482 3.551 3.482 3.552-1.559 3.552-3.482-1.59-3.482-3.552-3.482m-10.662 3.482c0-5.773 4.774-10.452 10.662-10.452s10.663 4.679 10.663 10.452-4.774 10.452-10.663 10.452c-5.888 0-10.662-4.68-10.662-10.452" opacity=".1"/><path d="M43.463 112.45a1.2 1.2 0 0 1 1.675 0l33.195 32.539a1.146 1.146 0 0 1 0 1.643 1.2 1.2 0 0 1-1.676 0l-33.194-32.539a1.146 1.146 0 0 1 0-1.643M167.549 12.226c-1.978 0-3.581 1.572-3.581 3.51 0 1.939 1.603 3.51 3.581 3.51s3.581-1.571 3.581-3.51-1.603-3.51-3.581-3.51m-5.951 3.51c0-3.222 2.664-5.833 5.951-5.833s5.951 2.611 5.951 5.833-2.664 5.834-5.951 5.834-5.951-2.612-5.951-5.834m-32.011 61.568c-4.564 0-8.264 3.627-8.264 8.1 0 4.474 3.7 8.1 8.264 8.1s8.263-3.626 8.263-8.1c0-4.473-3.7-8.1-8.263-8.1m-10.634 8.1c0-5.756 4.761-10.423 10.634-10.423 5.872 0 10.633 4.667 10.633 10.423s-4.761 10.424-10.633 10.424c-5.873 0-10.634-4.667-10.634-10.424M34.772 95.91c-4.563 0-8.263 3.626-8.263 8.1 0 4.473 3.7 8.1 8.263 8.1 4.564 0 8.264-3.627 8.264-8.1 0-4.474-3.7-8.1-8.264-8.1m-10.633 8.1c0-5.757 4.76-10.424 10.633-10.424s10.634 4.667 10.634 10.424-4.761 10.423-10.634 10.423c-5.872 0-10.633-4.667-10.633-10.423"/><path d="M129.59 93.504c.655 0 1.185.52 1.185 1.162v27.867c0 .308-.124.602-.345.82l-23.663 23.277a1.2 1.2 0 0 1-1.676.003 1.145 1.145 0 0 1-.003-1.643l23.317-22.937V94.666c0-.641.531-1.162 1.185-1.162M31.432 47.567a1.2 1.2 0 0 1 1.637-.352L92.35 84.426c.34.214.546.582.546.978v53.44c0 .641-.53 1.161-1.185 1.161s-1.185-.52-1.185-1.161V86.04L31.79 49.172a1.15 1.15 0 0 1-.36-1.605m-15.557 8.809c.654 0 1.185.52 1.185 1.161v27.386l9.101 8.922a1.144 1.144 0 0 1 0 1.642 1.2 1.2 0 0 1-1.676 0l-9.448-9.261a1.15 1.15 0 0 1-.347-.822V57.537c0-.641.53-1.161 1.185-1.161"/><path d="M113.866 25.895c.464.452.467 1.187.007 1.643L45.142 95.484a1.2 1.2 0 0 1-1.676.007 1.146 1.146 0 0 1-.007-1.643l68.731-67.946a1.2 1.2 0 0 1 1.676-.007m14.539-10.158c0-.642.53-1.162 1.185-1.162h28.428c.655 0 1.185.52 1.185 1.162s-.53 1.161-1.185 1.161H129.59c-.655 0-1.185-.52-1.185-1.161m39.144 66.157c-1.978 0-3.581 1.572-3.581 3.51 0 1.939 1.603 3.51 3.581 3.51s3.581-1.571 3.581-3.51-1.603-3.51-3.581-3.51m-5.951 3.51c0-3.221 2.664-5.833 5.951-5.833s5.951 2.612 5.951 5.833-2.664 5.834-5.951 5.834-5.951-2.612-5.951-5.834m-23.662 0c0-.641.53-1.161 1.185-1.161h18.897c.654 0 1.185.52 1.185 1.161 0 .642-.531 1.162-1.185 1.162h-18.897c-.655 0-1.185-.52-1.185-1.162m1.185 70.83c-1.977 0-3.581 1.572-3.581 3.51 0 1.939 1.603 3.51 3.581 3.51s3.581-1.571 3.581-3.51-1.603-3.51-3.581-3.51m-5.951 3.51c0-3.222 2.664-5.833 5.951-5.833s5.951 2.611 5.951 5.833-2.664 5.834-5.951 5.834-5.951-2.612-5.951-5.834m-23.664 0c0-.641.531-1.161 1.185-1.161h18.897c.654 0 1.185.52 1.185 1.161 0 .642-.531 1.162-1.185 1.162h-18.897c-.654 0-1.185-.52-1.185-1.162m-74.734-3.51c-1.978 0-3.581 1.572-3.581 3.51 0 1.939 1.603 3.51 3.58 3.51s3.581-1.571 3.581-3.51-1.603-3.51-3.58-3.51m-5.951 3.51c0-3.222 2.664-5.833 5.95-5.833s5.952 2.611 5.952 5.833-2.665 5.834-5.951 5.834c-3.287 0-5.951-2.612-5.951-5.834m14.295 0c0-.641.53-1.161 1.185-1.161h28.428c.655 0 1.185.52 1.185 1.161 0 .642-.53 1.162-1.185 1.162H44.301c-.655 0-1.186-.52-1.186-1.162M82.182 12.226c-1.978 0-3.581 1.572-3.581 3.51 0 1.939 1.603 3.51 3.58 3.51s3.582-1.571 3.582-3.51-1.604-3.51-3.581-3.51m-5.951 3.51c0-3.222 2.664-5.833 5.95-5.833 3.288 0 5.952 2.611 5.952 5.833s-2.664 5.834-5.951 5.834-5.951-2.612-5.951-5.834m14.295.001c0-.642.53-1.162 1.185-1.162h18.98c.654 0 1.185.52 1.185 1.162s-.531 1.161-1.185 1.161h-18.98c-.655 0-1.185-.52-1.185-1.161m0 69.667c0-.641.53-1.161 1.185-1.161h28.428c.655 0 1.185.52 1.185 1.161 0 .642-.53 1.162-1.185 1.162H91.711c-.655 0-1.185-.52-1.185-1.162m39.064-52.306c.654 0 1.185.52 1.185 1.162v41.883c0 .641-.531 1.161-1.185 1.161-.655 0-1.185-.52-1.185-1.162V34.26c0-.642.53-1.162 1.185-1.162M34.771 112.11c.655 0 1.185.52 1.185 1.162v37.21c0 .642-.53 1.162-1.185 1.162-.654 0-1.185-.52-1.185-1.162v-37.21c0-.642.53-1.162 1.185-1.162"/><path d="M15.874 35.479c-1.946 0-3.523 1.546-3.523 3.453s1.577 3.453 3.523 3.453 3.523-1.546 3.523-3.453-1.577-3.454-3.523-3.454M.5 38.932c0-8.323 6.883-15.07 15.374-15.07s15.374 6.747 15.374 15.07-6.884 15.07-15.374 15.07S.5 47.255.5 38.932m129.087-26.649c-1.946 0-3.523 1.546-3.523 3.454 0 1.907 1.577 3.453 3.523 3.453 1.945 0 3.523-1.546 3.523-3.454 0-1.907-1.578-3.453-3.523-3.453m-15.374 3.454c0-8.323 6.883-15.07 15.374-15.07s15.373 6.746 15.373 15.07c0 8.322-6.883 15.07-15.373 15.07-8.491 0-15.374-6.748-15.374-15.07m-22.25 139.734c-1.854 0-3.356 1.473-3.356 3.29s1.502 3.289 3.356 3.289 3.355-1.473 3.355-3.289-1.502-3.29-3.355-3.29m-15.207 3.29c0-8.233 6.808-14.907 15.207-14.907 8.398 0 15.206 6.674 15.206 14.907 0 8.232-6.808 14.906-15.206 14.906s-15.207-6.674-15.207-14.906" opacity=".4"/></g></symbol><symbol fill="none" viewBox="0 0 174 174" id="notebook" xmlns="http://www.w3.org/2000/svg"><g fill="#69FFA5" fill-rule="evenodd" clip-rule="evenodd"><path d="M31.663 107.16h84.994l16.004 26.486H15.753zm3.463 6.12-8.557 14.246h95.243l-8.608-14.246zm86.703-6.12h19.373l15.91 26.486h-19.373zm10.815 6.12 8.558 14.246h5.095l-8.558-14.246z" opacity=".1"/><path d="M3.805 138.79c0-.563.457-1.02 1.02-1.02H168.04c.564 0 1.02.457 1.02 1.02v8.132a1.02 1.02 0 0 1-1.02 1.02H4.825a1.02 1.02 0 0 1-1.02-1.02zm2.04 1.02v6.092H167.02v-6.092z"/><path d="M24.299 101.593a1.02 1.02 0 0 1 .892-.525h122.411c.371 0 .712.201.892.525l20.366 36.702a1.02 1.02 0 1 1-1.783.99l-20.075-36.177H25.792L5.716 139.285a1.02 1.02 0 1 1-1.784-.99z"/><path d="M24.17 28.613c0-.564.457-1.02 1.02-1.02h122.412c.564 0 1.02.456 1.02 1.02v73.475a1.02 1.02 0 1 1-2.04 0V29.632H26.211v72.456a1.02 1.02 0 1 1-2.04 0z"/><path d="M44.609 53.08c0-.563.456-1.02 1.02-1.02h24.468c.563 0 1.02.457 1.02 1.02v24.468a1.02 1.02 0 0 1-1.02 1.02H45.629a1.02 1.02 0 0 1-1.02-1.02zm2.04 1.02v22.428h22.428V54.1zm34.661-1.02c0-.563.457-1.02 1.02-1.02h40.805a1.02 1.02 0 0 1 0 2.04H82.331a1.02 1.02 0 0 1-1.02-1.02m-.001 12.234c0-.563.457-1.02 1.02-1.02h40.805a1.02 1.02 0 0 1 0 2.04H82.331a1.02 1.02 0 0 1-1.02-1.02m-.001 12.234c0-.563.457-1.02 1.02-1.02h40.805a1.02 1.02 0 0 1 0 2.04H82.331a1.02 1.02 0 0 1-1.02-1.02"/><path d="M147.603 37.814H25.191v-10.2h122.412z" opacity=".4"/></g></symbol><symbol viewBox="0 0 24 24" id="pencil" xmlns="http://www.w3.org/2000/svg"><path d="M21 21h-8m-10.5.5 5.55-2.134c.354-.137.532-.205.698-.294q.221-.12.42-.273c.149-.116.283-.25.552-.52L21 7a2.828 2.828 0 1 0-4-4L5.72 14.28c-.269.269-.403.403-.519.552a3 3 0 0 0-.273.42c-.089.166-.157.344-.294.699zm0 0 2.058-5.351c.147-.383.221-.574.347-.662a.5.5 0 0 1 .38-.08c.15.028.295.173.585.463l2.26 2.26c.29.29.435.435.464.586a.5.5 0 0 1-.08.379c-.089.126-.28.2-.663.347z"/></symbol><symbol fill="none" viewBox="0 0 142 141" id="people" xmlns="http://www.w3.org/2000/svg"><g fill="#69FFA5"><path fill-rule="evenodd" d="M29.375 34.219a5.835 5.835 0 1 0 0 11.67 5.835 5.835 0 0 0 0-11.67m-10.823 5.835c0-5.977 4.846-10.823 10.823-10.823s10.822 4.846 10.822 10.823-4.845 10.822-10.822 10.822-10.823-4.845-10.823-10.822" clip-rule="evenodd" opacity=".1"/><path d="M17.703 94.953c-3.637 0-6.628-3.05-6.628-6.804V71.022c0-6.98 5.572-12.669 12.376-12.669h4.223z" opacity=".1"/><path fill-rule="evenodd" d="M75.945 34.219a5.835 5.835 0 1 0 0 11.67 5.835 5.835 0 0 0 0-11.67m-10.822 5.835c0-5.977 4.845-10.823 10.822-10.823s10.823 4.846 10.823 10.823-4.846 10.822-10.823 10.822-10.822-4.845-10.822-10.822" clip-rule="evenodd" opacity=".1"/><path d="M64.273 94.953c-3.636 0-6.627-3.05-6.627-6.804V71.022c0-6.98 5.572-12.669 12.375-12.669h4.223z" opacity=".1"/><path fill-rule="evenodd" d="M122.457 47.533a5.834 5.834 0 1 0 0 11.669 5.834 5.834 0 0 0 0-11.669m-10.822 5.835c0-5.977 4.845-10.823 10.822-10.823 5.978 0 10.823 4.846 10.823 10.823s-4.845 10.822-10.823 10.822c-5.977 0-10.822-4.845-10.822-10.822" clip-rule="evenodd" opacity=".1"/><path fill-rule="evenodd" d="M23.627 59.185c-6.462 0-11.72 5.258-11.72 11.72v17.361a5.85 5.85 0 0 0 5.854 5.856h13.197c3.246 0 5.914-2.629 5.914-5.856v-17.36c0-6.463-5.258-11.721-11.72-11.721zm-13.383 11.72c0-7.38 6.003-13.383 13.383-13.383h1.525c7.38 0 13.383 6.003 13.383 13.383v17.361c0 4.164-3.432 7.518-7.577 7.518H17.761a7.515 7.515 0 0 1-7.517-7.518zM24.389 35.9a7.497 7.497 0 1 0 0 14.994 7.497 7.497 0 0 0 0-14.995m-9.16 7.497a9.16 9.16 0 1 1 18.32 0 9.16 9.16 0 0 1-18.32 0m54.969 15.789c-6.462 0-11.721 5.258-11.721 11.72v17.361a5.85 5.85 0 0 0 5.855 5.856H77.53c3.232 0 5.86-2.617 5.914-5.862V70.905c0-6.462-5.258-11.72-11.72-11.72zm-13.383 11.72c0-7.38 6.002-13.383 13.383-13.383h1.525c7.38 0 13.383 6.003 13.383 13.383V88.28c-.066 4.14-3.42 7.504-7.577 7.504H64.332a7.515 7.515 0 0 1-7.517-7.518zM70.96 35.9a7.497 7.497 0 1 0 0 14.994 7.497 7.497 0 0 0 0-14.995m-9.16 7.497a9.16 9.16 0 1 1 18.32 0 9.16 9.16 0 0 1-18.32 0m54.968 29.103c-6.462 0-11.721 5.258-11.721 11.72v17.362a5.85 5.85 0 0 0 5.855 5.855h13.197c3.227 0 5.859-2.67 5.914-5.862V84.22c0-6.463-5.258-11.721-11.72-11.721zm-13.383 11.72c0-7.38 6.003-13.383 13.383-13.383h1.525c7.38 0 13.383 6.003 13.383 13.383v17.375c-.066 4.078-3.415 7.505-7.577 7.505h-13.197a7.515 7.515 0 0 1-7.517-7.518zm14.087-35.005a7.498 7.498 0 1 0 0 14.995 7.498 7.498 0 0 0 0-14.995m-9.16 7.497a9.16 9.16 0 1 1 18.32 0 9.16 9.16 0 1 1-18.32 0" clip-rule="evenodd"/><path fill-rule="evenodd" d="M34.36 109.08H14.418v-8.313H34.36zm46.57 0H60.99v-8.313h19.94z" clip-rule="evenodd" opacity=".4"/></g></symbol><symbol fill="none" viewBox="0 0 24 25" id="phone" xmlns="http://www.w3.org/2000/svg"><path d="M8.38 9.353a14.603 14.603 0 0 0 2.847 4.01 14.603 14.603 0 0 0 4.01 2.847c.124.06.187.09.265.112.28.082.625.023.862-.147.067-.047.124-.105.239-.219.35-.35.524-.524.7-.639a2 2 0 0 1 2.18 0c.176.115.35.29.7.64l.195.194c.532.531.797.797.942 1.082a2 2 0 0 1 0 1.806c-.145.285-.41.551-.942 1.082l-.157.158c-.53.53-.795.794-1.155.997-.4.224-1.02.386-1.478.384-.413-.001-.695-.081-1.26-.241a19.038 19.038 0 0 1-8.283-4.874A19.039 19.039 0 0 1 3.17 8.261c-.16-.564-.24-.846-.241-1.26a3.377 3.377 0 0 1 .384-1.477c.202-.36.467-.625.997-1.155l.157-.157c.532-.532.798-.798 1.083-.942a2 2 0 0 1 1.805 0c.286.144.551.41 1.083.942l.195.194c.35.35.524.525.638.7a2 2 0 0 1 0 2.18c-.114.177-.289.352-.638.701-.115.114-.172.172-.22.238-.17.238-.228.582-.147.862.023.08.053.142.113.266Z" stroke="#CED4DA" stroke-width="2" stroke-linecap="round" stroke-linejoin="round"/></symbol><symbol viewBox="0 0 16 16" id="plus" xmlns="http://www.w3.org/2000/svg"><path d="M8 1v14M1 8h14"/></symbol><symbol fill="none" viewBox="0 0 142 141" id="presentations" xmlns="http://www.w3.org/2000/svg"><g fill="#69FFA5"><path d="M106.442 28.43 59.931 81.628H10.017V28.43z" opacity=".1"/><path fill-rule="evenodd" d="M2.558 21.802a.83.83 0 0 1 .83-.831h133.026a.83.83 0 0 1 .831.83v66.513c0 .46-.372.832-.831.832H3.389a.83.83 0 0 1-.831-.832zm1.662.831v64.85h131.363v-64.85z" clip-rule="evenodd"/><path fill-rule="evenodd" d="M55.944 87.788a.83.83 0 0 1 .643-.305h26.629c.234 0 .458.099.615.272l33.198 36.541a.833.833 0 0 1-1.231 1.118l-32.95-36.268H56.98l-29.664 36.236a.832.832 0 0 1-1.286-1.053z" clip-rule="evenodd"/><path fill-rule="evenodd" d="M69.902 87.483a.83.83 0 0 1 .83.831v29.914a.831.831 0 0 1-1.662 0V88.314a.83.83 0 0 1 .832-.83M9.185 28.43c0-.46.372-.832.831-.832h119.711c.46 0 .832.372.832.832v53.198a.83.83 0 0 1-.832.831H10.017a.83.83 0 0 1-.832-.831zm1.663.83v51.537h118.048V29.26z" clip-rule="evenodd"/><path fill-rule="evenodd" d="M103.158 52.528H76.529v-8.313h26.629zm0 13.314H76.529V57.53h26.629zm-54.899-16.54c-4.098 0-7.457 3.36-7.457 7.457a7.446 7.446 0 0 0 7.457 7.457v8.313c-8.761 0-15.77-7.095-15.77-15.77 0-8.689 7.08-15.77 15.77-15.77 8.76 0 15.77 7.095 15.77 15.77h-8.314a7.446 7.446 0 0 0-7.456-7.457" clip-rule="evenodd" opacity=".4"/><path fill-rule="evenodd" d="M55.715 56.7a7.446 7.446 0 0 0-7.456-7.456V40.93c8.76 0 15.77 7.094 15.77 15.77 0 8.76-7.095 15.77-15.77 15.77-8.761 0-15.77-7.096-15.77-15.77h8.313a7.446 7.446 0 0 0 7.457 7.456 7.446 7.446 0 0 0 7.456-7.457" clip-rule="evenodd" opacity=".4"/></g></symbol><symbol fill="none" viewBox="0 0 174 174" id="recruiting" xmlns="http://www.w3.org/2000/svg"><g fill="#69FFA5"><path d="M27.576 108.058c0-6.765 6.405-12.234 14.25-12.234h28.57c7.843 0 14.248 5.541 14.248 12.234m58.22 33.607c-9.5 9.643-24.972 9.499-34.615 0s-9.5-24.972 0-34.615" opacity=".1"/><path fill-rule="evenodd" d="M56.146 55.824c-8.454 0-15.316 6.885-15.316 15.388S47.692 86.6 56.146 86.6s15.316-6.886 15.316-15.388c0-8.503-6.861-15.388-15.316-15.388M38.79 71.212c0-9.621 7.767-17.428 17.356-17.428s17.356 7.807 17.356 17.428c0 9.62-7.766 17.427-17.356 17.427S38.79 80.834 38.79 71.213m3.035 25.631c-7.434 0-13.229 5.154-13.229 11.214a1.02 1.02 0 0 1-2.04 0c0-7.47 7.015-13.254 15.27-13.254h28.57c8.258 0 15.268 5.86 15.268 13.254a1.02 1.02 0 0 1-2.04 0c0-5.991-5.799-11.214-13.229-11.214z" clip-rule="evenodd"/><path fill-rule="evenodd" d="M15.343 27.47a3.004 3.004 0 0 0-3.01 3.01v98.016a3.004 3.004 0 0 0 3.01 3.01H96.95a1.02 1.02 0 1 1 0 2.04H15.343a5.044 5.044 0 0 1-5.05-5.05V30.48a5.043 5.043 0 0 1 5.05-5.05h138.819a5.044 5.044 0 0 1 5.05 5.05v98.016a5.044 5.044 0 0 1-5.05 5.05 1.02 1.02 0 0 1 0-2.04 3.003 3.003 0 0 0 3.01-3.01V30.48a3.003 3.003 0 0 0-3.01-3.01z" clip-rule="evenodd"/><path fill-rule="evenodd" d="M125.448 100.946c-12.907 0-23.376 10.495-23.376 23.448 0 12.952 10.469 23.448 23.376 23.448s23.376-10.496 23.376-23.448-10.468-23.448-23.376-23.448m-25.416 23.448c0-14.074 11.377-25.488 25.416-25.488s25.416 11.414 25.416 25.488-11.376 25.488-25.416 25.488c-14.039 0-25.416-11.415-25.416-25.488" clip-rule="evenodd"/><path fill-rule="evenodd" d="M144.877 138.137a1.02 1.02 0 0 1 1.442 0l17.344 17.344a5.103 5.103 0 0 1 0 7.199 5.1 5.1 0 0 1-7.2 0l-17.343-17.343a1.02 1.02 0 0 1 0-1.442 1.02 1.02 0 0 1 1.442 0l17.344 17.343a3.06 3.06 0 0 0 4.314 0 3.063 3.063 0 0 0 0-4.315l-17.343-17.343a1.02 1.02 0 0 1 0-1.443" clip-rule="evenodd"/><path fill-rule="evenodd" d="M145.67 64.222h-44.618v-10.2h44.618zm0 20.366h-44.618v-10.2h44.618zm12.522-46.921H11.312v-10.2h146.88z" clip-rule="evenodd" opacity=".4"/></g></symbol><symbol fill="none" viewBox="0 0 142 141" id="satisfied" xmlns="http://www.w3.org/2000/svg"><g fill="#69FFA5" fill-rule="evenodd" clip-rule="evenodd"><path d="M70.538 19.333c-28.003 0-50.704 22.701-50.704 50.705s22.7 50.704 50.704 50.704c28.003 0 50.705-22.701 50.705-50.704 0-28.004-22.702-50.705-50.705-50.705M14.846 70.038c0-30.758 24.934-55.693 55.692-55.693S126.23 39.28 126.23 70.038s-24.934 55.692-55.692 55.692-55.692-24.934-55.692-55.692" opacity=".1"/><path d="M70.538 4.356c-36.275 0-65.682 29.407-65.682 65.682 0 36.274 29.407 65.681 65.682 65.681s65.681-29.407 65.681-65.681S106.813 4.356 70.538 4.356M3.194 70.038c0-37.193 30.15-67.344 67.344-67.344s67.344 30.15 67.344 67.344-30.151 67.344-67.344 67.344S3.194 107.231 3.194 70.038"/><path d="M50.596 79.177a.83.83 0 0 1 .83.832c0 10.567 8.544 19.11 19.111 19.11s19.111-8.543 19.111-19.11a.831.831 0 1 1 1.663 0c0 11.486-9.288 20.773-20.774 20.773-11.485 0-20.773-9.287-20.773-20.773 0-.46.372-.832.831-.832m39.826-21.681c-3.173 0-5.797 2.614-5.797 5.855a.831.831 0 0 1-1.662 0c0-4.15 3.359-7.517 7.459-7.517 4.164 0 7.46 3.373 7.46 7.517a.831.831 0 0 1-1.663 0c0-3.245-2.57-5.855-5.797-5.855m-39.884 0c-3.172 0-5.796 2.614-5.796 5.855a.831.831 0 0 1-1.663 0c0-4.15 3.359-7.517 7.46-7.517 4.163 0 7.458 3.373 7.458 7.517a.831.831 0 0 1-1.662 0c0-3.245-2.57-5.855-5.797-5.855"/><path d="M35.821 35.38c-19.14 19.14-19.14 50.234 0 69.374s50.234 19.14 69.374 0 19.14-50.234 0-69.374l5.878-5.878c22.387 22.386 22.387 58.744 0 81.13-22.386 22.386-58.743 22.386-81.13 0s-22.386-58.744 0-81.13z" opacity=".4"/></g></symbol><symbol fill="none" viewBox="0 0 174 174" id="speedometr" xmlns="http://www.w3.org/2000/svg"><g fill="#69FFA5"><path d="M87.354 144.71c31.558 0 57.14-25.583 57.14-57.14s-25.582-57.14-57.14-57.14c-31.557 0-57.14 25.583-57.14 57.14s25.583 57.14 57.14 57.14" opacity=".1"/><path fill-rule="evenodd" d="M87.354 6.982c-44.507 0-80.588 36.08-80.588 80.588s36.08 80.588 80.588 80.588 80.588-36.081 80.588-80.588-36.08-80.588-80.588-80.588M4.727 87.57c0-45.634 36.993-82.628 82.627-82.628s82.628 36.994 82.628 82.628-36.994 82.628-82.628 82.628S4.727 133.204 4.727 87.57" clip-rule="evenodd"/><path fill-rule="evenodd" d="M137.011 37.913a1.02 1.02 0 0 1 0 1.442L71.74 104.627a1.019 1.019 0 1 1-1.443-1.442l65.272-65.272a1.02 1.02 0 0 1 1.442 0" clip-rule="evenodd"/><path fill-rule="evenodd" d="M87.354 84.538a3.032 3.032 0 1 0 0 6.064 3.032 3.032 0 0 0 0-6.064M74.123 87.57c0-7.308 5.924-13.232 13.231-13.232 7.308 0 13.232 5.924 13.232 13.232s-5.924 13.232-13.232 13.232-13.231-5.924-13.231-13.232m13.663-51.68c-28.589 0-52.04 23.365-52.04 51.68h-10.2c0-34.006 28.077-61.88 62.24-61.88 16.455 0 32.285 6.503 43.966 18.106l-7.188 7.236C114.8 41.333 101.557 35.89 87.786 35.89" clip-rule="evenodd" opacity=".4"/></g></symbol><symbol viewBox="0 0 24 24" id="tree-points" xmlns="http://www.w3.org/2000/svg"><path d="M12 13a1 1 0 1 0 0-2 1 1 0 0 0 0 2m7 0a1 1 0 1 0 0-2 1 1 0 0 0 0 2M5 13a1 1 0 1 0 0-2 1 1 0 0 0 0 2"/></symbol><symbol fill="none" viewBox="0 0 179 172" id="triangle" xmlns="http://www.w3.org/2000/svg"><g clip-path="url(#bda)"><mask id="bdb" style="mask-type:luminance" maskUnits="userSpaceOnUse" x="0" y="0" width="179" height="172"><path d="M178.818.097H.468v171.779h178.35V.096Z" fill="#fff"/></mask><g mask="url(#bdb)"><path fill-rule="evenodd" clip-rule="evenodd" d="M.468.097v42.945l89.175 42.945L.468 128.93v42.945l89.175-42.945v42.945l89.175-42.945V43.042L89.643.097v42.945L.468.097Zm89.175 42.945V128.93l89.175-42.945-89.175-42.944Z" fill="url(#bdc)"/></g></g><defs><linearGradient id="bdc" x1="89.643" y1=".097" x2="89.643" y2="171.876" gradientUnits="userSpaceOnUse"><stop stop-color="#67F185" stop-opacity=".8"/><stop offset=".805" stop-color="#84E0ED" stop-opacity=".55"/></linearGradient><clipPath id="bda"><path fill="#fff" transform="translate(.468 .097)" d="M0 0h178.35v171.78H0z"/></clipPath></defs></symbol><symbol fill="none" viewBox="0 0 180 172" id="wave" xmlns="http://www.w3.org/2000/svg"><g clip-path="url(#bea)"><mask id="beb" style="mask-type:luminance" maskUnits="userSpaceOnUse" x="0" y="0" width="180" height="172"><path d="M179.321.097H.032v171.779h179.289V.096Z" fill="#fff"/></mask><g mask="url(#beb)"><path fill-rule="evenodd" clip-rule="evenodd" d="M89.677 28.994c-6.478 0-11.73 5.032-11.73 11.238h-30.16c0-22.166 18.755-40.135 41.89-40.135s41.89 17.969 41.89 40.135c0 22.166-18.755 40.136-41.89 40.136V51.47c6.477 0 11.729-5.031 11.729-11.238 0-6.206-5.252-11.238-11.73-11.238Zm59.483 56.993c0-6.207-5.251-11.238-11.729-11.238V45.85c23.136 0 41.89 17.97 41.89 40.136 0 22.166-18.754 40.135-41.89 40.135-23.135 0-41.89-17.969-41.89-40.135h30.161c0 6.206 5.252 11.237 11.729 11.237 6.478 0 11.729-5.031 11.729-11.237ZM41.922 97.224c-6.478 0-11.729-5.031-11.729-11.237 0-6.207 5.251-11.238 11.73-11.238 6.477 0 11.728 5.03 11.728 11.238h30.161c0-22.167-18.755-40.136-41.89-40.136S.032 63.821.032 85.987c0 22.166 18.755 40.135 41.89 40.135V97.224Zm47.755 45.755c6.477 0 11.729-5.032 11.729-11.238h30.161c0 22.166-18.755 40.135-41.89 40.135s-41.89-17.969-41.89-40.135c0-22.167 18.755-40.136 41.89-40.136v28.898c-6.478 0-11.73 5.031-11.73 11.238 0 6.206 5.252 11.238 11.73 11.238Z" fill="url(#bec)"/></g></g><defs><linearGradient id="bec" x1="89.677" y1=".097" x2="89.677" y2="171.876" gradientUnits="userSpaceOnUse"><stop stop-color="#67F185" stop-opacity=".8"/><stop offset=".805" stop-color="#84E0ED" stop-opacity=".55"/></linearGradient><clipPath id="bea"><path fill="#fff" transform="translate(.032 .097)" d="M0 0h179.289v171.78H0z"/></clipPath></defs></symbol><symbol viewBox="0 0 24 24" id="youtube" xmlns="http://www.w3.org/2000/svg"><path d="M23.76 7.2s-.233-1.655-.955-2.381c-.914-.956-1.936-.961-2.405-1.017-3.356-.244-8.395-.244-8.395-.244h-.01s-5.039 0-8.395.244c-.469.056-1.49.06-2.405 1.017C.473 5.545.244 7.2.244 7.2S0 9.145 0 11.086v1.819c0 1.94.24 3.886.24 3.886s.233 1.654.95 2.38c.915.957 2.115.924 2.65 1.027 1.92.183 8.16.24 8.16.24s5.044-.01 8.4-.249c.469-.056 1.49-.06 2.405-1.017.722-.727.956-2.381.956-2.381S24 14.85 24 12.905v-1.819c0-1.94-.24-3.886-.24-3.886M9.52 15.113V8.367l6.483 3.385z"/></symbol></svg>