<svg width="139" height="28" viewBox="0 0 139 28" fill="none" xmlns="http://www.w3.org/2000/svg">
<g clip-path="url(#clip0_228_1161)">
<path d="M0.167969 19.6645H17.6388L0.167969 2.81763V19.6645Z" stroke="url(#paint0_linear_228_1161)" stroke-width="0.70202"/>
<path d="M2.04297 17.9877H13.4538L2.04297 7.42822V17.9877Z" stroke="url(#paint1_linear_228_1161)" stroke-width="0.70202"/>
<path d="M3.16797 16.8772H10.0827L3.16797 10.3931V16.8772Z" stroke="url(#paint2_linear_228_1161)" stroke-width="0.70202"/>
<path d="M4.29297 15.7667H7.81886L4.29297 12.6028V15.7667Z" stroke="url(#paint3_linear_228_1161)" stroke-width="0.70202"/>
<path d="M17.8911 2.16699V19.4146L0.826172 2.16699H17.8911Z" stroke="url(#paint4_linear_228_1161)" stroke-width="0.70202"/>
<path d="M16.1922 4.01807V15.283L5.49609 4.01807H16.1922Z" stroke="url(#paint5_linear_228_1161)" stroke-width="0.70202"/>
<path d="M15.0681 5.12866V11.955L8.5 5.12866H15.0681Z" stroke="url(#paint6_linear_228_1161)" stroke-width="0.70202"/>
<path d="M13.9432 6.23926V9.72006L10.7383 6.23926H13.9432Z" stroke="url(#paint7_linear_228_1161)" stroke-width="0.70202"/>
<path d="M26.8125 21.257H23.4043V0.310547H26.8125V21.257ZM36.5232 4.8297H38.3943C39.7533 4.8297 40.7333 5.09359 41.3347 5.62137C41.9586 6.14916 42.2703 7.08376 42.2703 8.42522V21.257H38.9958V7.83147C38.9958 7.58958 38.8732 7.46862 38.6282 7.46862H34.0172C33.7723 7.46862 33.6496 7.58958 33.6496 7.83147L33.683 21.257H30.4086L30.3752 5.09359H33.2822L33.6496 7.46862L33.3824 8.09536C33.3824 7.01779 33.6272 6.20414 34.1174 5.65436C34.6297 5.10457 35.4316 4.8297 36.5232 4.8297ZM52.5627 5.09359V7.63355H48.4194L48.7535 7.30368V18.1892C48.7535 18.4091 48.8761 18.5191 49.1211 18.5191H52.5627V21.257H50.0901C48.4642 21.257 47.2833 20.9491 46.5482 20.3333C45.8355 19.7176 45.479 18.673 45.479 17.1996V7.30368L45.8131 7.63355H43.5744V5.09359H45.8131L45.479 5.42345V0.97028H48.7535V5.42345L48.4194 5.09359H52.5627ZM59.6423 4.8297H61.1793V7.66653H57.1363C56.8914 7.66653 56.7687 7.77648 56.7687 7.9964L56.8022 21.257H53.5276L53.4942 5.09359H56.4012L56.7687 7.46862L56.5014 8.09536C56.5014 7.01779 56.7464 6.20414 57.2365 5.65436C57.7488 5.10457 58.5507 4.8297 59.6423 4.8297ZM72.982 21.4549H66.2993C64.673 21.4549 63.4925 21.147 62.7574 20.5313C62.0444 19.8935 61.6882 18.849 61.6882 17.3975V8.7221C61.6882 7.22673 62 6.20414 62.6238 5.65436C63.2473 5.10457 64.3279 4.8297 65.8649 4.8297H69.1394C70.6764 4.8297 71.7677 5.10457 72.4139 5.65436C73.0598 6.20414 73.3829 7.22673 73.3829 8.7221V15.0225H64.5952V12.6805H70.1418V7.83147C70.1418 7.58958 70.0192 7.46862 69.7743 7.46862H65.3303C65.1074 7.46862 64.9961 7.58958 64.9961 7.83147V18.3542C64.9961 18.596 65.1074 18.717 65.3303 18.717H72.982V21.4549ZM81.9882 21.3559H75.0716L75.0382 18.717H82.2555C82.5008 18.717 82.6231 18.596 82.6231 18.3542V14.6927C82.6231 14.4508 82.5008 14.3298 82.2555 14.3298H79.0478C77.5108 14.3298 76.4082 14.0549 75.7399 13.5051C75.094 12.9334 74.7709 11.9438 74.7709 10.5364V8.78808C74.7709 7.31467 75.1164 6.29209 75.8067 5.72033C76.4974 5.12657 77.6 4.8297 79.1147 4.8297L85.0288 4.86268V7.56757H78.4464C78.2239 7.56757 78.1123 7.68854 78.1123 7.93043V11.394C78.1123 11.6359 78.2239 11.7569 78.4464 11.7569H81.6207C83.1801 11.7569 84.2827 12.0317 84.9286 12.5815C85.5748 13.1313 85.8976 14.1209 85.8976 15.5503V17.7604C85.8976 19.0799 85.5858 20.0145 84.962 20.5643C84.3385 21.092 83.3471 21.3559 81.9882 21.3559ZM93.3729 4.8297H94.8765C96.2578 4.8297 97.2488 5.09359 97.8503 5.62137C98.4741 6.14916 98.7858 7.08376 98.7858 8.42522V21.257H95.5113V7.83147C95.5113 7.58958 95.389 7.46862 95.1438 7.46862H90.8334C90.6109 7.46862 90.4993 7.58958 90.4993 7.83147L90.5327 21.257H87.2248L87.1914 5.09359H90.1318L90.4993 7.46862L90.1986 8.09536C90.1986 7.01779 90.4438 6.20414 90.9337 5.65436C91.4462 5.10457 92.2592 4.8297 93.3729 4.8297ZM101.659 4.8297H103.163C104.522 4.8297 105.502 5.09359 106.103 5.62137C106.727 6.14916 107.039 7.08376 107.039 8.42522V21.257H103.764V7.83147C103.764 7.58958 103.642 7.46862 103.397 7.46862H99.1534C98.9085 7.46862 98.7858 7.58958 98.7858 7.83147L98.6856 8.52418L98.5185 8.09536C98.5185 7.01779 98.7638 6.20414 99.2536 5.65436C99.7662 5.10457 100.568 4.8297 101.659 4.8297ZM113.976 21.5209H112.306C110.969 21.5209 109.989 21.257 109.365 20.7292C108.741 20.1794 108.43 19.2448 108.43 17.9253V15.5503C108.43 14.1209 108.753 13.1313 109.399 12.5815C110.045 12.0317 111.136 11.7569 112.673 11.7569H117.217V14.1319H112.038C111.793 14.1319 111.671 14.2418 111.671 14.4618V18.5191C111.671 18.761 111.793 18.8819 112.038 18.8819H116.816V8.12835C116.816 7.90842 116.694 7.79848 116.449 7.79848H109.432V5.0606H115.781C117.34 5.0386 118.454 5.32449 119.122 5.91825C119.813 6.51201 120.158 7.54557 120.158 9.01898V21.257H117.184L116.816 18.8819L117.017 18.2552C117.017 19.3108 116.783 20.1244 116.315 20.6962C115.847 21.246 115.068 21.5209 113.976 21.5209ZM128.571 4.8297H130.108V7.66653H126.065C125.82 7.66653 125.697 7.77648 125.697 7.9964L125.73 21.257H122.456L122.423 5.09359H125.329L125.697 7.46862L125.43 8.09536C125.43 7.01779 125.675 6.20414 126.165 5.65436C126.677 5.10457 127.479 4.8297 128.571 4.8297ZM138.999 5.09359V7.63355H134.856L135.19 7.30368V18.1892C135.19 18.4091 135.313 18.5191 135.558 18.5191H138.999V21.257H136.527C134.9 21.257 133.72 20.9491 132.985 20.3333C132.272 19.7176 131.916 18.673 131.916 17.1996V7.30368L132.25 7.63355H130.011V5.09359H132.25L131.916 5.42345V0.97028H135.19V5.42345L134.856 5.09359H138.999Z" fill="white"/>
<mask id="mask0_228_1161" style="mask-type:luminance" maskUnits="userSpaceOnUse" x="23" y="0" width="116" height="22">
<path d="M26.8125 21.257H23.4043V0.310547H26.8125V21.257ZM36.5232 4.8297H38.3943C39.7533 4.8297 40.7333 5.09359 41.3347 5.62137C41.9586 6.14916 42.2703 7.08376 42.2703 8.42522V21.257H38.9958V7.83147C38.9958 7.58958 38.8732 7.46862 38.6282 7.46862H34.0172C33.7723 7.46862 33.6496 7.58958 33.6496 7.83147L33.683 21.257H30.4086L30.3752 5.09359H33.2822L33.6496 7.46862L33.3824 8.09536C33.3824 7.01779 33.6272 6.20414 34.1174 5.65436C34.6297 5.10457 35.4316 4.8297 36.5232 4.8297ZM52.5627 5.09359V7.63355H48.4194L48.7535 7.30368V18.1892C48.7535 18.4091 48.8761 18.5191 49.1211 18.5191H52.5627V21.257H50.0901C48.4642 21.257 47.2833 20.9491 46.5482 20.3333C45.8355 19.7176 45.479 18.673 45.479 17.1996V7.30368L45.8131 7.63355H43.5744V5.09359H45.8131L45.479 5.42345V0.97028H48.7535V5.42345L48.4194 5.09359H52.5627ZM59.6423 4.8297H61.1793V7.66653H57.1363C56.8914 7.66653 56.7687 7.77648 56.7687 7.9964L56.8022 21.257H53.5276L53.4942 5.09359H56.4012L56.7687 7.46862L56.5014 8.09536C56.5014 7.01779 56.7464 6.20414 57.2365 5.65436C57.7488 5.10457 58.5507 4.8297 59.6423 4.8297ZM72.982 21.4549H66.2993C64.673 21.4549 63.4925 21.147 62.7574 20.5313C62.0444 19.8935 61.6882 18.849 61.6882 17.3975V8.7221C61.6882 7.22673 62 6.20414 62.6238 5.65436C63.2473 5.10457 64.3279 4.8297 65.8649 4.8297H69.1394C70.6764 4.8297 71.7677 5.10457 72.4139 5.65436C73.0598 6.20414 73.3829 7.22673 73.3829 8.7221V15.0225H64.5952V12.6805H70.1418V7.83147C70.1418 7.58958 70.0192 7.46862 69.7743 7.46862H65.3303C65.1074 7.46862 64.9961 7.58958 64.9961 7.83147V18.3542C64.9961 18.596 65.1074 18.717 65.3303 18.717H72.982V21.4549ZM81.9882 21.3559H75.0716L75.0382 18.717H82.2555C82.5008 18.717 82.6231 18.596 82.6231 18.3542V14.6927C82.6231 14.4508 82.5008 14.3298 82.2555 14.3298H79.0478C77.5108 14.3298 76.4082 14.0549 75.7399 13.5051C75.094 12.9334 74.7709 11.9438 74.7709 10.5364V8.78808C74.7709 7.31467 75.1164 6.29209 75.8067 5.72033C76.4974 5.12657 77.6 4.8297 79.1147 4.8297L85.0288 4.86268V7.56757H78.4464C78.2239 7.56757 78.1123 7.68854 78.1123 7.93043V11.394C78.1123 11.6359 78.2239 11.7569 78.4464 11.7569H81.6207C83.1801 11.7569 84.2827 12.0317 84.9286 12.5815C85.5748 13.1313 85.8976 14.1209 85.8976 15.5503V17.7604C85.8976 19.0799 85.5858 20.0145 84.962 20.5643C84.3385 21.092 83.3471 21.3559 81.9882 21.3559ZM93.3729 4.8297H94.8765C96.2578 4.8297 97.2488 5.09359 97.8503 5.62137C98.4741 6.14916 98.7858 7.08376 98.7858 8.42522V21.257H95.5113V7.83147C95.5113 7.58958 95.389 7.46862 95.1438 7.46862H90.8334C90.6109 7.46862 90.4993 7.58958 90.4993 7.83147L90.5327 21.257H87.2248L87.1914 5.09359H90.1318L90.4993 7.46862L90.1986 8.09536C90.1986 7.01779 90.4438 6.20414 90.9337 5.65436C91.4462 5.10457 92.2592 4.8297 93.3729 4.8297ZM101.659 4.8297H103.163C104.522 4.8297 105.502 5.09359 106.103 5.62137C106.727 6.14916 107.039 7.08376 107.039 8.42522V21.257H103.764V7.83147C103.764 7.58958 103.642 7.46862 103.397 7.46862H99.1534C98.9085 7.46862 98.7858 7.58958 98.7858 7.83147L98.6856 8.52418L98.5185 8.09536C98.5185 7.01779 98.7638 6.20414 99.2536 5.65436C99.7662 5.10457 100.568 4.8297 101.659 4.8297ZM113.976 21.5209H112.306C110.969 21.5209 109.989 21.257 109.365 20.7292C108.741 20.1794 108.43 19.2448 108.43 17.9253V15.5503C108.43 14.1209 108.753 13.1313 109.399 12.5815C110.045 12.0317 111.136 11.7569 112.673 11.7569H117.217V14.1319H112.038C111.793 14.1319 111.671 14.2418 111.671 14.4618V18.5191C111.671 18.761 111.793 18.8819 112.038 18.8819H116.816V8.12835C116.816 7.90842 116.694 7.79848 116.449 7.79848H109.432V5.0606H115.781C117.34 5.0386 118.454 5.32449 119.122 5.91825C119.813 6.51201 120.158 7.54557 120.158 9.01898V21.257H117.184L116.816 18.8819L117.017 18.2552C117.017 19.3108 116.783 20.1244 116.315 20.6962C115.847 21.246 115.068 21.5209 113.976 21.5209ZM128.571 4.8297H130.108V7.66653H126.065C125.82 7.66653 125.697 7.77648 125.697 7.9964L125.73 21.257H122.456L122.423 5.09359H125.329L125.697 7.46862L125.43 8.09536C125.43 7.01779 125.675 6.20414 126.165 5.65436C126.677 5.10457 127.479 4.8297 128.571 4.8297ZM138.999 5.09359V7.63355H134.856L135.19 7.30368V18.1892C135.19 18.4091 135.313 18.5191 135.558 18.5191H138.999V21.257H136.527C134.9 21.257 133.72 20.9491 132.985 20.3333C132.272 19.7176 131.916 18.673 131.916 17.1996V7.30368L132.25 7.63355H130.011V5.09359H132.25L131.916 5.42345V0.97028H135.19V5.42345L134.856 5.09359H138.999Z" fill="white"/>
</mask>
<g mask="url(#mask0_228_1161)">
<path d="M26.8126 21.257V21.5869H27.1468V21.257H26.8126ZM23.4044 21.257H23.0703V21.5869H23.4044V21.257ZM23.4044 0.310578V-0.0192871H23.0703V0.310578H23.4044ZM26.8126 0.310578H27.1468V-0.0192871H26.8126V0.310578ZM41.3349 5.6214L41.113 5.86794L41.1154 5.86992L41.1174 5.87187L41.3349 5.6214ZM42.2705 21.257V21.5869H42.6046V21.257H42.2705ZM38.9959 21.257H38.6618V21.5869H38.9959V21.257ZM33.6498 7.8315H33.3157V7.83232L33.6498 7.8315ZM33.6832 21.257V21.5869H34.0183L34.0173 21.2562L33.6832 21.257ZM30.4087 21.257L30.0746 21.2577L30.0753 21.5869H30.4087V21.257ZM30.3753 5.09362V4.76375H30.0405L30.0412 5.09428L30.3753 5.09362ZM33.2823 5.09362L33.6127 5.04381L33.5693 4.76375H33.2823V5.09362ZM33.6498 7.46865L33.9579 7.59667L33.9943 7.51087L33.9802 7.41884L33.6498 7.46865ZM33.3825 8.09539H33.0484L33.6905 8.22341L33.3825 8.09539ZM34.1176 5.65439L33.8716 5.43107L33.8693 5.43374L33.8666 5.43648L34.1176 5.65439ZM52.5628 5.09362H52.8969V4.76375H52.5628V5.09362ZM52.5628 7.63358V7.96344H52.8969V7.63358H52.5628ZM48.4195 7.63358L48.1833 7.40033L47.6129 7.96344H48.4195V7.63358ZM48.7537 7.30371H49.0878V6.50735L48.5174 7.07047L48.7537 7.30371ZM52.5628 18.5191H52.8969V18.1893H52.5628V18.5191ZM52.5628 21.257V21.5869H52.8969V21.257H52.5628ZM46.5484 20.3334L46.3285 20.5816L46.3302 20.5833L46.3322 20.5849L46.5484 20.3334ZM45.4792 7.30371L45.7154 7.07047L45.145 6.50735V7.30371H45.4792ZM45.8133 7.63358V7.96344H46.6199L46.0495 7.40033L45.8133 7.63358ZM43.5746 7.63358H43.2404V7.96344H43.5746V7.63358ZM43.5746 5.09362V4.76375H43.2404V5.09362H43.5746ZM45.8133 5.09362L46.0495 5.32687L46.6199 4.76375H45.8133V5.09362ZM45.4792 5.42348H45.145V6.21984L45.7154 5.65673L45.4792 5.42348ZM45.4792 0.970311V0.640446H45.145V0.970311H45.4792ZM48.7537 0.970311H49.0878V0.640446H48.7537V0.970311ZM48.7537 5.42348L48.5174 5.65673L49.0878 6.21984V5.42348H48.7537ZM48.4195 5.09362V4.76375H47.6129L48.1833 5.32687L48.4195 5.09362ZM61.1795 4.82973H61.5136V4.49986H61.1795V4.82973ZM61.1795 7.66657V7.99643H61.5136V7.66657H61.1795ZM56.7689 7.99643H56.4348V7.99726L56.7689 7.99643ZM56.8023 21.257V21.5869H57.1371L57.1364 21.2562L56.8023 21.257ZM53.5278 21.257L53.1936 21.2577L53.1943 21.5869H53.5278V21.257ZM53.4944 5.09362V4.76375H53.1596L53.1602 5.09428L53.4944 5.09362ZM56.4013 5.09362L56.7315 5.04381L56.6884 4.76375H56.4013V5.09362ZM56.7689 7.46865L57.0766 7.59663L57.1134 7.51084L57.099 7.41884L56.7689 7.46865ZM56.5016 8.09539H56.1674L56.8093 8.22338L56.5016 8.09539ZM57.2367 5.65439L56.9908 5.43107L56.9881 5.43378L56.9857 5.43648L57.2367 5.65439ZM72.9821 21.4549V21.7848H73.3162V21.4549H72.9821ZM62.7576 20.5313L62.533 20.7758L62.5371 20.7794L62.5414 20.7828L62.7576 20.5313ZM73.3831 15.0226V15.3524H73.7172V15.0226H73.3831ZM64.5953 15.0226H64.2612V15.3524H64.5953V15.0226ZM64.5953 12.6805V12.3506H64.2612V12.6805H64.5953ZM70.142 12.6805V13.0104H70.4761V12.6805H70.142ZM72.9821 18.717H73.3162V18.3872H72.9821V18.717ZM75.0718 21.356L74.7377 21.3601L74.7417 21.6858H75.0718V21.356ZM75.0384 18.717V18.3872H74.6999L74.7042 18.7212L75.0384 18.717ZM75.7401 13.5052L75.5169 13.7508L75.5215 13.7548L75.5259 13.7586L75.7401 13.5052ZM75.8069 5.72036L76.0214 5.97307L76.0237 5.97113L76.0261 5.96911L75.8069 5.72036ZM79.1148 4.82973L79.1165 4.49986H79.1148V4.82973ZM85.029 4.86271H85.3631V4.5347L85.0307 4.53285L85.029 4.86271ZM85.029 7.56761V7.89747H85.3631V7.56761H85.029ZM84.9622 20.5643L85.1797 20.8147L85.182 20.8125L85.1847 20.8104L84.9622 20.5643ZM97.8504 5.6214L97.6282 5.86794L97.6305 5.86992L97.6329 5.87187L97.8504 5.6214ZM98.786 21.257V21.5869H99.1201V21.257H98.786ZM95.5115 21.257H95.1773V21.5869H95.5115V21.257ZM90.4994 7.8315H90.1653V7.83232L90.4994 7.8315ZM90.5329 21.257V21.5869H90.8677L90.867 21.2562L90.5329 21.257ZM87.2249 21.257L86.8908 21.2577L86.8915 21.5869H87.2249V21.257ZM87.1915 5.09362V4.76375H86.8567L86.8574 5.09428L87.1915 5.09362ZM90.1319 5.09362L90.462 5.04381L90.4186 4.76375H90.1319V5.09362ZM90.4994 7.46865L90.8012 7.60986L90.8449 7.51862L90.8296 7.41884L90.4994 7.46865ZM90.1987 8.09539H89.8646L90.5005 8.2366L90.1987 8.09539ZM90.9338 5.65439L90.6879 5.43101L90.6852 5.43374L90.6829 5.43655L90.9338 5.65439ZM106.104 5.6214L105.881 5.86794L105.884 5.86992L105.886 5.87187L106.104 5.6214ZM107.039 21.257V21.5869H107.373V21.257H107.039ZM103.765 21.257H103.43V21.5869H103.765V21.257ZM98.786 7.8315L99.1168 7.87814L99.1201 7.85495V7.8315H98.786ZM98.6857 8.52421L98.3737 8.64264L98.8348 9.82596L99.0165 8.57086L98.6857 8.52421ZM98.5187 8.09539H98.1845V8.15665L98.2066 8.21381L98.5187 8.09539ZM99.2538 5.65439L99.0079 5.43101L99.0052 5.43374L99.0028 5.43655L99.2538 5.65439ZM109.365 20.7292L109.143 20.9753L109.145 20.9775L109.148 20.9797L109.365 20.7292ZM117.218 11.7569H117.552V11.427H117.218V11.7569ZM117.218 14.1319V14.4618H117.552V14.1319H117.218ZM109.432 7.79851H109.098V8.12838H109.432V7.79851ZM109.432 5.06063V4.73077H109.098V5.06063H109.432ZM115.781 5.06063V5.3905H115.783L115.785 5.39046L115.781 5.06063ZM119.122 5.91828L118.899 6.16347L118.901 6.16528L118.903 6.16703L119.122 5.91828ZM120.158 21.257V21.5869H120.492V21.257H120.158ZM117.184 21.257L116.854 21.3068L116.897 21.5869H117.184V21.257ZM117.017 18.2552H117.351L116.698 18.1559L117.017 18.2552ZM116.315 20.6962L116.571 20.9084L116.573 20.906L116.575 20.9035L116.315 20.6962ZM130.108 4.82973H130.442V4.49986H130.108V4.82973ZM130.108 7.66657V7.99643H130.442V7.66657H130.108ZM125.697 7.99643H125.363V7.99726L125.697 7.99643ZM125.731 21.257V21.5869H126.065L126.065 21.2562L125.731 21.257ZM122.456 21.257L122.122 21.2577L122.123 21.5869H122.456V21.257ZM122.423 5.09362V4.76375H122.088L122.089 5.09428L122.423 5.09362ZM125.33 5.09362L125.66 5.04381L125.616 4.76375H125.33V5.09362ZM125.697 7.46865L126.005 7.59667L126.042 7.51087L126.027 7.41884L125.697 7.46865ZM125.43 8.09539H125.096L125.738 8.22341L125.43 8.09539ZM126.165 5.65439L125.919 5.43101L125.916 5.43374L125.914 5.43655L126.165 5.65439ZM138.999 5.09362H139.334V4.76375H138.999V5.09362ZM138.999 7.63358V7.96344H139.334V7.63358H138.999ZM134.856 7.63358L134.62 7.40033L134.049 7.96344H134.856V7.63358ZM135.19 7.30371H135.524V6.50735L134.954 7.07047L135.19 7.30371ZM138.999 18.5191H139.334V18.1893H138.999V18.5191ZM138.999 21.257V21.5869H139.334V21.257H138.999ZM132.985 20.3334L132.765 20.5816L132.767 20.5833L132.769 20.5849L132.985 20.3334ZM131.916 7.30371L132.152 7.07047L131.582 6.50735V7.30371H131.916ZM132.25 7.63358V7.96344H133.056L132.486 7.40033L132.25 7.63358ZM130.011 7.63358H129.677V7.96344H130.011V7.63358ZM130.011 5.09362V4.76375H129.677V5.09362H130.011ZM132.25 5.09362L132.486 5.32687L133.056 4.76375H132.25V5.09362ZM131.916 5.42348H131.582V6.21984L132.152 5.65673L131.916 5.42348ZM131.916 0.970311V0.640446H131.582V0.970311H131.916ZM135.19 0.970311H135.524V0.640446H135.19V0.970311ZM135.19 5.42348L134.954 5.65673L135.524 6.21984V5.42348H135.19ZM134.856 5.09362V4.76375H134.049L134.62 5.32687L134.856 5.09362ZM26.8126 20.9271H23.4044V21.5869H26.8126V20.9271ZM23.7386 21.257V0.310578H23.0703V21.257H23.7386ZM23.4044 0.640443H26.8126V-0.0192871H23.4044V0.640443ZM26.4785 0.310578V21.257H27.1468V0.310578H26.4785ZM36.5233 5.15959H38.3945V4.49986H36.5233V5.15959ZM38.3945 5.15959C39.7237 5.15959 40.6028 5.42025 41.113 5.86794L41.5571 5.37486C40.8641 4.76699 39.7832 4.49986 38.3945 4.49986V5.15959ZM41.1174 5.87187C41.6303 6.30584 41.9363 7.11886 41.9363 8.42525H42.6046C42.6046 7.04873 42.2868 5.99253 41.5524 5.37094L41.1174 5.87187ZM41.9363 8.42525V21.257H42.6046V8.42525H41.9363ZM42.2705 20.9271H38.9959V21.5869H42.2705V20.9271ZM39.3301 21.257V7.8315H38.6618V21.257H39.3301ZM39.3301 7.8315C39.3301 7.6597 39.2863 7.47026 39.1403 7.32611C38.9943 7.18196 38.8025 7.13878 38.6284 7.13878V7.79851C38.6628 7.79851 38.6795 7.80287 38.6835 7.80425C38.6862 7.80511 38.6782 7.80267 38.6678 7.79261C38.6578 7.78255 38.6551 7.7745 38.6561 7.77707C38.6575 7.78126 38.6618 7.79752 38.6618 7.8315H39.3301ZM38.6284 7.13878H34.0173V7.79851H38.6284V7.13878ZM34.0173 7.13878C33.8432 7.13878 33.6515 7.18196 33.5054 7.32611C33.3595 7.47026 33.3157 7.6597 33.3157 7.8315H33.9839C33.9839 7.79752 33.9883 7.78126 33.9899 7.77707C33.9906 7.7745 33.9883 7.78255 33.9779 7.79261C33.9679 7.80267 33.9595 7.80511 33.9622 7.80425C33.9665 7.80287 33.9829 7.79851 34.0173 7.79851V7.13878ZM33.3157 7.83232L33.3491 21.2578L34.0173 21.2562L33.9839 7.83067L33.3157 7.83232ZM33.6832 20.9271H30.4087V21.5869H33.6832V20.9271ZM30.7429 21.2563L30.7095 5.09296L30.0412 5.09428L30.0746 21.2577L30.7429 21.2563ZM30.3753 5.42348H33.2823V4.76375H30.3753V5.42348ZM32.952 5.14343L33.3195 7.51846L33.9802 7.41884L33.6127 5.04381L32.952 5.14343ZM33.3419 7.34063L33.0746 7.96737L33.6905 8.22341L33.9579 7.59667L33.3419 7.34063ZM33.7166 8.09539C33.7166 7.06107 33.9525 6.33896 34.3685 5.8723L33.8666 5.43648C33.3026 6.06939 33.0484 6.97458 33.0484 8.09539H33.7166ZM34.3635 5.87771C34.7888 5.42131 35.4832 5.15959 36.5233 5.15959V4.49986C35.3806 4.49986 34.4711 4.7879 33.8716 5.43107L34.3635 5.87771ZM52.2287 5.09362V7.63358H52.8969V5.09362H52.2287ZM52.5628 7.30371H48.4195V7.96344H52.5628V7.30371ZM48.6558 7.86683L48.9899 7.53696L48.5174 7.07047L48.1833 7.40033L48.6558 7.86683ZM48.4195 7.30371V18.1893H49.0878V7.30371H48.4195ZM48.4195 18.1893C48.4195 18.3586 48.4683 18.5438 48.621 18.6808C48.7674 18.8123 48.9548 18.849 49.1212 18.849V18.1893C49.0845 18.1893 49.0647 18.185 49.0574 18.1828C49.0514 18.181 49.0591 18.1823 49.0704 18.1926C49.0758 18.1975 49.0805 18.203 49.0845 18.2086C49.0881 18.2141 49.0898 18.2183 49.0905 18.22C49.0915 18.223 49.0878 18.2149 49.0878 18.1893H48.4195ZM49.1212 18.849H52.5628V18.1893H49.1212V18.849ZM52.2287 18.5191V21.257H52.8969V18.5191H52.2287ZM52.5628 20.9271H50.0902V21.5869H52.5628V20.9271ZM50.0902 20.9271C48.4934 20.9271 47.4098 20.6223 46.7646 20.0819L46.3322 20.5849C47.1572 21.2759 48.4349 21.5869 50.0902 21.5869V20.9271ZM46.7686 20.0851C46.1611 19.5605 45.8133 18.6321 45.8133 17.1997H45.145C45.145 18.714 45.5102 19.8747 46.3285 20.5816L46.7686 20.0851ZM45.8133 17.1997V7.30371H45.145V17.1997H45.8133ZM45.2429 7.53696L45.5771 7.86683L46.0495 7.40033L45.7154 7.07047L45.2429 7.53696ZM45.8133 7.30371H43.5746V7.96344H45.8133V7.30371ZM43.9087 7.63358V5.09362H43.2404V7.63358H43.9087ZM43.5746 5.42348H45.8133V4.76375H43.5746V5.42348ZM45.5771 4.86037L45.2429 5.19024L45.7154 5.65673L46.0495 5.32687L45.5771 4.86037ZM45.8133 5.42348V0.970311H45.145V5.42348H45.8133ZM45.4792 1.30018H48.7537V0.640446H45.4792V1.30018ZM48.4195 0.970311V5.42348H49.0878V0.970311H48.4195ZM48.9899 5.19024L48.6558 4.86037L48.1833 5.32687L48.5174 5.65673L48.9899 5.19024ZM48.4195 5.42348H52.5628V4.76375H48.4195V5.42348ZM59.6424 5.15959H61.1795V4.49986H59.6424V5.15959ZM60.8453 4.82973V7.66657H61.5136V4.82973H60.8453ZM61.1795 7.3367H57.1364V7.99643H61.1795V7.3367ZM57.1364 7.3367C56.9697 7.3367 56.7826 7.37341 56.6359 7.50493C56.4832 7.64186 56.4348 7.82701 56.4348 7.99643H57.103C57.103 7.97087 57.1067 7.96272 57.1054 7.96572C57.1047 7.9675 57.103 7.97169 57.0993 7.97717C57.0957 7.98274 57.091 7.98825 57.0853 7.99313C57.074 8.00346 57.0666 8.00468 57.0726 8.00286C57.0796 8.00069 57.0993 7.99643 57.1364 7.99643V7.3367ZM56.4348 7.99726L56.4682 21.2578L57.1364 21.2562L57.103 7.99561L56.4348 7.99726ZM56.8023 20.9271H53.5278V21.5869H56.8023V20.9271ZM53.8619 21.2563L53.8285 5.09296L53.1602 5.09428L53.1936 21.2577L53.8619 21.2563ZM53.4944 5.42348H56.4013V4.76375H53.4944V5.42348ZM56.0709 5.14343L56.4384 7.51846L57.099 7.41884L56.7315 5.04381L56.0709 5.14343ZM56.4608 7.34066L56.1935 7.9674L56.8093 8.22338L57.0766 7.59663L56.4608 7.34066ZM56.8357 8.09539C56.8357 7.0611 57.0716 6.33896 57.4873 5.8723L56.9857 5.43648C56.4217 6.06943 56.1674 6.97454 56.1674 8.09539H56.8357ZM57.4826 5.87771C57.9076 5.42131 58.602 5.15959 59.6424 5.15959V4.49986C58.4994 4.49986 57.5899 4.7879 56.9908 5.43107L57.4826 5.87771ZM72.9821 21.1251H66.2994V21.7848H72.9821V21.1251ZM66.2994 21.1251C64.7023 21.1251 63.619 20.8203 62.9738 20.2798L62.5414 20.7828C63.3664 21.4739 64.6438 21.7848 66.2994 21.7848V21.1251ZM62.9818 20.2868C62.3687 19.7384 62.0225 18.8049 62.0225 17.3976H61.3542C61.3542 18.8931 61.7204 20.0488 62.533 20.7758L62.9818 20.2868ZM62.0225 17.3976V8.72213H61.3542V17.3976H62.0225ZM62.0225 8.72213C62.0225 7.25005 62.3336 6.35242 62.8465 5.90047L62.4014 5.40831C61.6666 6.05593 61.3542 7.20347 61.3542 8.72213H62.0225ZM62.8465 5.90047C63.3747 5.43467 64.3487 5.15959 65.865 5.15959V4.49986C64.307 4.49986 63.1198 4.77457 62.4014 5.40831L62.8465 5.90047ZM65.865 5.15959H69.1396V4.49986H65.865V5.15959ZM69.1396 5.15959C70.6539 5.15959 71.6429 5.43384 72.1959 5.90426L72.6323 5.40458C71.8925 4.77543 70.6993 4.49986 69.1396 4.49986V5.15959ZM72.1959 5.90426C72.7275 6.35684 73.0489 7.25275 73.0489 8.72213H73.7172C73.7172 7.20076 73.3921 6.05155 72.6323 5.40458L72.1959 5.90426ZM73.0489 8.72213V15.0226H73.7172V8.72213H73.0489ZM73.3831 14.6927H64.5953V15.3524H73.3831V14.6927ZM64.9295 15.0226V12.6805H64.2612V15.0226H64.9295ZM64.5953 13.0104H70.142V12.3506H64.5953V13.0104ZM70.4761 12.6805V7.8315H69.8078V12.6805H70.4761ZM70.4761 7.8315C70.4761 7.65964 70.4323 7.4702 70.2863 7.32608C70.1403 7.18199 69.9482 7.13878 69.7744 7.13878V7.79851C69.8088 7.79851 69.8252 7.80287 69.8295 7.80425C69.8319 7.80511 69.8239 7.80267 69.8138 7.79264C69.8035 7.78261 69.8011 7.77456 69.8018 7.77714C69.8032 7.78129 69.8078 7.79755 69.8078 7.8315H70.4761ZM69.7744 7.13878H65.3304V7.79851H69.7744V7.13878ZM65.3304 7.13878C65.1587 7.13878 64.9712 7.18678 64.8326 7.33749C64.6992 7.48224 64.6622 7.66716 64.6622 7.8315H65.3304C65.3304 7.79495 65.3348 7.77552 65.3368 7.76836C65.3388 7.76242 65.3374 7.76985 65.3271 7.78123C65.3221 7.7866 65.3164 7.79129 65.3107 7.79498C65.305 7.79861 65.301 7.80039 65.299 7.80102C65.296 7.80214 65.3044 7.79851 65.3304 7.79851V7.13878ZM64.6622 7.8315V18.3542H65.3304V7.8315H64.6622ZM64.6622 18.3542C64.6622 18.5185 64.6992 18.7035 64.8326 18.8482C64.9712 18.9989 65.1587 19.0469 65.3304 19.0469V18.3872C65.3044 18.3872 65.296 18.3835 65.299 18.3847C65.301 18.3853 65.305 18.3871 65.3107 18.3907C65.3164 18.3944 65.3221 18.3991 65.3271 18.4045C65.3374 18.4158 65.3388 18.4233 65.3368 18.4173C65.3348 18.4102 65.3304 18.3907 65.3304 18.3542H64.6622ZM65.3304 19.0469H72.9821V18.3872H65.3304V19.0469ZM72.648 18.717V21.4549H73.3162V18.717H72.648ZM81.9884 21.0261H75.0718V21.6858H81.9884V21.0261ZM75.4059 21.3518L75.3725 18.7129L74.7042 18.7212L74.7377 21.3601L75.4059 21.3518ZM75.0384 19.0469H82.2557V18.3872H75.0384V19.0469ZM82.2557 19.0469C82.4298 19.0469 82.6216 19.0038 82.7676 18.8595C82.9136 18.7153 82.9574 18.5258 82.9574 18.3542H82.2891C82.2891 18.3882 82.2844 18.4045 82.2831 18.4087C82.2824 18.4113 82.2847 18.4032 82.2951 18.3931C82.3051 18.383 82.3135 18.3806 82.3108 18.3814C82.3065 18.3828 82.2901 18.3872 82.2557 18.3872V19.0469ZM82.9574 18.3542V14.6927H82.2891V18.3542H82.9574ZM82.9574 14.6927C82.9574 14.5211 82.9136 14.3316 82.7676 14.1874C82.6216 14.0431 82.4298 14 82.2557 14V14.6597C82.2901 14.6597 82.3065 14.6641 82.3108 14.6655C82.3135 14.6663 82.3051 14.6639 82.2951 14.6537C82.2847 14.6436 82.2824 14.6356 82.2831 14.6382C82.2844 14.6424 82.2891 14.6587 82.2891 14.6927H82.9574ZM82.2557 14H79.048V14.6597H82.2557V14ZM79.048 14C77.535 14 76.5306 13.7264 75.9539 13.2518L75.5259 13.7586C76.2857 14.3835 77.4866 14.6597 79.048 14.6597V14ZM75.9629 13.2596C75.4223 12.7809 75.1052 11.9084 75.1052 10.5364H74.4369C74.4369 11.9793 74.7657 13.0859 75.5169 13.7508L75.9629 13.2596ZM75.1052 10.5364V8.78811H74.4369V10.5364H75.1052ZM75.1052 8.78811C75.1052 7.34993 75.4447 6.45088 76.0214 5.97307L75.592 5.46765C74.7881 6.13335 74.4369 7.2795 74.4369 8.78811H75.1052ZM76.0261 5.96911C76.6272 5.45251 77.6316 5.15959 79.1148 5.15959V4.49986C77.5684 4.49986 76.3679 4.8007 75.5874 5.47161L76.0261 5.96911ZM79.1128 5.15959L85.027 5.19258L85.0307 4.53285L79.1165 4.49986L79.1128 5.15959ZM84.6949 4.86271V7.56761H85.3631V4.86271H84.6949ZM85.029 7.23774H78.4465V7.89747H85.029V7.23774ZM78.4465 7.23774C78.2748 7.23774 78.0873 7.2858 77.9487 7.43639C77.8154 7.58103 77.7783 7.76589 77.7783 7.93046H78.4465C78.4465 7.89397 78.4509 7.87461 78.4529 7.86749C78.4549 7.86155 78.4536 7.86897 78.4432 7.88029C78.4382 7.88563 78.4325 7.89028 78.4268 7.89394C78.4215 7.89757 78.4171 7.89932 78.4155 7.89998C78.4125 7.90107 78.4205 7.89747 78.4465 7.89747V7.23774ZM77.7783 7.93046V11.394H78.4465V7.93046H77.7783ZM77.7783 11.394C77.7783 11.5586 77.8154 11.7435 77.9487 11.8881C78.0873 12.0387 78.2748 12.0868 78.4465 12.0868V11.427C78.4205 11.427 78.4125 11.4234 78.4155 11.4245C78.4171 11.4252 78.4215 11.4269 78.4268 11.4306C78.4325 11.4342 78.4382 11.4389 78.4432 11.4442C78.4536 11.4556 78.4549 11.4629 78.4529 11.457C78.4509 11.4499 78.4465 11.4305 78.4465 11.394H77.7783ZM78.4465 12.0868H81.6208V11.427H78.4465V12.0868ZM81.6208 12.0868C83.1588 12.0868 84.1586 12.3615 84.7106 12.8314L85.1469 12.3317C84.4072 11.702 83.2013 11.427 81.6208 11.427V12.0868ZM84.7106 12.8314C85.2448 13.2861 85.5636 14.1526 85.5636 15.5503H86.2319C86.2319 14.0893 85.9048 12.9766 85.1469 12.3317L84.7106 12.8314ZM85.5636 15.5503V17.7604H86.2319V15.5503H85.5636ZM85.5636 17.7604C85.5636 19.0411 85.2592 19.8602 84.7396 20.3182L85.1847 20.8104C85.9124 20.1688 86.2319 19.1187 86.2319 17.7604H85.5636ZM84.7446 20.3139C84.2104 20.7661 83.3159 21.0261 81.9884 21.0261V21.6858C83.3784 21.6858 84.4666 21.4181 85.1797 20.8147L84.7446 20.3139ZM93.373 5.15959H94.8766V4.49986H93.373V5.15959ZM94.8766 5.15959C96.2299 5.15959 97.119 5.42091 97.6282 5.86794L98.0723 5.37486C97.3789 4.76633 96.286 4.49986 94.8766 4.49986V5.15959ZM97.6329 5.87187C98.1458 6.30584 98.4518 7.11882 98.4518 8.42525H99.1201C99.1201 7.04876 98.8024 5.99253 98.0676 5.37094L97.6329 5.87187ZM98.4518 8.42525V21.257H99.1201V8.42525H98.4518ZM98.786 20.9271H95.5115V21.5869H98.786V20.9271ZM95.8456 21.257V7.8315H95.1773V21.257H95.8456ZM95.8456 7.8315C95.8456 7.65987 95.8018 7.4704 95.6558 7.32618C95.5098 7.18193 95.318 7.13878 95.1439 7.13878V7.79851C95.1783 7.79851 95.1947 7.8029 95.199 7.80428C95.2017 7.80514 95.1934 7.80267 95.1833 7.79257C95.173 7.78248 95.1706 7.77437 95.1713 7.77697C95.1727 7.78116 95.1773 7.79749 95.1773 7.8315H95.8456ZM95.1439 7.13878H90.8336V7.79851H95.1439V7.13878ZM90.8336 7.13878C90.6618 7.13878 90.4744 7.18684 90.3357 7.33743C90.2024 7.48207 90.1653 7.66693 90.1653 7.8315H90.8336C90.8336 7.79501 90.8379 7.77565 90.8399 7.76853C90.8419 7.76259 90.8406 7.77001 90.8302 7.78133C90.8252 7.78667 90.8195 7.79132 90.8139 7.79498C90.8085 7.79861 90.8042 7.80036 90.8025 7.80102C90.7995 7.80211 90.8075 7.79851 90.8336 7.79851V7.13878ZM90.1653 7.83232L90.1987 21.2578L90.867 21.2562L90.8336 7.83067L90.1653 7.83232ZM90.5329 20.9271H87.2249V21.5869H90.5329V20.9271ZM87.5591 21.2563L87.5256 5.09296L86.8574 5.09428L86.8908 21.2577L87.5591 21.2563ZM87.1915 5.42348H90.1319V4.76375H87.1915V5.42348ZM89.8014 5.14343L90.169 7.51846L90.8296 7.41884L90.462 5.04381L89.8014 5.14343ZM90.1974 7.32743L89.8967 7.95417L90.5005 8.2366L90.8012 7.60986L90.1974 7.32743ZM90.5329 8.09539C90.5329 7.06116 90.7688 6.33896 91.1848 5.87227L90.6829 5.43655C90.1189 6.06939 89.8646 6.97448 89.8646 8.09539H90.5329ZM91.1794 5.87777C91.6041 5.42253 92.3081 5.15959 93.373 5.15959V4.49986C92.2102 4.49986 91.2887 4.78671 90.6879 5.43101L91.1794 5.87777ZM101.66 5.15959H103.163V4.49986H101.66V5.15959ZM103.163 5.15959C104.492 5.15959 105.371 5.42025 105.881 5.86794L106.325 5.37486C105.633 4.76699 104.552 4.49986 103.163 4.49986V5.15959ZM105.886 5.87187C106.399 6.30584 106.705 7.11882 106.705 8.42525H107.373C107.373 7.04876 107.055 5.99253 106.321 5.37094L105.886 5.87187ZM106.705 8.42525V21.257H107.373V8.42525H106.705ZM107.039 20.9271H103.765V21.5869H107.039V20.9271ZM104.099 21.257V7.8315H103.43V21.257H104.099ZM104.099 7.8315C104.099 7.65987 104.055 7.4704 103.909 7.32618C103.763 7.18193 103.571 7.13878 103.397 7.13878V7.79851C103.431 7.79851 103.448 7.8029 103.452 7.80428C103.455 7.80511 103.446 7.80267 103.436 7.79257C103.426 7.78245 103.424 7.77437 103.424 7.77697C103.426 7.78116 103.43 7.79749 103.43 7.8315H104.099ZM103.397 7.13878H99.1535V7.79851H103.397V7.13878ZM99.1535 7.13878C98.9794 7.13878 98.7877 7.18199 98.6416 7.32608C98.4956 7.47023 98.4518 7.65964 98.4518 7.8315H99.1201C99.1201 7.79755 99.1245 7.78129 99.1258 7.77714C99.1268 7.77456 99.1241 7.78261 99.1141 7.79264C99.1037 7.80267 99.0957 7.80511 99.0984 7.80425C99.1024 7.80287 99.1191 7.79851 99.1535 7.79851V7.13878ZM98.4552 7.78485L98.3549 8.47757L99.0165 8.57086L99.1168 7.87814L98.4552 7.78485ZM98.9975 8.40579L98.8304 7.97697L98.2066 8.21381L98.3737 8.64264L98.9975 8.40579ZM98.8528 8.09539C98.8528 7.06116 99.0887 6.33896 99.5047 5.87227L99.0028 5.43655C98.4388 6.06939 98.1845 6.97448 98.1845 8.09539H98.8528ZM99.4994 5.87777C99.925 5.42131 100.62 5.15959 101.66 5.15959V4.49986C100.517 4.49986 99.6073 4.7879 99.0079 5.43101L99.4994 5.87777ZM113.976 21.191H112.306V21.8508H113.976V21.191ZM112.306 21.191C111.002 21.191 110.118 20.9317 109.583 20.4788L109.148 20.9797C109.86 21.5823 110.936 21.8508 112.306 21.8508V21.191ZM109.588 20.4831C109.068 20.0251 108.764 19.206 108.764 17.9254H108.096C108.096 19.2836 108.415 20.3338 109.143 20.9753L109.588 20.4831ZM108.764 17.9254V15.5503H108.096V17.9254H108.764ZM108.764 15.5503C108.764 14.1527 109.083 13.2861 109.617 12.8314L109.181 12.3317C108.423 12.9765 108.096 14.0892 108.096 15.5503H108.764ZM109.617 12.8314C110.169 12.361 111.159 12.0868 112.673 12.0868V11.427C111.114 11.427 109.92 11.7025 109.181 12.3317L109.617 12.8314ZM112.673 12.0868H117.218V11.427H112.673V12.0868ZM116.883 11.7569V14.1319H117.552V11.7569H116.883ZM117.218 13.8021H112.038V14.4618H117.218V13.8021ZM112.038 13.8021C111.872 13.8021 111.685 13.8388 111.538 13.9703C111.385 14.1072 111.337 14.2924 111.337 14.4618H112.005C112.005 14.4362 112.009 14.4281 112.007 14.4311C112.007 14.4329 112.005 14.437 112.001 14.4425C111.998 14.4481 111.993 14.4536 111.987 14.4585C111.976 14.4688 111.969 14.47 111.975 14.4682C111.982 14.466 112.001 14.4618 112.038 14.4618V13.8021ZM111.337 14.4618V18.5191H112.005V14.4618H111.337ZM111.337 18.5191C111.337 18.691 111.381 18.8804 111.527 19.0245C111.673 19.1686 111.864 19.2118 112.038 19.2118V18.5521C112.004 18.5521 111.987 18.5478 111.983 18.5464C111.981 18.5455 111.989 18.548 111.999 18.558C112.009 18.568 112.012 18.5761 112.011 18.5735C112.009 18.5693 112.005 18.5531 112.005 18.5191H111.337ZM112.038 19.2118H116.817V18.5521H112.038V19.2118ZM117.151 18.882V8.12838H116.482V18.882H117.151ZM117.151 8.12838C117.151 7.95896 117.102 7.7738 116.949 7.63688C116.803 7.50536 116.615 7.46865 116.449 7.46865V8.12838C116.486 8.12838 116.505 8.13263 116.513 8.13481C116.519 8.13662 116.511 8.1354 116.5 8.12508C116.494 8.12023 116.49 8.11469 116.486 8.10911C116.482 8.10364 116.48 8.09945 116.48 8.09767C116.479 8.09466 116.482 8.10281 116.482 8.12838H117.151ZM116.449 7.46865H109.432V8.12838H116.449V7.46865ZM109.766 7.79851V5.06063H109.098V7.79851H109.766ZM109.432 5.3905H115.781V4.73077H109.432V5.3905ZM115.785 5.39046C117.317 5.36886 118.325 5.65396 118.899 6.16347L119.346 5.67309C118.582 4.99509 117.363 4.7084 115.776 4.7308L115.785 5.39046ZM118.903 6.16703C119.485 6.66787 119.824 7.58235 119.824 9.01901H120.492C120.492 7.50886 120.14 6.35621 119.341 5.66953L118.903 6.16703ZM119.824 9.01901V21.257H120.492V9.01901H119.824ZM120.158 20.9271H117.184V21.5869H120.158V20.9271ZM117.514 21.2072L117.147 18.8322L116.486 18.9318L116.854 21.3068L117.514 21.2072ZM117.135 18.9813L117.335 18.3546L116.698 18.1559L116.498 18.7826L117.135 18.9813ZM116.683 18.2552C116.683 19.2675 116.458 19.9968 116.055 20.489L116.575 20.9035C117.108 20.2522 117.351 19.3541 117.351 18.2552H116.683ZM116.059 20.4841C115.681 20.9282 115.02 21.191 113.976 21.191V21.8508C115.116 21.8508 116.013 21.5639 116.571 20.9084L116.059 20.4841ZM128.571 5.15959H130.108V4.49986H128.571V5.15959ZM129.774 4.82973V7.66657H130.442V4.82973H129.774ZM130.108 7.3367H126.065V7.99643H130.108V7.3367ZM126.065 7.3367C125.898 7.3367 125.711 7.37341 125.564 7.50493C125.411 7.64186 125.363 7.82701 125.363 7.99643H126.031C126.031 7.97087 126.035 7.96272 126.034 7.96572C126.033 7.9675 126.031 7.97169 126.028 7.97717C126.024 7.98274 126.019 7.98825 126.014 7.99313C126.002 8.00346 125.995 8.00468 126.001 8.00286C126.008 8.00069 126.028 7.99643 126.065 7.99643V7.3367ZM125.363 7.99726L125.396 21.2578L126.065 21.2562L126.031 7.99561L125.363 7.99726ZM125.731 20.9271H122.456V21.5869H125.731V20.9271ZM122.79 21.2563L122.757 5.09296L122.089 5.09428L122.122 21.2577L122.79 21.2563ZM122.423 5.42348H125.33V4.76375H122.423V5.42348ZM124.999 5.14343L125.367 7.51846L126.027 7.41884L125.66 5.04381L124.999 5.14343ZM125.389 7.34063L125.122 7.96737L125.738 8.22341L126.005 7.59667L125.389 7.34063ZM125.764 8.09539C125.764 7.06116 126 6.33896 126.416 5.87227L125.914 5.43655C125.35 6.06939 125.096 6.97448 125.096 8.09539H125.764ZM126.411 5.87777C126.836 5.42131 127.531 5.15959 128.571 5.15959V4.49986C127.428 4.49986 126.518 4.7879 125.919 5.43101L126.411 5.87777ZM138.665 5.09362V7.63358H139.334V5.09362H138.665ZM138.999 7.30371H134.856V7.96344H138.999V7.30371ZM135.092 7.86683L135.427 7.53696L134.954 7.07047L134.62 7.40033L135.092 7.86683ZM134.856 7.30371V18.1893H135.524V7.30371H134.856ZM134.856 18.1893C134.856 18.3587 134.905 18.5438 135.057 18.6808C135.204 18.8123 135.391 18.849 135.558 18.849V18.1893C135.521 18.1893 135.501 18.185 135.494 18.1828C135.488 18.181 135.495 18.1822 135.507 18.1926C135.512 18.1974 135.517 18.2029 135.521 18.2085C135.524 18.214 135.526 18.2182 135.527 18.22C135.528 18.223 135.524 18.2148 135.524 18.1893H134.856ZM135.558 18.849H138.999V18.1893H135.558V18.849ZM138.665 18.5191V21.257H139.334V18.5191H138.665ZM138.999 20.9271H136.527V21.5869H138.999V20.9271ZM136.527 20.9271C134.93 20.9271 133.846 20.6223 133.201 20.0819L132.769 20.5849C133.594 21.2759 134.871 21.5869 136.527 21.5869V20.9271ZM133.205 20.0852C132.598 19.5605 132.25 18.6321 132.25 17.1997H131.582C131.582 18.714 131.946 19.8747 132.765 20.5816L133.205 20.0852ZM132.25 17.1997V7.30371H131.582V17.1997H132.25ZM131.68 7.53696L132.014 7.86683L132.486 7.40033L132.152 7.07047L131.68 7.53696ZM132.25 7.30371H130.011V7.96344H132.25V7.30371ZM130.345 7.63358V5.09362H129.677V7.63358H130.345ZM130.011 5.42348H132.25V4.76375H130.011V5.42348ZM132.014 4.86037L131.68 5.19024L132.152 5.65673L132.486 5.32687L132.014 4.86037ZM132.25 5.42348V0.970311H131.582V5.42348H132.25ZM131.916 1.30018H135.19V0.640446H131.916V1.30018ZM134.856 0.970311V5.42348H135.524V0.970311H134.856ZM135.427 5.19024L135.092 4.86037L134.62 5.32687L134.954 5.65673L135.427 5.19024ZM134.856 5.42348H138.999V4.76375H134.856V5.42348Z" fill="#020002"/>
</g>
<path d="M129.652 24.7205C129.621 24.6259 129.579 24.541 129.528 24.4661C129.478 24.3902 129.418 24.3255 129.348 24.2721C129.278 24.2187 129.2 24.1779 129.111 24.1498C129.023 24.1217 128.926 24.1076 128.821 24.1076C128.648 24.1076 128.491 24.1517 128.35 24.2397C128.208 24.3279 128.096 24.4576 128.012 24.6291C127.929 24.8006 127.887 25.011 127.887 25.2603C127.887 25.5095 127.929 25.7199 128.013 25.8914C128.098 26.0629 128.212 26.1927 128.357 26.2808C128.501 26.3689 128.663 26.4129 128.843 26.4129C129.01 26.4129 129.158 26.3778 129.285 26.3075C129.413 26.2363 129.513 26.136 129.584 26.0067C129.656 25.8764 129.692 25.7232 129.692 25.547L129.8 25.5695H128.923V25.2603H130.034V25.5695C130.034 25.8066 129.982 26.0128 129.88 26.188C129.779 26.3632 129.638 26.4991 129.459 26.5957C129.28 26.6912 129.075 26.739 128.843 26.739C128.585 26.739 128.359 26.6791 128.163 26.5591C127.968 26.4392 127.816 26.2686 127.707 26.0474C127.599 25.8263 127.545 25.5639 127.545 25.2603C127.545 25.0325 127.576 24.8278 127.637 24.646C127.7 24.4633 127.789 24.3077 127.902 24.1793C128.016 24.0509 128.151 23.9525 128.307 23.8841C128.462 23.8157 128.634 23.7815 128.821 23.7815C128.974 23.7815 129.118 23.8045 129.251 23.8504C129.385 23.8954 129.504 23.9596 129.608 24.0429C129.713 24.1254 129.801 24.2243 129.871 24.3396C129.942 24.4539 129.99 24.5809 130.017 24.7205H129.652ZM130.593 26.6997V24.5405H130.918V24.8667H130.94C130.98 24.7598 131.052 24.6732 131.157 24.6066C131.261 24.5401 131.379 24.5068 131.51 24.5068C131.535 24.5068 131.566 24.5073 131.603 24.5082C131.64 24.5092 131.667 24.5106 131.687 24.5124V24.8498C131.675 24.847 131.649 24.8428 131.608 24.8372C131.568 24.8306 131.526 24.8273 131.482 24.8273C131.375 24.8273 131.28 24.8493 131.197 24.8934C131.114 24.9365 131.049 24.9965 131 25.0733C130.953 25.1492 130.929 25.2359 130.929 25.3334V26.6997H130.593ZM132.907 26.7447C132.709 26.7447 132.536 26.6983 132.387 26.6055C132.239 26.5127 132.123 26.3829 132.04 26.2161C131.957 26.0493 131.916 25.8544 131.916 25.6314C131.916 25.4064 131.957 25.2101 132.04 25.0424C132.123 24.8746 132.239 24.7444 132.387 24.6516C132.536 24.5588 132.709 24.5124 132.907 24.5124C133.104 24.5124 133.277 24.5588 133.425 24.6516C133.574 24.7444 133.69 24.8746 133.773 25.0424C133.856 25.2101 133.898 25.4064 133.898 25.6314C133.898 25.8544 133.856 26.0493 133.773 26.2161C133.69 26.3829 133.574 26.5127 133.425 26.6055C133.277 26.6983 133.104 26.7447 132.907 26.7447ZM132.907 26.4467C133.057 26.4467 133.18 26.4087 133.277 26.3328C133.374 26.2569 133.445 26.1571 133.492 26.0334C133.539 25.9097 133.562 25.7757 133.562 25.6314C133.562 25.4871 133.539 25.3526 133.492 25.228C133.445 25.1033 133.374 25.0026 133.277 24.9257C133.18 24.8489 133.057 24.8104 132.907 24.8104C132.757 24.8104 132.633 24.8489 132.537 24.9257C132.44 25.0026 132.368 25.1033 132.322 25.228C132.275 25.3526 132.252 25.4871 132.252 25.6314C132.252 25.7757 132.275 25.9097 132.322 26.0334C132.368 26.1571 132.44 26.2569 132.537 26.3328C132.633 26.4087 132.757 26.4467 132.907 26.4467ZM135.789 25.8169V24.5405H136.125V26.6997H135.789V26.3342H135.766C135.715 26.4438 135.635 26.5371 135.527 26.6139C135.419 26.6898 135.282 26.7278 135.117 26.7278C134.98 26.7278 134.859 26.6983 134.753 26.6392C134.646 26.5792 134.563 26.4893 134.502 26.3694C134.441 26.2485 134.411 26.0962 134.411 25.9125V24.5405H134.747V25.89C134.747 26.0474 134.791 26.173 134.881 26.2667C134.971 26.3604 135.086 26.4073 135.225 26.4073C135.309 26.4073 135.394 26.3862 135.48 26.3441C135.567 26.3019 135.641 26.2372 135.699 26.1501C135.759 26.0629 135.789 25.9519 135.789 25.8169ZM136.741 27.5093V24.5405H137.065V24.8835H137.105C137.13 24.8461 137.164 24.7983 137.208 24.7402C137.252 24.6811 137.316 24.6287 137.399 24.5827C137.482 24.5359 137.595 24.5124 137.737 24.5124C137.921 24.5124 138.084 24.5579 138.224 24.6488C138.365 24.7397 138.474 24.8686 138.553 25.0353C138.632 25.2022 138.671 25.399 138.671 25.6257C138.671 25.8544 138.632 26.0526 138.553 26.2204C138.474 26.3872 138.365 26.5165 138.226 26.6083C138.086 26.6992 137.925 26.7447 137.743 26.7447C137.602 26.7447 137.49 26.7217 137.406 26.6758C137.321 26.6289 137.256 26.576 137.21 26.5169C137.165 26.457 137.13 26.4073 137.105 26.3679H137.077V27.5093H136.741ZM137.071 25.6201C137.071 25.7832 137.095 25.927 137.144 26.0517C137.192 26.1754 137.263 26.2723 137.356 26.3426C137.449 26.412 137.563 26.4467 137.697 26.4467C137.838 26.4467 137.955 26.4101 138.049 26.337C138.144 26.263 138.215 26.1636 138.263 26.039C138.311 25.9134 138.335 25.7738 138.335 25.6201C138.335 25.4683 138.312 25.3315 138.264 25.2097C138.218 25.0869 138.147 24.9899 138.052 24.9187C137.958 24.8465 137.84 24.8104 137.697 24.8104C137.561 24.8104 137.446 24.8447 137.353 24.9131C137.26 24.9806 137.19 25.0752 137.142 25.197C137.095 25.3179 137.071 25.4589 137.071 25.6201Z" fill="white"/>
</g>
<defs>
<linearGradient id="paint0_linear_228_1161" x1="9.02493" y1="2.42597" x2="10.7893" y2="22.4645" gradientUnits="userSpaceOnUse">
<stop stop-color="#B2FF5D"/>
<stop offset="1" stop-color="#00C7B8"/>
</linearGradient>
<linearGradient id="paint1_linear_228_1161" x1="7.87608" y1="7.04756" x2="8.95714" y2="19.8418" gradientUnits="userSpaceOnUse">
<stop stop-color="#B2FF5D"/>
<stop offset="1" stop-color="#00C7B8"/>
</linearGradient>
<linearGradient id="paint2_linear_228_1161" x1="6.751" y1="10.0089" x2="7.4447" y2="18.1104" gradientUnits="userSpaceOnUse">
<stop stop-color="#B2FF5D"/>
<stop offset="1" stop-color="#00C7B8"/>
</linearGradient>
<linearGradient id="paint3_linear_228_1161" x1="6.18848" y1="12.23" x2="6.53806" y2="16.4966" gradientUnits="userSpaceOnUse">
<stop stop-color="#B2FF5D"/>
<stop offset="1" stop-color="#00C7B8"/>
</linearGradient>
<linearGradient id="paint4_linear_228_1161" x1="0.429447" y1="10.9108" x2="20.7191" y2="12.7438" gradientUnits="userSpaceOnUse">
<stop stop-color="#B2FF5D"/>
<stop offset="1" stop-color="#00C7B8"/>
</linearGradient>
<linearGradient id="paint5_linear_228_1161" x1="5.1105" y1="9.77665" x2="18.0656" y2="10.8998" gradientUnits="userSpaceOnUse">
<stop stop-color="#B2FF5D"/>
<stop offset="1" stop-color="#00C7B8"/>
</linearGradient>
<linearGradient id="paint6_linear_228_1161" x1="8.11087" y1="8.6659" x2="16.3141" y2="9.38658" gradientUnits="userSpaceOnUse">
<stop stop-color="#B2FF5D"/>
<stop offset="1" stop-color="#00C7B8"/>
</linearGradient>
<linearGradient id="paint7_linear_228_1161" x1="10.3606" y1="8.11052" x2="14.6809" y2="8.47372" gradientUnits="userSpaceOnUse">
<stop stop-color="#B2FF5D"/>
<stop offset="1" stop-color="#00C7B8"/>
</linearGradient>
<clipPath id="clip0_228_1161">
<rect width="139" height="27.3788" fill="white" transform="translate(0 0.310547)"/>
</clipPath>
</defs>
</svg>
